<svg width="48" height="48" viewBox="0 0 48 48" fill="none" xmlns="http://www.w3.org/2000/svg">
<rect width="48" height="48" fill="#1E1E1E"/>
<rect width="48" height="48" fill="white"/>
<path d="M23.35 6.445C27.3833 3.98833 29.6933 2.76 30.28 2.76C30.8667 2.76 31.7833 3.51167 33.03 5.015C34.3133 6.51833 34.955 7.875 34.955 9.085V26.19C34.955 26.4467 33.4883 27.1617 30.555 28.335C27.6583 29.5083 25.2567 30.3883 23.35 30.975V36.53C23.35 37.8867 23.4967 38.8583 23.79 39.445C24.0833 40.0317 24.6883 40.325 25.605 40.325V42.03L14.33 46.76L13.45 45C14.2567 45 15.0267 44.5233 15.76 43.57C16.42 42.6533 16.75 41.26 16.75 39.39V10.9C16.75 8.66333 15.9983 7.39833 14.495 7.105V5.895L20.05 2.76C20.7833 3.05333 21.5167 3.585 22.25 4.355C22.9833 5.125 23.35 5.82166 23.35 6.445ZM25.495 8.04C24.835 8.04 24.12 8.315 23.35 8.865V28.39C24.3033 28.39 25.3667 28.0967 26.54 27.51C27.7133 26.8867 28.3 26.245 28.3 25.585V12.11C28.3 9.39666 27.365 8.04 25.495 8.04Z" fill="black"/>
</svg>
