<svg width="182" height="64" viewBox="0 0 182 64" fill="none" xmlns="http://www.w3.org/2000/svg">
<g clip-path="url(#clip0_17_2)">
<g filter="url(#filter0_d_17_2)">
<path d="M8.5 14.95C12.1667 12.7167 14.2667 11.6 14.8 11.6C15.3333 11.6 16.1667 12.2833 17.3 13.65C18.4667 15.0167 19.05 16.25 19.05 17.35V32.9C19.05 33.1333 17.7167 33.7833 15.05 34.85C12.4167 35.9167 10.2333 36.7167 8.5 37.25V42.3C8.5 43.5333 8.63333 44.4167 8.9 44.95C9.16667 45.4833 9.71667 45.75 10.55 45.75V47.3L0.3 51.6L-0.5 50C0.233333 50 0.933333 49.5667 1.6 48.7C2.2 47.8667 2.5 46.6 2.5 44.9V19C2.5 16.9667 1.81667 15.8167 0.45 15.55V14.45L5.5 11.6C6.16667 11.8667 6.83333 12.35 7.5 13.05C8.16667 13.75 8.5 14.3833 8.5 14.95ZM10.45 16.4C9.85 16.4 9.2 16.65 8.5 17.15V34.9C9.36667 34.9 10.3333 34.6333 11.4 34.1C12.4667 33.5333 13 32.95 13 32.35V20.1C13 17.6333 12.15 16.4 10.45 16.4ZM29.5449 24.9V42.6C29.5449 44.6333 30.2283 45.7833 31.5949 46.05V47.15L26.5449 50C25.8116 49.7 25.1283 49.2167 24.4949 48.55C23.8616 47.85 23.5449 47.2 23.5449 46.6V28.9C23.5449 26.8667 22.8616 25.7167 21.4949 25.45V24.35L26.5449 21.5C27.2783 21.8 27.9616 22.3 28.5949 23C29.2283 23.6667 29.5449 24.3 29.5449 24.9ZM22.7949 15.25V12.2C22.7949 12.1 23.4783 11.8 24.8449 11.3C26.2449 10.7667 27.0449 10.5 27.2449 10.5C27.4783 10.5 27.7949 10.7833 28.1949 11.35C28.6283 11.9167 28.8449 12.5 28.8449 13.1V16.75C28.8449 16.85 28.1783 17.1667 26.8449 17.7C25.5116 18.2 24.6949 18.45 24.3949 18.45C24.0949 18.45 23.7449 18.1667 23.3449 17.6C22.9783 17 22.7949 16.2167 22.7949 15.25ZM32.0813 24.5L37.5813 21.5C37.8146 21.5667 38.0813 21.6667 38.3813 21.8C38.7146 21.9 39.1479 22.2167 39.6813 22.75C40.2479 23.2833 40.5313 23.8833 40.5313 24.55C40.6979 24.4833 41.4813 23.9667 42.8813 23C44.3146 22 45.2313 21.5 45.6313 21.5C46.6979 21.5 47.6979 22.2 48.6313 23.6C49.5646 25 50.0313 26.2833 50.0313 27.45V29.9L44.8812 32.8L44.0313 32.1C44.0313 29.3 43.7646 27.7 43.2313 27.3C42.6313 26.8667 41.7313 26.65 40.5313 26.65V42.6C40.5313 44.6333 41.2146 45.7833 42.5813 46.05V47.15L37.5313 50C36.7979 49.7 36.1146 49.2167 35.4813 48.55C34.8479 47.85 34.5313 47.2 34.5313 46.6V30C34.5313 28.5333 34.2646 27.4333 33.7313 26.7C33.2313 25.9667 32.6813 25.6 32.0813 25.6V24.5ZM66.0469 28.1V42.25C66.0469 43.4833 66.2469 44.35 66.6469 44.85C67.0469 45.3167 67.6635 45.65 68.4969 45.85V46.95L63.0469 50C62.3135 49.7 61.6302 49.2167 60.9969 48.55C60.3635 47.85 60.0469 47.2167 60.0469 46.65L53.7969 50C53.6969 49.9333 53.5469 49.85 53.3469 49.75C53.1469 49.6167 52.7969 49.3667 52.2969 49C51.8302 48.6 51.4135 48.1833 51.0469 47.75C50.0469 46.65 49.5469 45.4 49.5469 44V35.8C49.5469 35.2667 50.4135 34.5833 52.1469 33.75C53.8802 32.9167 55.6135 32.2333 57.3469 31.7L59.9969 30.85C59.9969 28.95 59.4969 27.6333 58.4969 26.9C57.4969 26.1333 55.5635 25.75 52.6969 25.75V24.25C57.8635 22.4167 60.7635 21.5 61.3969 21.5C62.4969 21.5 63.5469 22.2167 64.5469 23.65C65.5469 25.0833 66.0469 26.5667 66.0469 28.1ZM55.5469 42.2C55.5469 43.0667 55.7969 43.7833 56.2969 44.35C56.8302 44.8833 57.4135 45.15 58.0469 45.15C58.6802 45.15 59.3469 44.9 60.0469 44.4V33.1C59.2135 33.4 58.5802 33.65 58.1469 33.85C57.7469 34.05 57.3135 34.3667 56.8469 34.8C55.9802 35.6 55.5469 36.9833 55.5469 38.95V42.2ZM77.0547 16.3V22.25H79.6047L79.1047 24.7H77.0547V42.6C77.0547 44.6333 77.738 45.7833 79.1047 46.05V47.15L74.0547 50C73.3214 49.7 72.638 49.2167 72.0047 48.55C71.3714 47.85 71.0547 47.2 71.0547 46.6V24.75H69.0047L69.5047 22.65C70.5047 22.65 71.7047 21.9833 73.1047 20.65C74.538 19.2833 75.388 17.8333 75.6547 16.3H77.0547ZM97.541 28.1V42.25C97.541 43.4833 97.741 44.35 98.141 44.85C98.541 45.3167 99.1577 45.65 99.991 45.85V46.95L94.541 50C93.8077 49.7 93.1243 49.2167 92.491 48.55C91.8577 47.85 91.541 47.2167 91.541 46.65L85.291 50C85.191 49.9333 85.041 49.85 84.841 49.75C84.641 49.6167 84.291 49.3667 83.791 49C83.3243 48.6 82.9077 48.1833 82.541 47.75C81.541 46.65 81.041 45.4 81.041 44V35.8C81.041 35.2667 81.9077 34.5833 83.641 33.75C85.3743 32.9167 87.1077 32.2333 88.841 31.7L91.491 30.85C91.491 28.95 90.991 27.6333 89.991 26.9C88.991 26.1333 87.0577 25.75 84.191 25.75V24.25C89.3577 22.4167 92.2577 21.5 92.891 21.5C93.991 21.5 95.041 22.2167 96.041 23.65C97.041 25.0833 97.541 26.5667 97.541 28.1ZM87.041 42.2C87.041 43.0667 87.291 43.7833 87.791 44.35C88.3243 44.8833 88.9077 45.15 89.541 45.15C90.1743 45.15 90.841 44.9 91.541 44.4V33.1C90.7077 33.4 90.0743 33.65 89.641 33.85C89.241 34.05 88.8077 34.3667 88.341 34.8C87.4743 35.6 87.041 36.9833 87.041 38.95V42.2ZM104.849 39.05C104.015 39.05 103.299 38.4167 102.699 37.15C102.099 35.8833 101.799 34.3333 101.799 32.5V27.1C101.799 26.4667 103.549 25.3833 107.049 23.85C110.549 22.2833 112.565 21.5 113.099 21.5C113.399 21.5 113.665 21.6833 113.899 22.05C114.132 22.3833 114.315 22.6667 114.449 22.9C114.582 23.1 114.782 23.4667 115.049 24C115.349 24.5 115.599 24.9167 115.799 25.25C116.232 26.05 116.782 26.45 117.449 26.45V27.45C116.915 27.6833 116.215 28.0333 115.349 28.5C113.215 29.6667 112.065 30.25 111.899 30.25C111.399 30.25 110.849 29.4333 110.249 27.8C109.682 26.1667 109.165 25.35 108.699 25.35C108.099 25.35 107.799 25.85 107.799 26.85V33C107.799 34.3333 108.099 35 108.699 35C108.832 35 109.865 34.5667 111.799 33.7C113.732 32.8333 114.899 32.4 115.299 32.4C116.099 32.4 116.799 33.05 117.399 34.35C118.032 35.6167 118.349 37.25 118.349 39.25V44.9C118.349 45.5333 116.432 46.6333 112.599 48.2C108.799 49.7333 106.615 50.5 106.049 50.5C105.815 50.5 105.582 50.3 105.349 49.9C105.149 49.4667 104.849 48.8167 104.449 47.95C104.082 47.0833 103.715 46.35 103.349 45.75C102.915 44.95 102.365 44.55 101.699 44.55V43.55C102.232 43.3167 102.949 42.9667 103.849 42.5C105.949 41.3333 107.082 40.75 107.249 40.75C107.749 40.75 108.365 41.7333 109.099 43.7C109.865 45.6667 110.482 46.65 110.949 46.65C111.282 46.65 111.599 46.5167 111.899 46.25C112.199 45.9833 112.349 45.6167 112.349 45.15V38.9C112.349 37.4 111.932 36.65 111.099 36.65C110.832 36.65 109.782 37.05 107.949 37.85C106.115 38.65 105.082 39.05 104.849 39.05Z" fill="white"/>
</g>
<g filter="url(#filter1_d_17_2)">
<path d="M131.89 15.28C131.523 15.28 131.193 15.4633 130.9 15.83V30.79H138.105V32.11L135.355 33.485H130.9V43.825C130.9 45.1817 131.047 46.1533 131.34 46.74C131.633 47.3267 132.238 47.62 133.155 47.62V49.325L121.88 54.055L121 52.295C121.807 52.295 122.577 51.8183 123.31 50.865C123.97 49.9483 124.3 48.555 124.3 46.685V15.005C124.3 14.7483 126.39 13.85 130.57 12.31C134.787 10.7333 137.207 9.94501 137.83 9.94501C138.05 9.94501 138.307 10.4767 138.6 11.54C138.893 12.6033 139.223 13.8867 139.59 15.39C139.993 16.8933 140.397 18.0117 140.8 18.745C141.24 19.4417 142.047 19.79 143.22 19.79V20.89C142.413 21.2567 141.038 21.9167 139.095 22.87C137.188 23.7867 136.162 24.245 136.015 24.245C135.465 24.245 134.768 22.76 133.925 19.79C133.082 16.7833 132.403 15.28 131.89 15.28ZM151.172 15.28C150.806 15.28 150.476 15.4633 150.182 15.83V30.79H157.387V32.11L154.637 33.485H150.182V43.825C150.182 45.1817 150.329 46.1533 150.622 46.74C150.916 47.3267 151.521 47.62 152.437 47.62V49.325L141.162 54.055L140.282 52.295C141.089 52.295 141.859 51.8183 142.592 50.865C143.252 49.9483 143.582 48.555 143.582 46.685V15.005C143.582 14.7483 145.672 13.85 149.852 12.31C154.069 10.7333 156.489 9.94501 157.112 9.94501C157.332 9.94501 157.589 10.4767 157.882 11.54C158.176 12.6033 158.506 13.8867 158.872 15.39C159.276 16.8933 159.679 18.0117 160.082 18.745C160.522 19.4417 161.329 19.79 162.502 19.79V20.89C161.696 21.2567 160.321 21.9167 158.377 22.87C156.471 23.7867 155.444 24.245 155.297 24.245C154.747 24.245 154.051 22.76 153.207 19.79C152.364 16.7833 151.686 15.28 151.172 15.28ZM169.464 13.74C173.498 11.2833 175.808 10.055 176.394 10.055C176.981 10.055 177.898 10.8067 179.144 12.31C180.428 13.8133 181.069 15.17 181.069 16.38V33.485C181.069 33.7417 179.603 34.4567 176.669 35.63C173.773 36.8033 171.371 37.6833 169.464 38.27V43.825C169.464 45.1817 169.611 46.1533 169.904 46.74C170.198 47.3267 170.803 47.62 171.719 47.62V49.325L160.444 54.055L159.564 52.295C160.371 52.295 161.141 51.8183 161.874 50.865C162.534 49.9483 162.864 48.555 162.864 46.685V18.195C162.864 15.9583 162.113 14.6933 160.609 14.4V13.19L166.164 10.055C166.898 10.3483 167.631 10.88 168.364 11.65C169.098 12.42 169.464 13.1167 169.464 13.74ZM171.609 15.335C170.949 15.335 170.234 15.61 169.464 16.16V35.685C170.418 35.685 171.481 35.3917 172.654 34.805C173.828 34.1817 174.414 33.54 174.414 32.88V19.405C174.414 16.6917 173.479 15.335 171.609 15.335Z" fill="#FFC600"/>
</g>
</g>
<defs>
<filter id="filter0_d_17_2" x="-0.5" y="10.5" width="120.849" height="45.1" filterUnits="userSpaceOnUse" color-interpolation-filters="sRGB">
<feFlood flood-opacity="0" result="BackgroundImageFix"/>
<feColorMatrix in="SourceAlpha" type="matrix" values="0 0 0 0 0 0 0 0 0 0 0 0 0 0 0 0 0 0 127 0" result="hardAlpha"/>
<feOffset dx="2" dy="4"/>
<feComposite in2="hardAlpha" operator="out"/>
<feColorMatrix type="matrix" values="0 0 0 0 0 0 0 0 0 0 0 0 0 0 0 0 0 0 1 0"/>
<feBlend mode="normal" in2="BackgroundImageFix" result="effect1_dropShadow_17_2"/>
<feBlend mode="normal" in="SourceGraphic" in2="effect1_dropShadow_17_2" result="shape"/>
</filter>
<filter id="filter1_d_17_2" x="121" y="9.94501" width="62.069" height="48.11" filterUnits="userSpaceOnUse" color-interpolation-filters="sRGB">
<feFlood flood-opacity="0" result="BackgroundImageFix"/>
<feColorMatrix in="SourceAlpha" type="matrix" values="0 0 0 0 0 0 0 0 0 0 0 0 0 0 0 0 0 0 127 0" result="hardAlpha"/>
<feOffset dx="2" dy="4"/>
<feComposite in2="hardAlpha" operator="out"/>
<feColorMatrix type="matrix" values="0 0 0 0 0 0 0 0 0 0 0 0 0 0 0 0 0 0 1 0"/>
<feBlend mode="normal" in2="BackgroundImageFix" result="effect1_dropShadow_17_2"/>
<feBlend mode="normal" in="SourceGraphic" in2="effect1_dropShadow_17_2" result="shape"/>
</filter>
<clipPath id="clip0_17_2">
<rect width="181.069" height="64" fill="white"/>
</clipPath>
</defs>
</svg>
