<svg width="512" height="553" viewBox="0 0 512 553" fill="none" xmlns="http://www.w3.org/2000/svg">
<path d="M511.83 297.405C512.31 436.565 399.86 550.155 261.16 552.315C114.27 554.605 0.950031 436.495 0.890031 297.115C0.840031 155.475 116.26 41.6747 256.27 41.5247C398.04 41.3847 513.19 157.655 511.83 297.405Z" fill="#080709"/>
<path d="M18.68 133.555C23.11 137.745 27.15 142.195 33.2 144.315C32.01 145.975 30.87 147.565 29.7 149.185C28.87 144.365 13.27 132.795 8.5 133.425C12.89 126.635 12.88 126.665 20.74 128.635C24.36 129.545 28.02 130.305 32.33 131.285C30.09 127.495 28.22 124.245 26.27 121.045C22.15 114.295 22.13 114.305 27.31 107.985C28.6 113.135 33.29 114.915 36.99 117.385C40.5 119.725 42.94 124.795 49.13 122.775C46.88 125.905 44.92 128.625 42.95 131.365C39.92 125.045 33.49 122.945 28.08 119.325C30.97 124.125 33.83 128.955 36.78 133.725C37.56 134.995 38.88 136.215 37.9 137.695C36.72 139.475 35.14 137.745 33.91 137.485C28.79 136.375 23.75 134.895 18.68 133.555Z" fill="#121211"/>
<path d="M234.91 28.3346C238.74 26.4346 242.41 24.6946 244.11 20.4246C246.68 13.9946 245.3 6.82462 240.43 2.84462C236.37 -0.465381 227.84 -0.505381 222.68 2.76462C218.17 5.62462 215.8 11.8746 217.02 17.6746C218.29 23.7046 221.71 27.1446 227.49 27.9146C230.09 28.2646 231.77 29.3646 233.41 31.5846C237.82 37.5746 244.24 36.7146 246.89 30.0946C242.81 30.4746 238.5 32.3446 234.91 28.3346ZM227.8 25.2246C226.01 24.0846 224.98 22.4246 224.34 20.5646C224.1 20.1246 223.92 19.6146 223.84 19.0246C223.78 18.6446 223.73 18.2546 223.68 17.8646C223.58 17.2746 223.5 16.6946 223.44 16.1046C223.3 15.3146 223.15 14.5346 223.14 13.7346C223.13 12.3746 223.4 11.0446 223.37 9.67462C223.35 8.97462 223.49 8.31462 223.74 7.71462C223.78 7.34462 223.84 6.97462 223.96 6.61462C224.63 4.57462 226.44 2.87462 228.66 2.76462C230.28 2.01462 232.13 1.94462 234 3.03462C236.07 4.24462 237.57 6.58462 238.09 8.90462C238.16 9.08462 238.22 9.27462 238.26 9.47462C238.3 9.64462 238.34 9.81462 238.37 9.98462C238.41 10.1546 238.42 10.3346 238.44 10.5046C238.71 11.1046 238.87 11.7946 238.9 12.5846C238.99 14.9846 239.07 17.2646 238.84 19.6646C238.78 20.2846 238.62 20.8346 238.41 21.3546C238.28 21.9046 238.09 22.4046 237.83 22.8446C237.82 22.8646 237.81 22.8746 237.8 22.8846C237.73 23.0046 237.66 23.1246 237.58 23.2346C237.49 23.3746 237.41 23.5146 237.32 23.6446C236.53 24.7646 235.58 25.4646 234.6 25.8346C232.49 26.8046 229.91 26.5546 227.8 25.2246Z" fill="#13110F"/>
<path d="M60.06 77.7846C53.7 77.5346 45.26 85.8246 44.94 92.6446C44.61 99.6046 51.66 107.395 58.62 107.765C65.62 108.145 73.63 100.685 73.93 93.5246C74.25 86.2446 67.02 78.0546 60.06 77.7846ZM68.77 100.165C68.66 100.365 68.54 100.555 68.41 100.725C68.24 100.965 68.03 101.145 67.81 101.315C67.73 101.395 67.65 101.475 67.57 101.545C67.47 101.795 67.27 101.975 67.01 102.125C66.99 102.215 66.95 102.305 66.88 102.385C66.61 102.695 66.26 102.815 65.89 102.875C65.82 102.945 65.75 103.015 65.64 103.055C64.83 103.355 63.91 103.315 63.06 103.395C62.24 103.475 61.6 103.325 60.89 103.025C60.13 102.815 59.4 102.505 58.71 102.165C57.09 101.355 55.75 100.205 54.48 98.9246C53.14 97.5746 51.92 96.2646 50.84 94.6846C50.05 93.5346 49.25 92.4246 48.98 91.0746C48.47 90.1446 48.51 88.7146 48.76 87.7446C48.95 86.9946 49.34 86.2946 49.79 85.6646C50 85.3646 50.26 85.1146 50.52 84.8846C50.55 84.8546 50.58 84.8146 50.61 84.7846C50.63 84.7646 50.64 84.7646 50.66 84.7546C50.69 84.7246 50.72 84.7046 50.75 84.6746C51.37 83.5646 52.95 82.8446 54.1 82.4546C54.78 82.2246 55.54 82.1346 56.25 82.0746C57.05 82.0146 57.74 82.3446 58.43 82.7146C60.03 83.5646 61.59 84.5146 63.06 85.5846C63.72 86.0646 64.29 86.6346 64.89 87.1646C65.48 87.6846 66.11 88.1546 66.64 88.7446C66.75 88.8646 66.79 89.0246 66.79 89.1746C68.27 90.6346 69.4 92.4446 69.93 94.4646C70.18 95.4246 70.34 96.5146 70.13 97.5046C69.93 98.4246 69.33 99.3946 68.77 100.165Z" fill="#131110"/>
<path d="M90.33 83.2747C90.97 78.3247 79.34 62.3547 75.25 62.3947C79.18 57.6647 80 57.4147 85.36 59.0147C90.54 60.5547 95.74 62.0447 102.21 63.9247C97.71 59.1547 96.82 52.8047 90.16 51.0347C92.18 49.5947 94.15 48.2047 96.11 46.8047C94.89 49.6547 96.55 51.5247 97.96 53.4847C101.15 57.9247 104.37 62.3347 107.44 66.8547C108.1 67.8347 109.6 69.0447 108.49 70.3047C107.6 71.3147 105.99 70.9147 104.7 70.5347C97.94 68.5547 91.18 66.5547 84.02 65.0847C87.88 69.8947 89.25 76.5647 95.63 79.3447C94.42 81.0347 92.21 81.8347 90.33 83.2747Z" fill="#161311"/>
<path d="M370.82 22.6447C373.75 24.0347 376.68 25.4147 380.16 27.0647C378.34 28.0247 376.61 27.8747 375.89 29.6347C373.98 34.3447 371.9 38.9947 369.78 43.6147C368.17 47.1347 369.66 49.2847 372.67 50.8847C375.88 52.5947 379.16 52.3547 380.99 49.2747C383.83 44.4947 385.88 39.2547 388.43 34.2947C389.27 32.6647 387.08 32.3047 387.43 30.8347C390.06 31.4247 392.4 32.4147 395.01 34.5247C391.76 34.4947 390.55 36.0547 389.57 38.4947C387.98 42.4447 386.08 46.3547 383.78 49.9347C380.77 54.6147 375.58 55.4047 370.22 52.5247C364.48 49.4347 362.66 45.4847 364.81 39.9447C366.3 36.1247 368.13 32.4247 369.98 28.7547C370.98 26.7847 371.85 24.9647 370.82 22.6447Z" fill="#141210"/>
<path d="M281.67 1.86463C284.56 1.17463 286.68 1.40463 289.87 2.06463C285.93 3.20463 285.93 5.77463 285.9 8.36463C285.85 12.8246 286.22 17.3246 284.76 21.6646C283.05 26.7646 279.42 28.5446 272.28 27.8146C267.45 27.3246 263.99 23.9646 263.84 19.0746C263.7 14.6046 263.49 10.1046 264.48 5.67463C264.98 3.46463 265.24 1.33463 261.98 0.38463C265.72 0.12463 269.05 -0.565371 272.91 0.944629C271.8 1.94463 270.37 2.43463 270.31 3.94463C270.1 9.53463 269.1 15.0846 269.77 20.7246C270.16 24.0246 272.27 25.3246 275.06 25.6846C278.12 26.0846 280.52 24.9246 281.83 21.8546C283.53 17.8646 282.76 13.6746 282.95 9.57463C283.08 7.01463 285.51 4.14463 281.67 1.86463Z" fill="#13120C"/>
<path d="M335.12 10.5447C341.19 12.4147 346.95 14.1847 352.96 16.0247C351.9 18.0947 351.01 19.8247 350.12 21.5647C349.74 16.6847 346.45 15.5347 342.62 15.1647C341.86 15.0947 339.06 23.7247 339.72 24.2147C341.87 25.8047 344.08 25.8647 345.95 23.5647C347.1 25.1947 345.78 26.2947 345.71 27.5247C345.65 28.5747 344.92 29.5947 344.36 30.9547C343.55 28.0847 342.2 26.2847 339.28 26.8647C337.98 27.1247 335.32 35.4347 336.33 36.1447C340.17 38.8347 343.85 38.6347 347.25 33.9447C345.7 41.7147 345.69 41.7347 339.47 39.7747C335.4 38.4947 331.36 37.1347 327.05 35.7347C331.17 33.4547 337.14 14.9847 335.12 10.5447Z" fill="#151312"/>
<path d="M154.81 46.2146C157.69 41.4746 150.76 22.9146 145.88 21.2646C150.5 19.6246 154.82 18.1546 159.09 16.5546C165.13 14.2846 165.15 14.2746 164.67 22.1946C162.63 17.1646 159.72 18.2446 156.47 19.5846C154.79 20.2746 154.93 21.0046 155.53 22.1246C156.77 24.4446 156.26 28.1446 159.33 28.9046C161.56 29.4546 163.18 27.5546 162.99 24.5146C165.29 26.6046 165.74 28.9046 166.17 32.5146C163.9 29.2646 160.98 29.5646 159.94 31.1046C158.26 33.5746 161 36.1146 161.64 38.6846C161.99 40.1046 162.53 40.9946 164.39 40.5946C168.32 39.7446 170.74 37.8646 169.93 33.1646C174.07 37.1246 173.76 39.5446 169.24 41.1546C164.77 42.7446 160.29 44.2946 154.81 46.2146Z" fill="#151310"/>
<path d="M187.51 27.7747C189.64 29.7847 189.99 34.4447 194.39 32.3747C196.27 31.4947 197.93 30.4147 197.86 28.0447C197.79 25.7747 196.47 24.4047 194.33 23.8247C192.42 23.3147 190.48 22.9147 188.59 22.3447C185.24 21.3447 183.25 19.1147 182.93 15.5747C182.63 12.1547 184.57 9.98468 187.21 8.27468C189.81 6.59468 192.97 5.99468 195.78 6.21468C200.45 6.57468 196.35 10.4547 198.7 12.4247C196.63 12.3547 196.09 11.7347 195.83 10.9147C195.13 8.75468 193.62 8.19468 191.57 8.69468C189.62 9.16468 188.2 10.3947 188 12.3647C187.77 14.6247 189.14 16.0847 191.28 16.7147C193.16 17.2747 195.11 17.6447 196.96 18.2647C200.34 19.3947 202.75 21.4047 202.91 25.3147C203.07 29.1147 201.11 31.6047 197.93 33.2047C196.48 33.9347 194.84 34.4247 193.23 34.6747C187.04 35.6647 186.35 34.8447 187.51 27.7747Z" fill="#161312"/>
<path d="M132.64 36.0346C131.22 34.1146 130.75 33.4346 130.23 32.7946C128.52 30.6646 126.96 32.2846 125.42 33.0446C122.85 34.3146 125.18 35.5146 125.66 36.4946C128.05 41.3946 130.72 46.1546 133.07 51.0746C134.09 53.2246 135.28 54.1546 137.81 53.0146C135.12 56.4146 131.04 56.9546 127.6 59.1946C129.65 56.3746 128.16 54.1646 126.97 51.8846C124.92 47.9346 122.98 43.9146 120.84 40.0046C120.1 38.6546 120.07 36.0846 117.26 37.1246C114.7 38.0746 113.36 39.5346 114.78 42.3846C114.97 42.7546 114.75 43.3346 114.72 43.8646C109.75 40.4846 109.73 38.5046 114.53 36.0746C118.36 34.1346 122.18 32.1746 126.02 30.2646C131.88 27.3346 132.03 27.4446 132.64 36.0346Z" fill="#17150F"/>
<path d="M428.34 54.9247C432.41 57.9447 435.84 60.5247 439.31 63.0547C444.51 66.8547 444.52 66.8347 438.71 70.6047C437.9 68.6847 441.22 66.3147 438.05 64.6747C436.61 63.9347 435.08 61.5647 433.83 62.6547C431.52 64.6647 429.35 67.3447 428.45 70.1647C428.15 71.1047 431.73 74.0947 435.22 70.3547C434.24 74.2747 432.4 75.9847 429.89 78.3747C430.27 74.9847 429.65 72.5547 426.82 72.1647C424.73 71.8747 420.97 79.7547 421.82 82.8647C418.4 81.0447 415.7 78.8247 412.98 76.2647C418.15 75.3547 429.57 59.7747 428.34 54.9247Z" fill="#151410"/>
<path d="M499.66 138.795C500.46 135.965 504.12 133.995 500.93 131.105C498.12 128.555 495.42 126.975 491.17 128.635C480.12 132.955 478.28 140.685 486.53 149.985C481.78 149.165 477.73 145.045 476.82 140.105C475.59 133.455 478.2 128.195 484.4 124.825C489.18 122.235 495.64 122.995 499.59 126.775C501.02 128.145 502.29 129.715 503.39 131.365C507.03 136.825 506.89 137.075 499.66 138.795Z" fill="#131310"/>
<path d="M470.29 99.7446C467.13 97.9446 464.79 98.9246 463.49 102.025C462.68 103.955 462.26 105.095 459.56 104.875C454.59 104.475 451.93 108.805 454.76 113.105C457.59 117.405 461.5 120.985 465.7 125.725C463.89 119.135 464.95 117.845 472.71 115.835C471.54 114.475 470.46 113.225 468.73 111.215C469.81 115.015 468.01 115.895 465.63 116.815C465.78 113.975 465.9 111.525 466.05 108.715C468.91 109.735 472.08 110.675 473.57 107.545C475.14 104.225 473.43 101.525 470.29 99.7446ZM462.4 110.355C462.32 110.685 462.24 111.015 462.18 111.345C462.17 111.375 462.17 111.415 462.16 111.445C462.15 111.565 462.14 111.685 462.13 111.805C462.03 113.035 462 114.375 461.28 115.435C460.76 116.205 459.87 116.275 459.17 115.705C458.63 115.265 458.18 114.685 457.82 114.095C457.46 113.505 457.15 112.785 457.21 112.075C457.26 111.455 457.53 110.945 457.93 110.505C457.94 110.185 458.07 109.865 458.31 109.635C458.34 109.605 458.37 109.595 458.4 109.565C458.73 108.705 459.53 108.005 460.19 107.355C460.49 106.845 461.12 106.635 461.68 106.765C462.29 106.905 462.61 107.485 462.67 108.055C462.74 108.835 462.57 109.615 462.4 110.355ZM471.78 104.345C471.77 104.385 471.76 104.425 471.75 104.465C471.68 104.685 471.59 104.905 471.47 105.105C471.35 105.305 471.2 105.495 471.05 105.675C470.98 105.755 470.91 105.835 470.83 105.905C470.65 106.065 470.46 106.215 470.26 106.345C470.17 106.405 470.08 106.455 469.99 106.495C469.78 106.595 469.56 106.695 469.33 106.755C469.22 106.785 469.1 106.795 468.98 106.805C468.87 106.815 468.75 106.845 468.64 106.845C468.46 106.845 468.27 106.805 468.09 106.775C468.05 106.765 468.01 106.765 467.98 106.745C467.76 106.695 467.58 106.595 467.42 106.445C467.3 106.375 467.2 106.275 467.12 106.145C466.97 105.985 466.87 105.795 466.82 105.585C466.8 105.435 466.78 105.295 466.76 105.145C466.77 104.945 466.8 104.745 466.85 104.555C466.81 104.375 466.8 104.195 466.84 104.015C466.85 103.795 466.92 103.585 467.04 103.395C467.08 103.325 467.12 103.265 467.17 103.195C467.31 103.015 467.44 102.835 467.59 102.665C467.82 102.405 468.09 102.205 468.36 101.995C468.43 101.945 468.5 101.895 468.57 101.855C468.61 101.835 468.64 101.815 468.68 101.795C468.84 101.725 469 101.645 469.16 101.595C469.19 101.585 469.23 101.575 469.26 101.565C469.41 101.535 469.58 101.515 469.73 101.505C469.75 101.505 469.76 101.505 469.78 101.505C469.87 101.505 469.97 101.525 470.04 101.535C470.11 101.545 470.21 101.555 470.3 101.575C470.46 101.615 470.62 101.685 470.76 101.765C470.77 101.775 470.79 101.785 470.8 101.795C470.91 101.865 471.07 101.985 471.16 102.075C471.17 102.085 471.18 102.095 471.19 102.105C471.29 102.215 471.39 102.345 471.47 102.465C471.59 102.645 471.67 102.855 471.73 103.075C471.75 103.135 471.75 103.185 471.76 103.245C471.79 103.425 471.83 103.605 471.82 103.785C471.84 103.975 471.81 104.165 471.78 104.345Z" fill="#1A1713"/>
<path d="M317.3 6.1746C313.16 8.8846 309.57 27.2246 312.17 31.5646C308.58 32.6646 305.47 30.5346 301.88 30.3846C306.23 26.8646 309.36 7.7746 305.99 4.0946C309.87 4.8046 313.35 5.4446 317.3 6.1746Z" fill="#15130C"/>
<path d="M439.93 92.7346C441.97 92.5146 443.3 93.5646 443.45 95.3946C443.6 97.2946 442.25 98.4546 440.34 98.5346C438.29 98.6246 437.15 97.0946 437.18 95.4346C437.2 94.2546 437.9 92.4646 439.93 92.7346Z" fill="#35331E"/>
<path d="M498.9 166.305C498.66 168.135 497.73 169.155 495.73 169.165C493.84 169.175 493.05 167.995 492.95 166.455C492.84 164.815 493.75 163.705 495.54 163.575C497.49 163.425 498.6 164.315 498.9 166.305Z" fill="#1F1814"/>
<path d="M239.71 541.905C214.41 540.445 189.93 535.095 166.48 525.595C104.51 500.485 59.5901 457.395 31.7201 396.635C22.3701 376.265 16.0501 354.855 13.1401 332.705C6.39007 281.335 13.3201 231.985 37.3801 185.625C67.9401 126.735 114.77 86.4046 177.21 64.3046C195.3 57.9046 214.06 54.1746 233.3 52.5046C247.28 51.2946 261.24 50.8046 275.12 51.9046C311.15 54.7446 345.3 64.4646 376.71 82.6246C436.2 117.025 475.57 167.125 494.07 233.525C501.74 261.065 503.83 289.155 501.48 317.325C496.99 371.205 476.79 418.775 440.77 459.425C408.28 496.095 368.45 520.985 321.25 534.005C306.57 538.055 291.64 540.965 276.35 541.575C274.21 541.665 272.09 542.005 269.96 542.235C269.99 540.575 271.28 540.145 272.48 539.615C287.44 537.275 302.5 535.655 317.22 531.835C356.55 521.625 390.98 502.655 420.93 475.205C441.28 456.545 457.96 435.085 470.91 410.815C481.69 390.605 489.72 369.315 494 346.665C497.22 329.625 499.81 312.535 499.45 295.155C498.96 271.235 495.38 247.785 488.32 224.865C475.5 183.275 452.78 147.805 420.93 118.495C384.17 84.6446 340.83 63.9746 291.12 56.9446C277.57 55.0246 263.99 53.6046 250.34 54.2046C218.96 55.5846 188.61 61.8046 159.67 74.3646C135.61 84.8046 114.09 99.0646 94.4901 116.445C67.7401 140.175 47.5201 168.585 33.3401 201.235C23.6701 223.505 17.4301 246.805 15.2201 271.065C12.0401 305.945 14.7201 340.285 25.9701 373.605C35.9801 403.255 51.0401 430.135 71.5901 453.895C87.2701 472.025 104.85 487.985 125.04 500.925C149.37 516.525 175.59 527.735 203.98 533.675C213.61 535.685 223.29 537.265 233.06 538.385C235.49 538.665 238.08 538.735 240.12 540.475C240.29 541.045 240.15 541.515 239.71 541.905Z" fill="#D3D47E"/>
<path d="M239.71 541.905C239.82 541.455 239.93 541.005 240.04 540.555C244.74 538.145 267.25 538.175 271.81 540.605C271.19 541.145 270.58 541.695 269.96 542.235C259.87 542.475 249.78 543.125 239.71 541.905Z" fill="#DFD6A7"/>
<path d="M238.97 16.6646C238.98 16.4846 238.99 16.3046 239 16.1346C239.02 15.1946 239 14.2746 238.91 13.3646C238.95 14.4746 238.98 15.5646 238.97 16.6646Z" fill="#F5E729"/>
<path d="M238.4 21.3646C238.27 21.9146 238.08 22.4146 237.82 22.8546C237.81 22.8746 237.8 22.8846 237.79 22.8946C237.72 23.0146 237.65 23.1346 237.57 23.2446C237.48 23.3846 237.4 23.5246 237.31 23.6546C236.75 24.4446 236.11 25.0246 235.44 25.4246C237.03 24.5646 238.04 23.0746 238.54 21.0646C238.56 20.9946 238.56 20.9146 238.58 20.8446C238.52 21.0246 238.47 21.2046 238.4 21.3646Z" fill="#F5E729"/>
<path d="M58.44 82.7246C59.76 83.4246 61.03 84.2046 62.26 85.0546C61.37 84.4246 60.44 83.8246 59.47 83.2446C59.11 83.0346 58.76 82.8546 58.41 82.7146C58.42 82.7146 58.43 82.7246 58.44 82.7246Z" fill="#F5E728"/>
<path d="M54.4901 98.9346C53.5701 98.0146 52.7201 97.1046 51.9301 96.1246C52.9701 97.4746 54.1101 98.7246 55.4101 99.8046C55.1001 99.5246 54.7901 99.2346 54.4901 98.9346Z" fill="#F5E728"/>
<path d="M271.81 540.595C261.22 540.575 250.63 540.565 240.04 540.545C218.09 538.575 196.45 534.735 175.71 527.305C147.45 517.185 121.62 502.615 98.75 482.935C61.35 450.755 35.52 411.245 21.68 363.805C13.34 335.225 10.39 305.915 13.31 276.635C21.83 191.235 64.07 126.835 138.13 83.5746C160.81 70.3346 185.53 61.8646 211.36 57.1546C239.97 51.9446 268.6 51.6646 297.44 56.5746C337.76 63.4446 374.05 79.1746 406.11 104.305C447.62 136.865 476.23 178.365 490.95 229.295C498.43 255.195 501.76 281.555 500.37 308.365C497.96 354.935 483.78 397.705 456.94 436.055C432.18 471.435 400.27 498.525 361.41 517.245C340.65 527.245 318.82 534.165 295.94 537.475C287.91 538.635 279.85 539.565 271.81 540.595Z" fill="#060608"/>
<path d="M86.93 413.525C73.82 395.585 64.68 375.725 58.62 354.435C51.2 328.355 48.61 301.925 51.66 274.825C57.41 223.825 79.04 180.815 116.41 145.955C148.69 115.845 187 98.1046 230.98 92.6646C245.73 90.8446 260.48 90.4546 275.2 91.8546C303.78 94.5646 330.95 102.165 355.89 116.785C354.68 120.225 351.67 118.675 349.39 119.125C342.41 119.235 335.53 117.815 328.52 118.005C315.47 118.345 303.14 120.935 292.09 128.175C287.78 131.005 282.54 130.815 277.97 132.865C271.25 135.895 265.37 139.575 262.85 147.015C261.99 149.555 259.71 150.845 257.62 152.175C252.73 155.275 249.84 159.315 250.78 165.405C250.93 166.405 250.85 167.475 250.34 168.325C246.46 174.905 243.73 182.205 239.32 188.355C232.84 197.405 230.52 207.205 231.48 217.975C232.25 226.685 231.23 228.685 223.03 232.665C220.34 232.945 218.61 234.485 217.07 236.635C214.95 239.615 213.24 242.845 211.07 245.775C210.18 246.975 209.36 248.275 208.03 249.015C206.2 250.035 204.37 251.955 202.16 250.745C200.16 249.645 200.79 247.235 200.58 245.305C199.18 232.165 200.71 218.945 199.57 205.805C199.4 203.805 199.33 201.855 198.25 200.075C197.65 199.095 196.96 197.925 197.9 196.875C199.04 195.605 200.38 196.385 201.53 197.005C203.57 198.105 205.87 198.695 207.75 200.085C209.33 201.035 210.31 202.515 211.39 203.975C212.89 206.005 212.87 203.715 213.42 203.095C214.57 199.355 214.6 195.425 215.67 191.635C216.44 188.925 212.21 185.625 208.17 185.095C206.69 184.905 205.2 184.975 203.71 184.945C201.4 184.895 199.78 184.095 198.53 181.885C195.47 176.485 190.84 176.125 186.59 180.675C185.27 182.095 184.7 184.255 182.49 184.815C178.01 185.665 173.51 185.295 169.03 185.185C165.42 185.095 163.51 183.325 163.56 179.575C163.66 172.915 163.31 166.255 163.42 159.595C163.46 157.015 163.8 154.575 166.33 153.135C176.88 151.395 187.48 151.845 198.04 152.895C201.6 153.245 204.63 155.215 205.59 159.165C205.67 159.055 205.58 158.795 205.56 158.405C205.05 150.255 205.05 150.245 197.04 150.245C181.59 150.235 166.14 150.235 150.68 150.175C149.37 150.165 148.01 149.915 146.86 150.785C146.41 151.695 146.8 152.455 147.44 152.995C155.95 160.185 154.04 170.035 154.12 179.345C154.14 181.525 152.81 183.125 150.71 183.775C149.23 184.235 148.04 185.065 146.88 186.005C145.35 187.035 143.61 187.485 141.84 187.915C140.18 188.315 137.65 188.195 138.01 190.755C138.38 193.375 140.8 192.295 142.48 192.385C143.81 192.365 145.14 192.335 146.44 192.645C147.43 192.885 148.1 193.745 148.92 194.135C151.39 195.315 145.09 198.385 150.36 199.275C153.44 199.805 153.24 203.725 153.28 206.535C153.32 209.365 154.19 212.105 154.17 214.925C154.13 220.165 151.67 221.705 147.09 219.445C140.92 208.945 136.11 197.815 131.62 186.525C130.98 184.905 130.9 181.995 128.96 182.255C126.41 182.595 127.54 185.485 127.4 187.295C126.05 204.705 126.29 222.195 124.5 239.575C124.28 241.705 124.2 243.855 124.47 246.335C126.58 244.985 126.41 243.065 126.41 241.495C126.45 229.665 127.97 217.935 128.57 206.145C128.6 205.645 128.56 205.145 128.63 204.645C128.85 203.215 128.57 201.245 130.32 200.875C132.05 200.515 132.75 202.375 133.44 203.625C141.21 217.615 147.88 232.135 154.38 246.745C154.86 247.825 154.99 248.985 154.78 250.175C154.64 250.985 154.1 251.705 154.04 252.495C153.51 260.815 153.42 260.915 144.84 260.935C133.05 259.185 123.09 253.615 114.6 245.565C102.37 233.955 103.06 216.255 115.78 205.085C117.9 203.225 120.33 201.665 121.83 199.195C122.53 198.035 122.96 196.565 122.21 195.385C121.18 193.765 119.78 195.025 118.69 195.485C111.07 198.685 104.27 203.065 98.8 209.355C88.58 221.115 90.42 238.165 103.38 248.135C117.49 258.995 133.92 263.965 151.37 266.305C165.19 268.165 178.93 266.805 192.71 266.115C197.57 265.875 197.81 266.125 197.46 270.995C197.07 276.515 198.27 278.125 203.67 279.255C205.79 279.695 207.93 280.005 210.07 280.325C216.1 281.245 218.9 284.255 219.2 290.265C219.39 294.235 218.95 298.285 221.85 301.645C222.5 302.395 222.68 303.535 221.98 304.435C221.14 305.505 219.94 305.475 218.8 304.995C216.79 304.135 215.14 302.695 213.43 301.385C200.59 291.515 185.87 287.015 169.9 285.975C165.86 285.715 161.96 286.665 157.99 286.935C155.7 287.095 155.01 288.735 154.04 290.255C145.43 303.735 139.86 318.425 136.47 333.995C135.05 340.525 135.06 340.525 128.71 341.035C123.05 341.485 119.97 344.545 119.41 350.185C119 354.275 120.03 358.145 121.32 361.915C122.74 366.055 121.41 368.695 117.44 370.185C111.29 372.495 107.95 376.635 108.59 383.485C108.82 385.985 106.96 386.975 105.04 387.705C99.28 389.905 96.15 393.875 96.23 400.185C96.26 402.265 95.65 404.275 93.95 405.515C91.54 407.265 90.41 409.855 88.93 412.245C88.42 412.965 87.78 413.425 86.93 413.525Z" fill="#F7E928"/>
<path d="M259.04 502.405C227.68 503.595 198.01 496.695 169.64 483.655C167.01 482.445 164.07 481.735 161.89 479.635C160.73 478.325 160.56 476.705 160.47 475.075C160.04 467.015 160.56 459.205 165.09 452.055C166.82 449.335 168.52 447.225 171.95 447.125C174.86 447.045 176.31 445.775 176.65 442.605C177.43 435.485 179.19 428.525 181.39 421.735C185.43 409.255 194.82 400.965 205.17 394.025C212.73 388.955 218 382.605 221.05 374.255C223.56 367.365 220.77 363.195 213.36 363.225C209.51 363.235 208.93 361.715 210.1 358.735C215.24 345.695 218.48 332.155 220.94 318.395C221.22 316.835 221.56 314.685 223.6 314.725C225.13 314.755 225.84 316.565 226.36 317.975C227.66 321.525 227.53 325.215 226.87 328.815C226.03 333.455 226.11 338.095 226.39 342.725C226.73 348.455 230.32 353.985 235.56 354.285C244.53 354.795 252.39 358.785 260.88 360.645C264.14 361.655 267.49 361.125 270.8 361.255C280.71 361.635 284.43 365.195 284.16 375.015C283.89 384.725 286.31 393.755 289.93 402.595C292.82 409.645 291.24 412.855 283.98 414.695C265.6 419.335 247.28 424.215 228.93 428.945C220.16 431.205 216.95 435.185 216.2 444.235C215.71 450.095 211.38 453.785 206.75 455.105C200.99 456.745 197.42 460.075 196.12 465.055C194.2 472.415 189.02 477.305 184.84 483.005C184.24 483.825 182.09 484.505 184.15 486.025C191.5 488.045 198.37 491.405 205.85 493.075C208.95 493.765 212.07 493.835 215.13 494.535C224.14 498.475 233.88 497.875 243.33 499.085C248.38 499.735 253.52 499.615 258.5 500.935C259.03 501.315 259.21 501.795 259.04 502.405Z" fill="#F7E928"/>
<path d="M457.72 254.635C461.86 270.115 463.29 285.955 462.67 301.845C461.55 330.655 455.89 358.515 442.86 384.535C442.07 384.585 441.31 384.455 440.6 384.095C438.27 382.155 435.83 380.625 432.57 380.775C430.44 380.875 428.83 379.635 427.53 377.975C421.17 369.855 415.52 361.235 409.34 352.985C407.89 351.055 407.34 348.715 407.78 346.345C408.89 340.355 409.27 334.165 414.15 329.455C416.73 326.975 417.56 323.435 417.53 319.795C417.51 317.465 417.47 315.135 417.57 312.815C417.93 303.945 422.23 298.125 430.53 295.225C445.37 290.045 450.25 283.705 450.43 268.145C450.49 263.265 454.65 260.395 455.08 255.905C455.71 254.975 456.49 254.335 457.72 254.635Z" fill="#F7E827"/>
<path d="M34.0001 232.995C32.8001 245.135 32.7601 256.115 35.8301 266.905C36.2801 255.695 37.0301 244.485 35.3601 233.385C43.8101 239.205 45.2101 260.385 38.6001 278.295C27.4201 269.915 26.3801 246.685 34.0001 232.995Z" fill="#EFE334"/>
<path d="M242.47 74.5346C253.38 73.6646 263.84 70.9946 275.21 67.5046C268.63 75.7446 260.34 78.2646 251.55 79.7746C246.12 80.7046 240.64 80.7846 235.16 80.5046C233.8 80.4346 231.66 81.3046 231.26 79.5546C231.03 78.5446 232.45 76.9346 233.45 75.8946C240.31 68.7546 248.9 65.3346 258.65 64.7946C263.57 64.5246 268.51 64.7446 273.54 65.2746C263.08 68.2046 252.07 69.0546 242.47 74.5346Z" fill="#EAE136"/>
<path d="M482.97 347.065C482.92 334.745 482.94 323.365 478.7 312.505C478.61 323.505 479.49 334.425 480.49 345.375C469.79 332.005 472.27 316.975 474.86 301.745C486.5 308.055 489.85 331.085 482.97 347.065Z" fill="#F4E534"/>
<path d="M454.35 418.095C456.92 407.085 461.42 397.235 460.83 384.965C456.42 396.745 454.05 407.585 451.33 419.775C445.6 401.855 452.81 388.265 460.72 374.525C469.44 385.115 464.92 406.165 454.35 418.095Z" fill="#EEE232"/>
<path d="M158.04 87.0547C153.38 91.0547 149.09 94.5447 145.04 98.2847C140.92 102.085 136.75 105.905 134.15 111.105C143.23 104.485 151.63 97.1047 159.44 88.5547C159.25 99.8047 145.04 113.915 127.77 120.465C126.49 107.275 141.18 91.9547 158.04 87.0547Z" fill="#ECE134"/>
<path d="M414.53 130.915C397.41 132.995 385.6 123.385 373.95 112.975C384.77 106.035 407.33 115.725 415.9 128.625C405.77 123.075 396.29 117.165 385.17 115.065C394.38 121.445 404.5 126.075 414.53 130.915Z" fill="#ECE232"/>
<path d="M43.4401 389.065C50.4001 397.205 56.5301 406.215 65.7201 412.395C59.8101 403.155 52.7001 394.915 44.8901 387.175C55.7101 386.845 69.9801 403.265 76.0901 420.705C57.6701 417.645 49.1401 404.895 43.4401 389.065Z" fill="#EDE235"/>
<path d="M31.09 351.165C36.9 361.785 41.5 371.685 49.65 379.275C44.95 369.075 39.3 359.425 32.36 349.465C40.08 352.005 44.44 357.035 48.12 362.755C52.46 369.495 55.17 376.945 57 384.715C57.2 385.545 58.12 386.615 57.19 387.375C56.34 388.065 55.39 387.395 54.44 387.015C43.86 382.705 37.72 374.425 33.91 364.105C32.5 360.255 30.79 356.445 31.09 351.165Z" fill="#ECE132"/>
<path d="M442.61 158.395C433.45 151.245 425.27 143.765 414.65 139.975C422.83 147.535 431.72 154.155 441.6 160.065C429.59 162.675 411.94 148.325 403.91 135.465C415.02 131.135 434.56 142.295 442.61 158.395Z" fill="#EBE134"/>
<path d="M476.46 229.405C465.84 228.455 453.06 211.445 449.63 194.145C462.18 194.155 476.13 211.585 477.92 227.945C471.6 218.385 466.7 208.755 458.13 201.965C463.29 211.645 469.25 220.805 476.46 229.405Z" fill="#ECE137"/>
<path d="M478.22 274.545C479.96 285.575 482.4 296.445 486.41 306.955C482.82 305.625 480.56 303.235 478.05 298.175C473.2 288.375 472.38 277.895 472.65 267.195C472.73 263.985 473.92 264.375 475.81 265.825C483.5 271.725 487.11 279.945 488.74 289.145C489.78 295.035 490.08 301.005 488.45 307.755C486.13 295.785 483.99 284.635 478.22 274.545Z" fill="#EBE12E"/>
<path d="M70.03 163.945C74.69 180.765 66.31 193.655 57.6 206.965C50.99 193.585 55.05 174.825 67.29 163.035C63.55 174.065 58.89 183.905 58.55 194.935C63.51 185.055 66.62 174.485 70.03 163.945Z" fill="#EFE334"/>
<path d="M484.52 268.305C469.28 259.135 466.48 243.695 463.71 227.805C477.37 232.245 487.63 249.595 486.48 266.485C481.75 256.115 478.67 245.615 471.23 237.375C474.62 248.125 479.43 258.265 484.52 268.305Z" fill="#ECE237"/>
<path d="M204.33 80.4046C215.02 77.4946 225.23 73.2446 235.33 67.8946C231.07 79.5846 209.88 87.4046 194.34 87.3046C198.58 74.0346 216.35 65.5946 234.9 65.9746C223.88 70.3046 213.19 73.3546 204.33 80.4046Z" fill="#EBE12E"/>
<path d="M104.36 134.465C112.24 126.445 119.21 117.695 125.37 108.075C128.46 119.055 112.54 137.895 99.3801 144.815C96.1401 132.175 108.55 113.685 123.72 107.045C116.44 115.845 108.58 123.855 104.36 134.465Z" fill="#ECE234"/>
<path d="M429.29 162.435C441.92 161.465 457.69 174.555 463.14 191.365C458.84 186.725 455.33 182.815 451.68 179.035C447.94 175.155 444.08 171.395 439 169.125C445.83 177.755 453.25 185.785 461.74 193.035C451.19 194.865 434.21 176.745 429.29 162.435Z" fill="#EEE334"/>
<path d="M423.37 438.895C427.2 453.905 413.87 471.645 401.83 477.705C405.24 472.945 408.46 468.675 411.44 464.235C414.43 459.775 417.76 455.435 418.6 449.845C411.43 458.165 405.3 467.195 399.64 477.175C397.73 465.025 409.53 446.415 423.37 438.895Z" fill="#EDE235"/>
<path d="M75.2501 174.125C71.6001 156.605 79.8401 144.485 91.5501 133.775C87.5101 143.335 80.8001 151.745 79.1401 162.345C85.7901 153.175 90.8201 143.125 95.4901 132.365C97.3401 146.605 89.0601 163.755 75.2501 174.125Z" fill="#EEE234"/>
<path d="M471.62 384.085C473.19 372.145 474.98 361.445 473.08 350.585C470.55 361.265 469.48 372.105 469.84 383.285C461.26 375.915 463.95 353.945 471.27 338.935C480.64 347.785 481.16 368.185 471.62 384.085Z" fill="#F3E433"/>
<path d="M64.16 421.735C81.55 423.565 90.7801 436.055 99.9901 449.295C84.8501 450.285 70.5701 440.775 62.3101 423.685C67.3501 428.205 71.0701 432.095 75.3401 435.215C79.5001 438.255 83.2101 442.195 89.8901 443.975C81.1001 435.455 72.79 428.535 64.16 421.735Z" fill="#ECE235"/>
<path d="M86.5801 454.965C96.2201 460.855 105.52 467.335 116.64 470.255C107.71 463.425 98.0101 457.935 87.6401 453.035C91.7801 450.765 95.8201 452.245 99.4801 453.345C110.27 456.565 118.6 463.655 126.25 471.615C129.09 474.575 126.1 474.345 124.5 474.545C113.97 475.845 104.99 472.075 96.8401 465.815C92.9001 462.775 89.4201 459.215 86.5801 454.965Z" fill="#EEE237"/>
<path d="M267.98 78.4347C278.6 67.8947 293.47 65.5547 312.67 71.7747C300.64 72.1147 289.9 72.0247 279.6 75.4847C290.86 76.0447 302.08 75.8847 313.36 73.9747C306.58 83.7447 280.89 83.6647 267.98 78.4347Z" fill="#F1E430"/>
<path d="M49.03 196.335C56.78 203.705 54.3 225.375 45.1 241.255C35.72 232.785 37.76 209.825 47.14 197.585C45.68 208.895 42.11 219.505 44.22 230.515C46.59 219.335 49.58 208.265 49.03 196.335Z" fill="#EEE233"/>
<path d="M431.04 449.845C435.48 439.835 441.15 430.495 442.58 419.505C436.86 429.065 432.08 439.055 428.18 450.575C425.93 444.385 426.92 439.305 428.45 434.275C431.2 425.255 436.47 417.695 442.44 410.575C443.1 409.795 443.61 408.275 445.06 408.805C446.13 409.195 445.91 410.485 446.11 411.405C448.37 421.535 445.76 430.735 440.41 439.245C437.9 443.255 435.11 447.175 431.04 449.845Z" fill="#EEE235"/>
<path d="M193.44 73.9446C184.71 79.7946 175.26 84.3146 168.27 92.3746C178.36 87.8746 187.47 81.7846 196.27 75.1646C195.71 79.2746 192.92 83.7846 188.67 87.4146C181.11 93.8846 172.15 97.6246 162.8 100.585C161.91 100.865 160.52 101.415 160.07 100.455C159.65 99.5746 159.83 98.1446 160.25 97.1646C162.58 91.7546 166.03 87.1646 170.68 83.4946C177.4 78.1846 185.02 75.0046 193.44 73.9446Z" fill="#EBE235"/>
<path d="M38.6801 342.925C35.7301 331.975 32.0501 321.445 26.9701 311.425C37.6401 313.235 46.1801 339.275 44.6901 352.165C32.3601 347.855 23.6901 330.685 25.1701 312.485C29.1401 323.475 31.9301 334.155 38.6801 342.925Z" fill="#EDE234"/>
<path d="M352.4 96.0147C362.65 100.565 373.38 103.515 384.29 105.975C375.37 112.175 353.33 105.615 340.95 95.1447C351.86 87.7447 372.25 92.0447 385.12 103.995C373.97 100.455 363.75 95.8047 352.4 96.0147Z" fill="#EFE235"/>
<path d="M305.44 83.9647C313.2 74.5347 338.22 75.9047 349.89 84.8747C338.69 83.2147 327.98 80.7847 316.92 82.4947C327.7 85.3747 338.72 86.6447 349.89 86.9247C342.61 94.9147 320.8 92.1047 305.44 83.9647Z" fill="#F1E434"/>
<path d="M27.77 283.615C28.43 291.775 31.37 301.595 34.71 306.335C33.76 300.225 33.02 294.405 31.91 288.655C30.84 283.065 29.39 277.545 27.84 270.835C41.06 284.165 39.84 299.755 39.02 315.365C30.51 312.995 22.83 295.855 24.19 281.625C26.52 280.245 26.39 283.285 27.77 283.615Z" fill="#EDE232"/>
<path d="M457.72 254.635C457.15 254.965 456.58 255.295 456 255.625C453.17 249.755 452.6 243.235 450.66 237.095C443.87 215.645 434.06 195.765 420.56 177.735C419.43 176.235 418.22 174.785 417.03 173.325C416.23 172.135 415.18 170.955 414.89 169.625C414.45 167.585 413.33 167.745 411.9 168.075C411.07 167.545 410.65 166.715 410.29 165.845C409.69 163.605 408.33 162.505 405.92 162.855C404.72 163.025 403.02 162.845 403.54 161.345C405.64 155.265 400.42 154.315 397.26 151.895C393.94 147.765 388.55 146.105 385.27 141.925C383.99 140.295 382.04 138.855 383.92 136.455C384.42 136.385 384.91 136.445 385.37 136.635C398.57 146.375 409.7 158.205 419.72 171.075C437.64 194.105 449.94 219.915 456.85 248.265C457.35 250.345 458.28 252.405 457.72 254.635Z" fill="#DBD98A"/>
<path d="M441.49 383.855C441.95 384.085 442.4 384.315 442.86 384.535C426.22 420.265 401.17 448.635 368 469.875C367.34 469.385 367.19 468.705 367.26 467.935C369.35 464.455 372.35 461.975 375.9 460.085C381.49 457.105 385.78 452.475 390.28 448.225C398.81 440.155 407.09 431.835 415.11 423.255C417.87 420.175 420.73 417.175 422.23 413.205C429.16 404.945 431.97 394.205 438.7 385.825C439.47 384.935 440.34 384.185 441.49 383.855Z" fill="#E6E38A"/>
<path d="M161.76 474.215C161.8 476.025 161.85 477.835 161.89 479.645C147.89 473.355 135.59 464.395 123.89 454.685C110.86 443.875 99.4101 431.445 89.4801 417.685C88.5301 416.375 87.7701 414.915 86.9301 413.525C87.2601 413.195 87.58 412.875 87.91 412.545C89.19 412.295 89.8201 414.275 91.2601 413.525C94.5701 417.425 96.7801 422.135 100.32 425.875C100.87 427.765 102.18 429.255 104 429.475C106.89 429.815 107.15 431.665 107.34 433.815C113.87 442.045 122.51 447.985 130.23 454.905C131.9 456.705 133.14 459.215 136.3 458.585C141.89 462.045 145.87 467.695 152.12 470.255C154.57 472.875 157.85 474.405 160.51 476.505C160.14 475.445 160.32 474.515 161.76 474.215Z" fill="#DDDC80"/>
<path d="M367.87 467.545C367.91 468.325 367.96 469.105 368 469.875C348.98 482.495 328.45 491.585 306.12 496.495C305.03 496.445 303.95 496.375 303.47 495.135C303.3 493.095 304.77 492.635 306.29 492.365C313.33 491.105 320.52 489.605 326.56 485.955C337.95 479.075 351.36 476.425 362.1 468.365C363.86 467.055 365.64 465.695 367.87 467.545Z" fill="#EEEBAA"/>
<path d="M385.37 136.645C384.8 136.695 384.24 136.745 383.67 136.805C382.3 137.375 381.03 136.935 379.9 136.245C372.45 131.755 364.71 127.735 357.78 122.415C356.46 120.655 354.46 120.475 352.52 120.055C351.07 119.745 348.98 120.275 348.8 117.805C351.12 117.175 353.76 118.785 355.89 116.795C366.55 122.165 376.46 128.665 385.37 136.645Z" fill="#E4E38A"/>
<path d="M259.04 502.405C258.9 502.145 258.77 501.885 258.64 501.625C259.87 499.975 262.11 500.305 263.57 499.095C265.09 498.335 266.73 498.095 268.39 498.125C277.51 498.305 286.38 496.745 295.18 494.525C296.48 494.195 297.8 494.215 299.07 494.715C300 495.575 299.9 497.345 301.56 497.585C296.22 499.235 290.76 500.265 285.17 500.525C283.56 501.525 281.65 500.565 280 501.295C273.06 502.565 266.07 502.895 259.04 502.405Z" fill="#EEEBAA"/>
<path d="M319.09 505.485C319.35 505.175 319.62 504.875 319.88 504.565C325.02 504.005 325.36 508.385 326.53 511.465C327.38 513.695 327.34 516.355 325.83 518.605L325.97 518.465C323.16 519.985 321.47 518.095 320.41 516.135C318.64 512.845 317.37 509.295 319.09 505.485Z" fill="#111111"/>
<path d="M270.99 521.425C270.99 519.205 271.09 517.915 270.97 516.645C270.77 514.725 269.56 513.695 267.66 513.635C265.04 513.565 266.03 515.645 266 516.855C265.91 519.665 265.52 522.655 266.29 525.255C267.49 529.295 265.57 529.565 262.52 529.345C265.08 525.165 264.28 520.485 263.27 516.415C262.09 511.635 264.91 512.685 267.21 512.525C269.81 512.335 272.28 512.915 273.51 515.445C274.55 517.635 273.52 519.395 270.99 521.425Z" fill="#E6E6E6"/>
<path d="M244.57 512.695C255.41 512.175 255.84 512.285 257.1 517.015C254.84 513.305 252.07 512.845 249.65 513.755C247.15 514.695 248.25 517.505 248.37 519.505C248.56 522.575 247.37 525.755 249.12 528.675C245.87 529.835 245.45 529.035 245.68 525.615C245.96 521.445 247.21 516.865 244.57 512.695Z" fill="#EFEEEF"/>
<path d="M179.97 499.595C182.28 499.975 184.22 501.135 184.56 503.475C184.87 505.605 183.74 507.275 181.32 507.695C179.4 508.025 180.16 509.155 180.58 510.285C181.42 512.545 182.12 514.845 183.17 517.985C177.88 515.305 179.17 509.425 175.94 506.455C175.67 506.025 175.71 505.635 176.08 505.295C179.78 505.385 181.06 503.735 179.71 500.215C179.79 500.005 179.88 499.795 179.97 499.595Z" fill="#E2E1E0"/>
<path d="M188.94 522.695C190.03 518.625 190.97 514.505 192.25 510.495C192.96 508.275 193.45 506.215 192.18 503.585C194.03 504.075 195.51 504.465 197.03 504.865C194.88 508.745 194.1 512.935 192.82 516.955C192.14 519.095 192.13 522.085 188.88 522.565L188.94 522.695Z" fill="#E8E7E8"/>
<path d="M175.98 505.425C175.97 505.765 175.95 506.115 175.94 506.465C174.54 508.945 172.99 511.395 174.77 514.765C172.75 513.665 170.74 513.855 169.46 512.335C172.25 510.295 175.61 501.735 175.19 497.365C176.76 498.435 178.74 498.085 179.97 499.595L179.98 499.465C178.4 501.285 178.6 504.295 175.98 505.425Z" fill="#E9E8E8"/>
<path d="M140.79 498.695C136.39 497.325 136.6 494.455 138.19 491.005C139.66 487.805 142.77 485.325 142.33 481.095C143.95 481.935 145.37 482.675 147.17 483.615C142.46 485.805 141.54 490.485 139.22 494.105C138.25 495.615 140.22 496.975 141.19 498.235C141.06 498.385 140.93 498.545 140.79 498.695Z" fill="#E7E6E8"/>
<path d="M228.02 511.645C230.15 511.645 231.78 511.645 233.22 511.645C230.18 515.395 230.75 520.105 230.77 524.185C230.79 528.205 229.28 527.895 226.49 527.375C228.24 525.255 228.62 522.695 228.75 520.195C228.88 517.485 229.64 514.655 228.02 511.645Z" fill="#E4E4E4"/>
<path d="M160.93 499.525C158.36 499.525 158.24 501.895 157.85 503.345C156.92 506.815 155.31 507.075 152.76 505.135C156.28 502.735 160.07 494.455 159.26 490.795C162.8 491.825 162.72 491.795 161.37 495.175C160.82 496.545 159.84 497.995 160.86 499.605L160.93 499.525Z" fill="#E9E8EA"/>
<path d="M340.88 513.155C340.05 513.675 339.41 514.225 338.67 514.485C338 514.725 337.25 515.085 336.83 513.785C335.42 509.455 335.06 504.655 331.36 501.275C330.81 500.775 331.88 500.345 332.32 500.005C333.49 499.085 334.19 499.925 334.57 500.855C335.74 503.705 336.91 506.565 337.86 509.485C338.39 511.105 339.04 512.465 340.88 513.155Z" fill="#E1E0E0"/>
<path d="M364.63 484.705C366.26 484.495 366.26 485.845 366.7 486.555C368.78 489.885 370.74 493.295 372.8 496.645C373.19 497.275 374.27 497.715 373.07 498.475C372.4 498.895 371.56 499.525 370.91 499.405C369.56 499.155 371.08 498.155 370.66 497.535C368.43 494.205 367.56 489.955 364 487.565C363.47 487.215 362.67 487.215 363.08 486.425C363.44 485.725 364.16 485.215 364.63 484.705Z" fill="#D9D8D4"/>
<path d="M325.82 518.605C326.12 514.925 326 511.335 324.13 507.995C323.15 506.255 322.46 504.275 319.88 504.575C320.18 503.505 321.06 503.465 321.84 503.675C327.17 505.155 329.58 514.255 325.82 518.605Z" fill="#E1E0E0"/>
<path d="M308.93 518.935C310.72 509.915 310.16 508.675 305.18 509.295C307.52 506.775 308.78 506.415 310.5 507.765C312.71 509.495 312.39 512.475 308.93 518.935Z" fill="#DCDBDB"/>
<path d="M319.09 505.485C318.33 509.095 319.78 512.305 321.05 515.505C321.89 517.615 323.25 519.265 325.96 518.465C324.98 520.315 323.33 519.635 322.13 519.135C317.85 517.345 316.19 509.585 319.09 505.485Z" fill="#E9E8E9"/>
<path d="M27.7701 283.615C26.5801 282.955 25.3801 282.295 24.1901 281.625C24.5501 278.415 24.9101 275.195 25.2701 271.965C27.7701 275.515 26.3601 279.865 27.7701 283.615Z" fill="#CBC478"/>
<path d="M314.03 520.775C312.18 523.975 309.04 523.475 305.56 523.805C307.64 519.435 311.51 522.065 314.03 520.775Z" fill="#D0CCD0"/>
<path d="M350.13 495.435C347.39 495.455 345.14 496.735 342.52 498.665C342.8 494.205 346.39 494.415 348.64 493.425C350.46 492.625 349.71 494.665 350.03 495.495L350.13 495.435Z" fill="#E5E4E4"/>
<path d="M350.04 495.495C351.55 500.265 350.61 505.075 350.23 509.875C350.01 505.065 348.82 500.265 350.13 495.435L350.04 495.495Z" fill="#DAD9D9"/>
<path d="M301.56 497.595C300.68 497.405 299.8 497.225 298.92 497.035C299.28 496.575 299.63 496.105 299.99 495.645C301.21 494.365 302.5 494.515 303.82 495.475C304.59 495.815 305.35 496.155 306.12 496.505C304.78 497.635 303.15 497.535 301.56 497.595Z" fill="#F7E928"/>
<path d="M158.74 507.675C161.4 507.615 163.53 507.935 165.87 506.255C163.99 510.615 161.76 510.015 158.74 507.675Z" fill="#C4C2C6"/>
<path d="M208.25 518.595C210.13 518.685 212.17 517.815 213.66 520.125C211.25 521.045 209.5 520.615 208.25 518.595Z" fill="#D4D3D3"/>
<path d="M285.83 522.595C288.55 519.975 290.53 520.535 292.69 520.775C291.16 523.355 289.05 522.475 285.83 522.595Z" fill="#C8C6C7"/>
<path d="M254.79 518.395C254.79 519.945 254.79 521.365 254.79 522.775C252.05 520.885 252.05 520.885 254.79 518.395Z" fill="#E3E2E2"/>
<path d="M160.85 499.625C162.51 500.475 167.52 497.915 164.45 504.155C163.91 501.605 162.2 500.785 160.93 499.525L160.85 499.625Z" fill="#C0BFBF"/>
<path d="M188.88 522.575C187.32 524.665 186.21 523.325 185.17 522.045C184.71 521.475 184.79 520.745 185.56 520.525C187.47 519.955 187.84 521.925 188.94 522.705C188.94 522.695 188.88 522.575 188.88 522.575Z" fill="#CAC6C7"/>
<path d="M168.55 498.445C167.85 497.155 167.5 495.965 167.86 494.635C167.89 494.535 168.86 494.465 169.15 494.695C170.77 496.015 170 497.155 168.55 498.445Z" fill="#B7B5B5"/>
<path d="M236.79 522.325C235.73 521.395 235.3 519.805 232.54 520.685C236.67 517.895 237.81 518.505 236.79 522.325Z" fill="#F0F0F0"/>
<path d="M150.38 486.855C152.81 486.395 153.65 487.335 154.52 488.195C154 488.555 153.5 489.165 152.94 489.235C150.83 489.485 152.22 487.385 150.38 486.855Z" fill="#D5D8DB"/>
<path d="M236.97 512.695C240.43 511.895 240.2 513.685 239.68 515.965C238.77 514.865 237.97 513.895 236.97 512.695Z" fill="#F0EFEF"/>
<path d="M141.19 498.235C142.59 498.425 143.99 498.605 145.39 498.795C143.82 499.525 142.24 500.525 140.79 498.695C140.93 498.545 141.06 498.385 141.19 498.235Z" fill="#E6E6E6"/>
<path d="M362.82 503.535C362.55 504.245 361.91 504.625 361.36 504.235C360.96 503.945 360.77 503.135 360.79 502.565C360.81 501.835 361.36 501.415 362.07 501.945C362.55 502.315 363.12 502.755 362.82 503.535Z" fill="#DDDADD"/>
<path d="M280 501.315C281.56 500.005 283.41 500.555 285.17 500.545C283.58 501.715 281.79 501.495 280 501.315Z" fill="#F7E928"/>
<path d="M348.8 117.795C351.45 119.215 354.41 119.335 357.3 119.635C359.23 119.835 358.23 120.695 357.89 121.475C354.62 124.285 351.15 122.095 347.96 121.525C335.16 119.265 322.49 119.225 309.85 122.395C309.2 122.555 308.52 122.625 307.92 122.895C296.57 127.935 285.24 132.995 273.66 137.535C270.04 138.955 267.41 142.035 266.19 145.865C265.15 149.105 263 151.165 260.21 152.885C257.26 154.705 254.46 156.795 253.28 161.525C257.33 158.575 260.49 156.025 264.08 154.105C274.77 148.365 286.53 146.895 298.28 145.715C303.41 145.195 307.72 144.095 310.49 139.415C310.91 138.705 311.77 138.385 312.63 138.255C313.48 138.295 314.06 138.715 314.37 139.505C314.62 140.715 314.24 141.825 313.72 142.875C311.31 147.755 310.82 152.735 312.85 157.855C314.14 161.095 313.15 163.405 310.57 165.735C303.84 171.835 303.21 181.015 308.75 188.165C313.18 193.875 317.06 199.855 318.14 207.205C318.34 208.575 318.88 209.745 319.95 210.655C320.88 211.435 321.77 212.415 321.3 213.645C318.78 220.215 320.91 227.435 318.36 234.005C317.36 236.595 318.74 238.725 320.38 240.815C321.2 227.295 330.64 219.355 344.65 220.585C349.78 221.035 354.93 221.915 359.03 225.615C361.25 227.615 363.64 227.525 365.74 225.505C367.92 223.385 366.13 221.465 364.96 219.755C361.56 214.795 359.87 209.315 359.61 203.365C359.55 202.035 359.62 200.685 359.97 199.395C360.36 197.965 360.65 195.965 362.27 195.895C364.06 195.815 364.29 197.915 364.57 199.295C366.44 208.395 372.24 214.495 379.44 219.805C389.79 227.435 392.27 239.535 386.2 250.895C385.73 251.775 385.29 252.685 384.61 253.425C383.94 254.145 383.2 255.025 382.08 254.535C381.02 254.075 380.89 252.945 380.99 251.965C381.28 249.155 381.56 246.335 381.88 243.525C382 242.535 382.34 241.565 382.33 240.565C382.29 237.735 382.64 234.275 380.38 232.615C377.82 230.735 375.57 233.835 373.4 235.075C370.64 236.655 366.91 237.755 367.39 242.125C367.83 246.105 369.87 248.935 373.74 250.315C376.49 251.305 376.78 252.725 375.06 255.195C371.72 259.975 371.82 263.255 375.56 267.195C377.25 268.975 377.18 270.285 375.86 271.905C373.58 274.705 372.36 277.855 371.99 281.465C371.6 285.285 368.9 286.755 365.37 286.965C360.41 287.265 356.9 289.585 354.85 294.155C354.43 295.085 353.74 296.045 354.39 296.945C356.04 299.245 355.31 301.725 355.28 304.185C355.24 307.965 356.22 311.385 359.3 314.455C361.44 311.875 362.76 308.615 366.29 307.785C367.21 307.565 367.36 306.615 367.24 305.725C366.07 296.895 370.62 290.685 376.97 285.635C379.92 283.285 381.63 280.745 382.25 277.055C383.74 268.145 389.25 261.655 396.96 257.995C404.18 254.575 408.12 249.765 409.72 242.155C411.37 234.285 409.36 227.335 405.56 220.665C403.72 217.445 400.9 215.025 398.3 212.455C396.48 210.665 395.88 208.135 394.26 206.195C392.07 207.495 392.83 210.795 390.11 211.755C387.76 209.015 388.47 205.775 388.91 202.755C389.75 197.085 391.92 191.895 395.16 187.115C399.17 181.195 398.44 175.575 393.31 170.515C390.79 168.025 387.66 166.425 384.81 164.405C379.59 160.715 379.97 156.465 385.85 154.025C389.68 152.435 393.73 151.345 397.99 151.765C402.19 151.555 403.6 155.265 405.8 157.625C407.4 159.345 403.66 159.925 404.03 162.115C406.21 161.855 408.44 159.525 410.49 162.605C411.52 164.155 411.1 164.725 410.17 165.655C410.02 167.925 408.14 169.255 407.22 171.215C408.92 170.125 409.73 167.825 412.08 167.795C415.86 167.215 416.8 169.975 417.82 172.655C417.11 175.335 417.94 176.965 420.89 177.145C425.12 179.315 426.65 183.715 428.96 187.355C441.15 206.525 450.19 227.045 455.29 249.275C455.79 251.435 455.44 253.555 456.03 255.615C456.08 257.425 454.88 259.095 455.47 260.995C455.79 262.025 455.37 263.495 454.41 263.415C450.32 263.085 451.96 266.065 451.99 267.655C452.14 275.555 450.26 282.735 445.09 288.875C442.1 292.425 438.27 294.495 433.78 295.685C422.65 298.645 418.65 303.725 418.96 315.305C419.16 322.645 417.94 328.995 412.16 334.205C408.93 337.115 408.97 350.075 411.56 353.665C417.08 361.325 422.68 368.925 428.05 376.685C429.46 378.715 430.94 379.745 433.35 379.425C437.13 378.925 439.61 380.835 441.52 383.825C440.94 384.405 441.03 385.575 439.89 385.675C429.41 380.485 418.91 383.335 408.75 386.285C389.43 391.895 372.79 402.655 357.02 414.875C339.72 428.285 324.31 443.695 309.56 459.785C308.29 461.165 306.93 462.325 305.15 462.935C297.9 465.435 290.42 467.165 283.04 469.195C281.89 469.515 280.72 469.485 279.7 468.695C279.23 468.035 279.11 467.295 279.25 466.515C280.1 464.235 282.31 463.865 284.16 463.635C298.75 461.795 309.11 453.455 318.52 442.795C327.77 432.315 338.09 422.815 349.31 414.395C351.82 412.505 353.4 410.215 352.57 407.165C349.14 394.565 353.96 385.185 362.94 376.575C367.54 372.165 370.74 366.235 374.66 361.055C379.1 355.185 379.17 354.985 386.3 357.415C394.66 360.255 403.06 362.965 411.36 365.965C412.58 366.405 413.73 367.195 415.59 366.895C414.34 363.895 412.55 361.375 410.55 359.075C405.92 353.765 402.57 348.235 406.99 340.405C399.55 341.075 393.18 341.245 386.88 339.665C384.55 339.085 383.36 340.825 382.37 342.755C380.55 346.305 379.44 346.405 376.77 343.515C371.62 337.945 370.44 329.645 373.8 322.585C375.75 318.485 373.06 313.905 368.48 313.645C365.44 313.465 365.46 315.495 365.69 317.675C365.87 319.355 367.63 321.365 365.46 322.625C363.78 323.595 361.9 322.435 360.25 321.675C353.33 318.485 349.43 311.375 350.06 303.285C348.65 318.975 339.5 328.435 325.46 333.955C324.38 334.385 323.27 334.765 322.11 334.965C320.98 335.155 319.55 335.615 319.02 334.265C318.54 333.055 319.68 332.155 320.57 331.405C322.1 330.115 323.88 329.165 325.47 327.955C332.99 322.185 337.23 314.455 338.47 305.165C339.14 300.105 338.44 299.475 333.46 298.855C329.89 298.405 326.61 297.345 324.29 294.385C323.56 293.455 323.05 292.275 323.74 291.135C324.38 290.075 325.53 290.515 326.46 290.695C328.76 291.125 331.15 290.495 333.4 291.295C338.6 293.165 342.73 291.365 346.61 287.865C350.08 284.735 353.44 281.565 356.29 277.835C363.64 268.235 364.19 253.095 357.44 243.095C350.06 232.165 339.47 232.615 333.11 244.175C331.27 247.525 329.68 251.015 327.26 254.035C325.4 256.355 323.47 257.815 320.49 255.945C317.85 254.285 314.43 253.085 316.24 248.815C317.22 246.505 316.31 244.615 315.12 242.725C312.98 239.335 312 235.755 313.39 231.795C314.5 228.625 313.04 225.925 311.71 223.245C310.42 220.645 309.29 218.015 310.79 215.165C313.87 209.315 312.28 203.875 309.51 198.495C308.05 195.655 306.18 193.095 304.04 190.765C298.94 185.215 298.73 178.845 300.6 172.075C301.22 169.825 301.76 167.445 303.05 165.545C306.07 161.115 303.7 156.475 303.95 151.965C304.03 150.405 302.66 150.155 301.43 150.345C291.9 151.785 282.13 151.905 272.97 155.355C259.71 160.355 251.05 170.085 245.57 182.835C244.18 186.075 242.69 189.105 240.39 191.845C236.03 197.035 233.81 203.435 234.43 209.945C235.55 221.535 232.48 230.695 223.63 238.655C217.64 244.035 213.72 251.515 207.99 257.395C204.63 260.845 202.53 265.355 200.88 269.925C199.24 274.435 200.84 276.565 205.7 276.495C208.39 276.455 210.94 275.625 213.53 275.005C217.56 274.035 221.61 272.715 225.82 273.895C227.57 274.385 229.66 274.935 229.46 277.305C229.25 279.815 227.09 279.925 225.27 279.635C220.99 278.945 220.95 281.855 221.11 284.555C221.37 288.995 222.72 293.345 222.11 298.245C225.11 295.435 228.32 295.055 231.62 295.645C235.72 296.375 239.62 297.915 243.6 299.135C245.62 299.755 246.93 301.065 245.54 303.235C242.05 308.675 237.85 313.345 231.05 314.555C229.61 314.815 227.64 315.105 227.17 313.375C226.72 311.705 228.74 311.545 229.87 311.075C232.99 309.765 235.76 308.055 237.88 304.765C233.91 303.235 230.1 303.705 227.02 305.765C223.69 307.995 225.73 311.815 227.15 313.825C230.5 318.545 230.41 323.335 229.69 328.585C229.03 333.345 228.39 338.145 229.31 342.985C230.59 349.765 233.64 352.095 240.36 351.325C245.17 350.775 249.18 348.315 253.04 345.755C256.04 343.765 259.08 342.275 262.67 342.035C272.61 341.385 280.96 336.275 289.77 332.445C291.67 331.615 292.37 330.035 292.89 328.215C294.09 324.045 293.41 319.965 292.51 315.875C291.9 313.105 291.31 310.325 291.89 307.475C292.17 306.105 292.77 304.745 294.32 304.725C295.66 304.715 296.17 306.085 296.46 307.185C298.02 312.975 298.9 318.915 300.51 324.695C301.13 326.915 301.29 329.265 304.02 330.295C306.07 331.065 305.55 332.885 304.49 333.975C296.39 342.295 288.93 351.285 279.48 358.215C276.48 357.695 273.94 357.905 271.41 360.315C268.53 363.065 264.36 360.655 260.9 361.705C251.84 359.375 242.82 356.975 233.58 355.225C228.07 354.185 225.31 348.435 224.91 342.595C224.58 337.825 224.63 333.085 225.65 328.275C226.55 323.995 227.06 319.335 222.96 314.985C220.47 331.465 216.21 347.005 210.25 362.445C214.82 360.855 218.7 361.485 221.66 364.905C224.39 368.055 223.86 371.595 222.22 375.135C218.82 382.485 215.36 389.415 207.69 393.835C200.9 397.745 195.9 404.185 190.21 409.615C180.38 418.995 181.12 431.275 178.22 442.505C177.1 446.845 175.47 448.615 171.63 448.695C169.33 448.745 168.14 449.615 166.92 451.435C162.23 458.405 161.23 466.125 161.8 474.235C161.38 475.265 160.96 476.285 160.5 477.425C157.76 474.875 153.05 475.155 151.91 470.755C151.92 469.335 152.53 468.085 153.48 467.185C158.12 462.805 159.63 456.655 163.02 450.945C155.85 448.805 148.89 446.855 142.29 443.665C139.66 448.625 139.83 454.695 135.81 458.965C131.33 462.185 131.53 457.285 129.91 455.555C126.75 450.065 123.22 445.105 117.38 441.865C113.94 439.965 111.6 436.445 110.54 432.145C109.28 433.185 108.06 434.575 106.14 433.945C105.79 433.065 105.97 431.825 106.73 430.675C102.38 432.375 100.63 430.205 99.93 426.465C103.58 424.665 107.18 424.345 110.69 426.835C111.23 427.215 110.49 426.925 111.11 427.095C119.74 429.345 128.38 431.735 137.34 432.025C141.09 432.145 144.11 428.815 144.42 425.495C144.79 421.545 141.9 420.475 138.99 419.455C136.79 418.685 134.55 417.885 132.23 417.725C123.94 417.145 117.13 412.875 110.14 409.035C109.26 408.555 108.43 407.995 107.76 407.235C106.97 406.345 106.22 405.345 106.8 404.115C107.44 402.755 108.74 403.005 109.86 403.325C112.1 403.955 114.36 404.525 116.6 405.175C120.88 406.425 125.06 406.645 129.28 404.815C133.36 403.035 137.28 403.515 141.22 405.705C145.3 407.965 149.36 410.175 153.03 413.115C156.16 415.625 159.6 417.805 163.94 417.135C166.2 416.785 168.17 415.635 168.83 413.385C169.39 411.445 167.5 410.485 166.25 409.515C156.91 402.285 147.5 395.155 136.59 390.345C133.22 388.855 129.93 388.345 126.55 390.275C125.4 390.925 124.1 391.665 122.92 390.375C121.32 388.635 120.27 390.735 118.94 390.845C118.45 390.915 118.03 390.775 117.67 390.435C112.83 386.885 108.24 389.325 103.82 391.285C99.9 393.025 98.05 396.635 98.88 400.705C99.65 404.485 98.78 406.665 95.33 408.185C92.9 409.255 92.92 412.495 90.79 413.935C88.98 415.265 88.96 412.895 87.96 412.565C91.3 406.145 95.73 400.345 96.73 392.695C97.16 389.385 101.17 387.625 104.53 386.515C106.55 385.845 107.65 385.355 107.29 382.535C106.54 376.625 109.79 371.915 115.9 369.655C120.19 368.065 121.94 366.035 119.82 361.435C118.44 358.435 117.98 355.105 118.03 351.705C118.15 343.625 122.39 339.125 130.32 339.775C133.79 340.055 134.37 338.625 134.9 335.915C137.54 322.415 141.84 309.475 148.38 297.335C155.01 285.035 157.92 283.555 171.88 284.755C189.18 286.245 204.63 292.165 218.07 303.235C218.96 303.965 219.97 305.795 221.36 304.435C222.9 302.925 220.8 302.175 220.07 301.345C217.63 298.545 217.99 295.205 217.94 291.905C217.8 283.965 216.48 282.535 208.5 281.495C206.85 281.285 205.22 280.955 203.58 280.695C196.71 279.605 194.9 276.965 196.58 270.065C197.14 267.785 197.36 267.085 194.29 267.345C173.08 269.135 151.88 270.025 131.15 263.625C121.62 260.685 112.49 256.745 104.54 250.665C86.81 237.105 86 218.805 102.46 203.855C108.54 198.335 115.93 194.935 123.63 192.205C125.05 197.665 123.4 201.085 118.91 204.525C103.54 216.325 103.09 233.905 117.54 246.565C125.36 253.415 134.45 258.005 144.81 259.795C160.85 261.615 176.81 261.695 192.89 259.395C201.23 258.205 205.02 251.955 210.19 247.115C213.35 244.155 215.23 240.115 217.94 236.745C219.51 234.795 221.01 232.795 223.45 231.855C229.85 228.615 231.26 223.535 230.39 216.605C229.35 208.315 229.92 199.495 235.02 192.715C240.64 185.245 243.07 176.135 248.86 168.915C249.64 167.945 250.17 166.975 249.78 165.735C247.66 159.085 251.51 155.065 256.24 151.665C259.19 149.545 261.33 147.335 262.95 143.775C266.74 135.415 274.73 132.035 283.11 129.965C286.5 129.125 289.58 128.105 292.62 126.265C307.87 117.035 324.55 115.265 341.91 117.425C344.14 117.705 346.48 117.675 348.8 117.795Z" fill="#040405"/>
<path d="M154.24 250.515C149.14 237.425 142.66 224.965 136.47 212.385C134.67 208.725 132.71 205.135 130.24 200.415C129.14 217.535 128.12 233.455 127.07 249.695C123.77 249.045 122.39 247.955 122.68 244.425C124.32 224.095 125.27 203.725 125.95 183.335C125.99 181.995 124.83 179.745 127.79 179.695C129.92 179.655 131.27 179.895 132.06 182.565C135.84 195.255 141.8 207.025 147.99 218.675C153.34 225.125 155.34 233.535 160.56 240.445C162.92 239.015 163.45 236.645 164.33 234.635C171.82 217.405 180.2 200.575 187.31 183.175C188.28 180.805 189.57 178.565 192.67 178.795C195.98 179.035 196.27 181.775 196.88 184.175C197.21 185.465 197.28 186.815 197.24 188.145C196.91 200.285 199.14 212.245 199.64 224.325C200.04 233.905 200.5 243.475 201.82 252.985C202.14 255.305 200.73 256.855 198.65 257.475C196.01 258.265 193.26 259.755 190.51 258.025C189 257.075 189.96 255.555 190.48 254.435C191.53 252.205 191.78 249.995 190.95 247.675C190.04 232.015 188.26 216.425 187.37 200.765C187.18 200.115 186.58 201.145 187.17 200.845C187.41 205.015 184.94 208.295 183.33 211.785C177.84 223.715 172.42 235.675 167.01 247.635C165.23 250.835 164.23 254.385 162.61 257.645C161.04 260.815 158.98 261.065 157.03 258.255C155.47 255.985 153.72 253.615 154.24 250.515Z" fill="#0A0A0C"/>
<path d="M192.12 247.475C193.91 251.045 192.33 254.145 190.67 257.425C193.81 258.185 196.47 256.475 199.31 255.995C201.17 255.685 201.07 254.455 200.89 253.045C198.81 236.925 198.31 220.675 196.77 204.515C196.11 197.565 196.34 190.585 195.36 183.695C195.15 182.225 195.97 179.865 192.94 179.665C190.38 179.495 189.56 180.805 188.74 182.845C180.66 203.085 171.16 222.695 162.05 242.485C161.85 242.915 161.59 243.315 160.85 244.615C156.19 235.695 151.44 227.535 147.99 218.695C150.91 221.165 152.78 219.905 152.8 216.695C152.82 211.955 152.23 207.205 151.62 202.485C151.26 199.675 148.87 199.705 146.64 199.635C145.19 199.585 143.79 198.735 144.2 197.195C144.81 194.895 145.82 197.115 146.68 197.255C147.62 197.395 148.3 196.935 148.52 196.025C148.74 195.075 148.15 194.255 147.35 194.125C145.57 193.835 143.75 193.835 141.95 193.715C141.89 191.495 143.82 191.845 145.06 191.355C146.96 190.605 149.93 191.035 150.07 188.195C150.19 185.765 146.66 187.505 145.93 185.525C146.35 185.015 146.71 184.135 147.21 184.055C154.38 182.805 153.19 177.285 152.85 172.585C152.36 165.685 153.49 158.045 145.71 153.755C144.51 153.095 144.03 151.335 143.94 149.775C152.91 148.855 156.84 152.115 157.33 160.905C157.48 162.375 157.25 163.855 157.46 165.315C157.47 172.945 157.61 180.565 157.39 188.195C157.51 189.085 157.53 189.975 157.43 190.855C157.45 202.615 157.44 214.385 157.45 226.155C157.45 229.155 157.66 232.125 158.97 234.895C159.32 235.635 159.66 236.545 160.57 236.625C161.87 236.735 162.06 235.515 162.39 234.645C163.35 232.125 163.41 229.465 163.42 226.805C163.5 215.705 163.28 204.595 163.52 193.495C163.59 189.615 165.93 188.395 169.41 188.395C172.9 188.395 176.39 188.295 179.88 188.475C183.47 188.655 184.79 187.035 183.92 183.575C184.34 177.935 188.97 176.925 193.04 176.025C196.75 175.205 198.75 178.335 199.75 181.315C200.46 183.435 201.54 183.735 203.34 183.755C205.65 183.775 208.13 183.445 210.24 184.145C217.32 186.505 218.55 189.135 215.47 196.325C214.4 198.825 218 202.145 213.84 203.735C210.47 201.545 211.71 198.085 211.61 195.095C211.4 188.585 206.33 184.795 200.03 186.725C197.86 187.395 198.41 188.965 199.22 190.285C200.11 191.745 201.86 192.255 203.12 193.325C205.71 195.525 209.01 197.355 208.06 201.665C205.2 199.545 201.32 199.725 198.48 197.045C201.81 200.725 200.64 204.915 200.99 208.855C201.7 216.765 201.3 224.605 200.97 232.525C200.76 237.555 201.85 242.945 201.95 248.205C202 250.445 202.68 250.425 204.71 249.525C211.17 246.665 212.63 239.835 216.49 234.985C218.62 232.305 220.39 231.365 223.41 231.865C217.08 240.365 210.58 248.725 203.45 256.585C202.53 257.595 201.55 258.415 200.2 258.745C181.8 263.315 163.34 264.555 144.77 259.805C146.43 259.765 148.1 259.825 149.74 259.645C152.61 259.345 154.05 257.715 152.95 254.905C152.15 252.875 151.93 251.435 154.26 250.545C155.52 252.985 156.8 255.405 158.02 257.865C158.47 258.785 158.88 259.715 160.09 259.555C161.17 259.415 160.92 258.305 161.27 257.635C162.96 254.325 163.62 250.565 165.84 247.495C167.39 249.065 169.09 250.145 171.47 249.955C172.68 249.865 173.81 250.575 173.98 251.895C174.2 253.565 172.92 254.125 171.6 254.545C169.73 255.145 166.15 254.285 166.63 257.045C167.04 259.435 170.38 257.365 172.36 257.845C174.65 258.405 176.96 258.185 179.23 257.605C181.4 257.045 184.55 257.665 182.96 253.355C182.3 251.545 184.61 250.575 186.29 250.625C188.93 250.675 190.49 249.095 192.12 247.475Z" fill="#F2E531"/>
<path d="M155.85 160.725C155.1 152.705 152.82 150.605 143.94 149.735C144.92 147.575 146.89 148.625 148.31 148.625C166.63 148.525 184.96 148.605 203.28 148.505C205.95 148.495 207.22 148.965 207.02 151.995C206.76 155.885 206.96 159.805 206.53 164.055C204.58 154.395 197.81 153.445 189.92 153.765C182.27 154.075 174.6 153.785 166.94 153.755C164.64 151.875 163.14 152.345 162.49 155.285C162.31 156.085 162.33 156.905 162.28 157.725C162 162.845 160.71 163.435 155.85 160.725Z" fill="#070607"/>
<path d="M155.85 160.725C159.55 161.685 162.28 161.605 161.01 156.425C160.77 155.435 161.36 154.155 161.8 153.115C162.38 151.745 163.18 150.045 164.84 150.235C166.57 150.425 166.67 152.315 166.95 153.765C165.27 154.895 164.9 156.485 164.92 158.445C165.02 165.715 165.1 172.985 164.9 180.245C164.82 183.165 165.86 183.865 168.57 183.745C173.68 183.515 178.8 183.585 183.92 183.535C184.61 184.275 187.17 182.615 186.32 185.015C185.58 187.105 186.17 190.575 181.93 190.185C177.34 189.765 172.7 189.985 168.09 189.725C165.77 189.595 164.7 190.395 164.78 192.705C161.3 194.275 158.11 194.565 155.86 190.685C155.86 190.025 155.86 189.375 155.85 188.715C156.45 188.155 156.78 186.925 157.51 186.975C163.75 187.405 161.9 183.205 161.7 179.895C161.59 178.085 161.36 176.205 161.74 174.465C162.88 169.235 160.53 166.315 155.83 164.725C155.84 163.395 155.85 162.055 155.85 160.725Z" fill="#0A0A0C"/>
<path d="M208.05 201.645C206.1 197.555 203.64 194.045 198.97 192.605C195.43 191.515 197.05 188.375 197.11 186.245C197.19 183.495 199.5 184.725 200.84 185.195C203.55 186.155 206.41 185.885 209.16 186.265C212.83 186.775 213.07 188.435 213.12 191.395C213.19 195.495 212.47 199.675 213.85 203.705C213.61 204.905 213.36 206.105 213.09 207.425C210.15 206.255 210.4 202.845 208.05 201.645Z" fill="#0F0D11"/>
<path d="M145.93 185.495C146.91 185.525 147.89 185.495 148.86 185.595C149.99 185.715 151.96 183.745 152.02 186.625C152.06 188.555 152.95 191.015 149.73 191.665C147.11 192.205 144.31 192.105 141.95 193.685C140.44 193.225 138.79 194.875 137.32 193.235C134.88 190.505 135.63 187.985 139.25 187.105C141.47 186.565 143.7 186.035 145.93 185.495Z" fill="#14130F"/>
<path d="M279.9 468.415C288.52 466.995 296.74 464.075 305.11 461.685C306.95 461.155 307.74 459.885 308.83 458.685C332.7 432.625 358.03 408.345 390.08 392.305C403.34 385.675 417.18 381.155 432.28 381.885C435.36 382.035 438.22 382.665 439.87 385.685C435.93 392.745 431.77 399.695 428.15 406.925C426.74 409.735 424.43 411.445 422.55 413.665C422 415.335 420.64 415.395 419.29 415.145C408.89 413.285 400.07 417.365 391.43 422.375C385.89 425.585 379.4 427.025 375.15 432.545C362.93 448.405 345.09 457.465 332.74 467.805C353.54 459.875 372.76 443.275 392.83 427.965C398.45 423.675 404.83 422.515 411.58 422.355C413.04 422.315 414.63 422.245 415.63 423.735C407.34 433.805 397.74 442.575 388.46 451.685C382.21 457.825 374.43 461.845 367.89 467.535C362.71 467.535 359.43 471.675 355.51 473.955C350.39 476.935 344.91 478.735 339.62 481.025C333.11 483.845 327.24 487.925 320.35 490.035C316.17 491.315 311.92 492.235 307.73 493.395C306.24 493.805 304.22 493.005 303.84 495.455C302.56 495.515 301.29 495.565 300.01 495.625C293.87 496.665 287.69 497.495 281.62 498.835C278.48 499.525 275.39 499.055 272.3 499.395C269.43 499.715 266.34 498.455 263.71 500.565C253.18 500.815 244.16 495.975 234.96 491.885C227.97 488.785 221.08 485.385 214.97 480.665C212.28 478.585 211.19 479.345 211.22 482.595C211.25 485.835 211.99 488.825 213.63 491.645C214.32 492.835 215.82 493.885 214.8 495.615C205.2 495.955 196.71 491.785 188 488.715C186.28 488.105 184.67 487.715 182.93 487.495C182.86 483.695 186.05 481.815 187.99 479.295C191.34 474.965 194.72 470.935 196.22 465.335C197.5 460.555 200.3 456.625 206.33 455.685C214.13 454.465 221.44 450.995 229.6 450.835C234.4 450.745 238.78 448.055 242.94 445.625C246.42 443.595 249.08 443.895 251.45 447.335C253.42 450.215 256.37 452.275 258.48 455.065C259.19 456.165 259.69 457.355 260.01 458.625C260.41 461.225 261.32 463.765 261.23 466.415C261.1 470.255 263.17 470.665 266.33 470.215C270.83 469.595 275.17 467.495 279.9 468.415Z" fill="white"/>
<path d="M279.9 468.415C274.6 470.635 268.93 471.195 263.33 472.015C261.75 472.245 260.05 471.515 259.89 469.315C259.63 465.725 259.33 462.145 259.05 458.555C259.64 457.955 260.36 457.835 261.15 457.995C264.42 459.825 262.34 463.565 263.87 466.145C265.8 465.015 266.01 463.075 266.7 461.465C272.24 448.455 277.57 435.355 283.06 422.315C283.61 421.005 285.09 419.525 283.89 418.215C282.78 416.995 281.06 418.005 279.66 418.375C263.41 422.635 247.21 427.135 230.91 431.195C221.29 433.585 219.09 436.375 218.79 446.525C218.76 447.525 218.83 448.525 218.33 449.465C227.29 449.325 235.7 447.175 243.28 442.315C246.67 440.145 249.5 440.595 252.15 443.465C255.15 446.725 259.11 449.345 259.32 454.425C259.04 455.195 258.54 455.735 257.74 455.965C254.36 452.335 251.44 446.525 247.47 445.685C243.65 444.875 238.93 449.995 234.27 451.105C225.23 453.255 216.01 454.655 206.89 456.585C201.82 457.655 198.83 460.295 197.91 464.545C196.03 473.195 189.75 478.715 184.74 485.185C184.14 485.965 183.54 486.735 182.94 487.515C181.47 486.925 179.46 486.665 181.68 484.445C183.31 482.825 184.61 480.885 186.23 479.255C191.11 474.335 193.94 468.325 196.1 461.855C197.57 457.455 200.59 454.845 205.47 454.365C207.5 454.165 210.33 454.115 209.92 450.565C209.87 450.115 210.64 449.155 211.05 449.145C216.11 449.065 214.83 445.345 214.91 442.485C215.1 435.815 219.4 430.155 225.91 428.415C245.81 423.125 265.74 417.905 285.65 412.645C289.86 411.535 291.47 408.555 289.6 404.775C284.5 394.465 282.04 383.595 282.83 372.135C283.17 367.165 280.76 364.865 276.46 363.615C273.38 362.725 270.24 362.715 267.08 362.605C265.01 362.535 262.73 363.415 260.89 361.695C262.6 360.225 264.41 359.635 266.72 360.375C268.79 361.045 270.82 360.325 271.87 358.455C273.91 354.795 276.31 356.135 278.84 357.605C279.38 359.835 280.9 361.195 282.72 362.505C285.58 364.545 287 367.295 286.72 371.055C286.15 378.555 287.1 385.935 289.35 393.125C291.48 399.925 294.55 406.395 296.6 413.235C297.68 416.845 299.62 420.305 298.52 424.295C295.63 426.285 294.54 428.325 298.33 430.525C298.87 431.415 299.05 432.405 298.86 433.395C298.45 435.495 298.24 438.225 295.68 438.415C293.42 438.585 293.6 435.845 292.96 434.275C292.21 432.445 291.79 430.465 290.84 428.715C290.28 427.695 289.68 426.495 288.38 426.505C286.98 426.505 286.66 427.895 286.19 428.915C282.49 436.885 279.53 445.165 275.95 453.175C274.01 457.525 272.38 462.005 270.53 466.545C273.87 466.645 276.87 464.125 279.9 466.435C279.87 467.085 279.88 467.755 279.9 468.415Z" fill="#060608"/>
<path d="M214.79 495.635C210.92 491.165 209.4 485.995 209.88 480.115C210.1 477.385 210.61 476.005 213.53 478.085C228.75 488.915 245.53 496.305 263.69 500.575C262.32 502.415 260.24 500.835 258.65 501.625C245.43 500.905 232.2 500.305 219.16 497.685C217.38 497.335 216.22 496.345 214.79 495.635Z" fill="#080909"/>
<path d="M312.84 138.715C308.91 147.365 300.75 146.765 293.25 147.755C285.43 148.785 277.59 149.655 270.15 152.625C263.45 155.295 257.77 159.395 252.61 164.345C251.54 159.195 252.58 155.855 257.55 153.025C261.62 150.705 264.12 147.945 265.77 143.455C267.77 138.025 273.04 135.335 278.27 133.665C285.73 131.295 292.92 128.725 299.84 124.805C309.65 119.245 320.79 118.355 331.98 118.585C339.61 118.735 347.12 119.545 354.47 121.655C355.51 121.955 356.75 121.555 357.89 121.475C366.49 126.585 375.08 131.685 383.67 136.795C384.94 141.155 388.5 143.425 391.93 145.765C394.33 147.405 396.86 148.845 397.96 151.765C394.37 153.515 390.32 153.655 386.6 154.925C384.58 155.615 382.22 156.345 381.99 158.915C381.79 161.195 383.79 162.485 385.4 163.475C388.94 165.645 392.49 167.685 395.48 170.675C399.35 174.545 400.85 182.695 396.43 187.845C391.3 193.825 389.53 201.785 390.08 210.945C391.7 208.065 392.09 204.855 394.63 202.505C395.94 208.045 399.34 211.925 403.3 215.645C412.63 224.425 414.18 242.105 407.09 253.285C406.08 254.885 404.63 255.305 403.19 255.955C397.87 258.345 392.89 261.225 389.01 265.705C386.49 268.615 384.28 271.735 383.89 275.675C383.41 280.595 381.7 284.325 377.23 287.265C372.64 290.285 369.61 294.855 368.4 300.615C367.74 303.775 369.04 306.325 369.32 309.145C364.36 308.695 362.68 310.185 360.43 317.195C355.48 313.715 352.89 308.885 354.08 303.185C354.84 299.525 353.66 297.885 350.93 296.305C352.63 294.615 354.25 293.215 355.21 290.915C356.96 286.725 361.2 285.865 365.18 285.745C369.41 285.625 371.24 284.165 370.93 279.765C370.61 275.205 373.65 272.185 376.91 269.395C369.66 266.845 369.11 259.195 375.85 252.225C372.16 251.465 368.9 250.335 367.2 246.795C364.58 241.335 365.48 238.135 370.7 235.075C371.56 234.575 372.41 234.045 373.31 233.615C376.06 232.285 379.13 228.225 381.23 229.855C383.75 231.815 383.59 236.505 383.68 240.135C383.74 242.585 383.2 245.055 382.85 247.505C382.52 249.785 382.07 252.045 381.63 254.555C389.28 247.995 392.34 230.925 380.22 222.085C370.95 215.325 363.85 207.755 362.61 194.945C358.71 205.165 362.08 213.015 367.04 220.515C368.41 222.585 370.53 224.585 367.13 226.555C364.39 228.145 361.81 230.555 358.45 227.045C349.74 217.945 325.87 221.585 322.54 233.215C321.48 236.925 322.87 240.675 321.33 244.905C318.49 239.995 313.76 236.205 318.56 230.515C315.47 227.205 321.48 223.025 317.41 219.475C316.44 218.625 318.98 216.575 319.71 214.975C320.13 214.065 321.64 212.195 320.39 212.215C314.93 212.265 317.39 208.255 316.81 205.935C315.24 199.715 312.13 194.355 308.12 189.425C301.31 181.055 302.16 171.425 310.31 164.165C311.75 162.875 313.34 161.955 312.01 159.345C308.56 152.535 309.92 146.005 313.96 139.845C314.43 137.705 316.19 136.695 317.75 135.505C316.07 136.505 314.78 138.105 312.84 138.715Z" fill="white"/>
<path d="M412.05 167.805C410.18 169.945 408.3 172.085 406.16 174.545C404.77 170.125 407.93 168.095 410.15 165.665C411.45 165.785 411.92 166.645 412.05 167.805Z" fill="#E4E4E0"/>
<path d="M420.86 177.165C419.54 179.575 417.11 178.315 416.38 177.485C414.86 175.765 416.53 174.085 417.79 172.675C419.11 173.955 420.59 175.145 420.86 177.165Z" fill="#F5F2E2"/>
<path d="M415.6 423.745C404.4 422.235 395.5 426.875 387.09 433.735C377.73 441.365 368.14 448.775 358.18 455.595C348.59 462.165 337.64 466.375 326.82 471.035C333.19 466.185 339.58 461.365 345.94 456.485C353.16 450.955 360.35 445.375 367.55 439.815C367.94 439.515 368.49 439.275 368.68 438.865C375 425.765 388.8 423.115 399.82 416.595C405.86 413.025 412.61 414.045 419.15 413.915C420.3 413.895 421.44 414.275 422.54 413.675C422.43 418.545 418.94 421.095 415.6 423.745Z" fill="#080808"/>
<path d="M90.74 413.915C90.42 409.765 93.04 407.585 96.3 406.085C97.76 405.415 98.38 405.125 98.03 403.175C96.38 394.205 100.51 388.895 109.84 387.745C112.12 387.465 114.47 387.725 116.77 387.585C120.59 387.335 117.45 389.615 117.91 390.575C116.7 392.895 118.09 393.785 120.14 394.485C119.56 393.125 116.21 393.335 118.15 390.825C119.68 389.325 120.47 386.985 123.53 387.515C126.75 388.075 123.3 389.285 124.23 390.185C130.63 384.345 136.59 388.665 142.31 391.645C151.41 396.385 159.54 402.695 167.77 408.785C172.19 412.055 171.58 415.355 166.45 417.675C160.7 420.285 155.88 417.645 151.91 414.045C147.39 409.945 141.76 408.015 136.79 404.865C135.46 404.025 133.92 404.325 132.5 405.075C124.93 409.065 117.48 407.525 110.05 404.585C109.18 404.235 108.26 404.015 106.33 403.405C109.58 408.995 115.09 409.645 119.02 412.455C123.17 415.415 128.24 415.725 133.06 416.505C135.56 416.915 137.88 417.665 140.2 418.535C143.53 419.795 146.74 421.095 145.95 425.785C145.18 430.355 142.32 432.785 138.06 433.385C135.5 433.755 132.86 433.585 130.18 432.895C125.69 431.725 121.33 430.025 116.41 430.305C113.98 430.445 111.13 429.615 108.98 427.165C106.55 424.395 102.88 427.755 99.88 426.455C95.46 423.285 93.32 418.435 90.74 413.915Z" fill="#FDFDFD"/>
<path d="M135.78 458.945C137.58 453.325 139.37 447.695 141.2 441.975C149.01 445.395 156.62 448.315 164.85 449.665C160.65 457.025 158.45 465.225 151.87 470.725C148.51 471.935 147.09 468.775 145.29 467.305C142.04 464.665 137.95 462.855 135.78 458.945Z" fill="#FDFDFC"/>
<path d="M106.1 433.935C107.58 432.905 109.06 431.885 110.73 430.725C113.14 436.925 117.3 441.425 123.34 444.445C127.66 446.605 128.63 451.275 129.88 455.535C121.78 450.095 114.56 443.635 108.19 436.275C107.53 435.515 106.13 435.255 106.1 433.935Z" fill="#F4F4EB"/>
<path d="M175.98 505.425C177.6 503.625 176.24 499.835 179.97 499.465C181.26 501.235 183.02 503.115 181.41 505.315C179.93 507.345 177.83 507.055 175.98 505.425Z" fill="#060608"/>
<path d="M297.83 424.585C298.29 420.125 296.09 416.305 294.89 412.235C292.39 403.705 287.84 395.845 286.38 387.005C285.57 382.145 284.27 377.145 285.17 372.265C286.13 367.035 284.04 363.685 279.68 362.065C275.99 360.695 277.03 359.485 278.82 357.595C287.09 348.745 295.37 339.885 303.64 331.035C301.4 332.315 300.27 330.745 299.68 327.455C298.34 319.905 296.35 312.475 294.5 304.425C291.23 309.335 293.36 313.745 294.3 317.885C295.29 322.275 294.85 326.385 293.84 330.565C293.53 331.845 292.94 333.035 291.54 333.555C280.99 337.475 271.15 343.715 259.31 343.485C257.49 343.445 256.31 344.835 255.06 345.865C249.69 350.285 243.44 352.555 236.65 353.445C233.28 353.895 228.68 348.715 227.85 343.925C226.99 338.945 226.97 333.815 228.18 329.095C229.75 322.935 228.39 317.865 225.44 312.635C221.99 306.535 222.9 304.705 229.65 303.035C230.6 302.795 231.6 302.685 232.58 302.665C235.19 302.615 237.8 302.645 241.4 302.645C237.59 308.405 233.46 311.735 227.96 313.345C236.97 313.785 241.07 307.115 245.88 301.075C225.95 295.215 223.59 295.155 223.22 300.435C221.98 300.345 221.29 299.005 221.3 298.435C221.38 292.255 218.74 286.275 220.54 279.875C221.2 277.555 221.68 277.525 223.37 277.925C224.18 278.115 224.97 278.425 225.79 278.485C226.85 278.565 228.35 279.235 228.74 277.665C229.21 275.745 227.5 275.715 226.24 275.385C221.91 274.225 217.74 275.175 213.61 276.375C210.17 277.375 206.76 278.275 203.09 277.815C198.6 277.245 197.52 274.755 199 270.865C200.75 266.255 202.54 261.485 205.92 257.905C212.77 250.645 217.44 241.365 224.99 235.075C232.43 228.875 233.71 221.875 233.14 213.245C232.53 204.075 234.03 195.425 241.52 188.875C242.43 188.075 242.57 186.515 243.04 185.305C251.13 164.725 265.51 152.315 288.23 150.695C292.81 150.365 297.34 149.385 301.89 148.735C304.67 148.335 307.18 148.265 305.42 152.335C304.63 154.165 305 155.915 305.89 157.545C306.97 159.515 306.36 161.115 305.52 163.035C303.15 168.435 300.61 173.785 300.79 179.995C300.89 183.345 301.8 186.035 303.94 188.545C307.92 193.205 311.66 198.015 313.25 204.135C314.06 207.255 314.86 210.655 313.06 213.285C310.5 217.055 311.28 220.225 313.18 223.685C314.9 226.805 316.19 229.665 314.13 233.555C312.67 236.305 314.29 239.565 316.25 242.275C318.06 244.785 320.18 247.545 316.63 250.445C316.33 250.685 316.04 251.495 316.09 251.525C318.25 253.005 320.35 254.635 322.69 255.765C324.45 256.615 325 254.585 325.83 253.565C328.23 250.625 330.14 247.425 331.69 243.905C336.83 232.235 347.59 230.385 356.24 239.525C365.29 249.075 366.1 266.695 358.17 277.665C354.58 282.635 349.93 286.555 345.5 290.635C342.26 293.615 337.9 294.835 333.58 292.605C330.58 291.065 326.88 294.165 324.11 291.095C325.77 296.165 330.05 297.625 334.59 297.545C338.96 297.475 340.27 298.725 339.97 303.135C339.18 314.475 334.12 323.245 325.08 329.885C323.1 331.335 321.06 332.705 318.92 334.205C335.74 332.525 347.52 318.765 349.21 298.905C350.6 299.485 351.82 299.815 351.62 301.935C350.54 313.325 354.19 318.555 365.48 322.185C365.59 321.895 365.88 321.495 365.78 321.335C364.02 318.405 362.16 314.885 365.42 312.485C368.39 310.295 371.2 313.005 373.96 314.895C377.35 317.225 377.4 318.975 375.37 322.455C370.74 330.345 372.75 338.275 380.75 345.635C381.11 342.975 380.34 340.165 383.11 338.495C385.72 336.925 388 338.555 390.3 338.965C396.09 340.005 401.73 340.215 407.5 338.105C407.58 338.675 407.94 339.425 407.73 339.895C403.98 348.095 407.66 354.295 412.87 360.275C415.22 362.975 417.08 366.105 420 370.245C409.27 366.615 399.82 363.515 390.44 360.215C379.66 356.415 379.8 356.425 373.15 365.285C367.41 372.935 362.18 380.965 354.91 387.455C352.34 389.745 352.78 393.915 352.97 397.385C353.14 400.545 353.06 403.835 353.96 406.795C355.24 410.995 353.15 413.055 350.28 415.305C334.68 427.545 320.53 441.315 307.51 456.245C305.85 458.145 304.03 459.445 301.44 460.115C294.19 462.005 287.04 464.285 279.85 466.415C276 467.075 272.15 467.745 268.1 468.435C274.06 454.345 280.13 440.585 285.65 426.605C287.56 421.775 289.04 423.955 290.8 426.155C293.6 429.655 294.08 434.125 295.46 438.925C296.85 435.875 298.34 433.535 297.83 430.575C296.31 428.575 296.31 426.575 297.83 424.585Z" fill="white"/>
<path d="M164.92 376.435C163.23 375.445 161.54 374.455 159.85 373.455C158.59 371.725 159.37 370.065 159.85 368.295C163.03 356.555 167.31 345.115 169.18 333.045C169.77 329.355 167.33 330.645 165.9 331.295C159.12 334.345 152.01 335.295 144.67 335.025C139.63 336.975 139.16 336.705 138.83 331.625C141.58 316.325 147.81 302.435 156.03 289.365C156.86 288.035 158.15 288.055 159.49 287.925C182.14 285.755 201.75 292.765 218.92 307.385C220.79 308.975 220.87 310.735 220.59 312.705C218.04 330.525 213.23 347.745 206.65 364.485C205.26 368.035 202.54 370.415 199.93 372.935C199.48 372.535 199.44 372.095 199.8 371.615C206.45 356.925 212.05 341.865 216.17 325.575C208.56 327.715 201.27 328.395 193.9 328.605C190.85 328.695 187.97 327.875 185 327.655C183.07 327.515 180.95 327.125 180.3 329.825C179.15 338.395 175.38 346.185 172.85 354.345C170.85 360.795 168.3 367.075 166.89 373.715C166.63 374.875 166.01 375.835 164.92 376.435Z" fill="white"/>
<path d="M164.92 376.435C167.12 364.895 171.62 354.115 175.5 343.105C177.06 338.665 177.84 333.945 180.3 329.815C189.93 333.195 199.76 333.695 210.92 330.955C206.64 340.925 203.02 349.715 199.1 358.365C195.89 365.435 192.42 372.385 188.86 379.285C187.71 381.515 187.7 382.945 190.12 383.985C191.12 385.645 190.43 387.295 190.11 388.945C190.18 389.195 190.1 389.365 189.86 389.455C188.32 390.815 187.41 392.585 186.84 394.495C184.35 402.765 179.79 410.175 176.91 418.285C175.96 420.945 174.52 423.665 171.55 424.415C168.89 425.085 165.74 425.685 164.94 421.545C165.96 421.035 167.01 420.575 168 420.005C174.81 416.095 175.13 410.525 168.82 405.975C166.19 404.075 163.55 402.195 159.8 399.515C166.36 400.365 170.48 398.425 173.8 394.515C177.23 390.465 176.85 385.165 172.65 381.875C170.16 379.935 167.5 378.245 164.92 376.435Z" fill="#F7E828"/>
<path d="M134.72 371.715C132.26 373.465 130.51 377.005 126.98 379.145C122.33 381.975 117.41 382.295 112.55 383.465C110.68 383.915 109.86 383.075 109.95 381.055C110.13 377.055 111.93 374.155 115.56 372.515C120.8 370.145 126.24 368.165 131.31 365.475C134.08 364.015 136.2 365.275 138.24 366.115C149.05 370.565 159.44 375.885 169.1 382.515C172.3 384.715 174.8 387.355 172.6 391.605C170.4 395.835 167.17 396.765 162.08 394.445C157.63 392.415 152.76 391.475 148.63 388.485C147 387.305 145.46 386.405 144.98 384.495C144.44 382.365 143.02 381.365 141.28 380.235C138.16 378.225 136.2 375.195 134.72 371.715Z" fill="#FBFAFA"/>
<path d="M169.92 332.755C170.9 340.495 167.08 347.275 165.44 354.475C163.98 360.895 161.74 367.145 159.85 373.465C154.15 370.575 148.55 367.465 142.55 365.175C141.42 364.745 139.5 364.535 139.63 362.945C139.77 361.215 141.65 361.085 143.07 360.655C145.11 360.025 147.23 359.465 149.1 358.475C152.5 356.665 154.85 354.045 154.32 349.765C153.79 345.525 151.45 342.875 147.39 341.675C146.13 341.305 144.88 340.895 143.63 340.495C141.3 336.535 143.37 334.935 147.01 334.155C152.97 334.545 158.77 333.695 164.46 331.945C166.41 331.335 168.32 331.035 169.92 332.755Z" fill="#F3E62B"/>
<path d="M136.88 436.845C143.32 435.215 147.81 432.245 148.85 425.805C149.14 424.025 150.14 424.985 150.97 425.285C158.64 428.135 166.32 430.965 173.99 433.825C175.73 434.475 176.38 435.525 176.17 437.615C175.44 445.035 172.84 446.825 165.23 446.285C155.26 445.575 146.62 441.315 136.88 436.845Z" fill="#FDFDFC"/>
<path d="M130.43 362.565C123.44 366.085 123.61 366.035 121.85 359.505C121.06 356.545 120.9 353.635 120.94 350.655C121.03 344.475 124.28 342.265 130.41 343.345C134.73 344.105 139.17 342.175 143.66 343.505C145.54 344.065 147.49 344.505 149.11 345.515C152.58 347.685 152.89 352.335 149.94 354.865C143.08 360.745 134.07 359.685 129.01 352.305C127.59 350.235 126.55 349.885 124.27 351.555C122.02 353.195 121.26 354.295 123.49 356.265C125.83 358.345 125.67 362.745 130.43 362.565Z" fill="#FAFAFA"/>
<path d="M200.13 395.535C199.52 390.095 205.15 387.635 205.56 384.505C206.01 381.085 203.22 376.885 204.93 372.645C206.51 368.725 209.59 366.255 213.17 364.545C215.19 363.585 217.39 364.535 219.06 366.135C221.14 368.125 221.27 370.575 220.26 373.025C217.28 380.255 214.01 387.275 206.66 391.295C204.49 392.475 202.5 393.975 200.13 395.535Z" fill="#F7F8F5"/>
<path d="M164.93 421.535C169.87 425.555 173.48 423.815 175.89 417.325C179.07 408.745 182.91 400.395 186.74 392.065C187.17 391.135 187.83 389.105 189.85 389.455C184.12 402.535 181.55 416.585 177.54 430.435C168.66 427.445 159.82 424.885 151.31 421.475C145.75 419.245 141.02 415.075 134.85 414.055C134.14 413.935 133.73 413.315 133.93 412.575C134.21 411.545 134.78 411.515 135.76 411.915C141.48 414.285 147.87 414.755 153.17 418.375C156.66 420.745 160.72 421.555 164.93 421.535Z" fill="#F4F4E1"/>
<path d="M329.44 231.755C327.96 234.165 326.94 236.735 325.6 239.925C328.34 238.355 329.74 236.155 332.75 235.475C330.06 240.735 327.6 245.685 324.99 250.555C324.24 251.955 323.37 253.545 321.15 252.095C318.37 250.275 320.89 249.405 321.72 248.365C323.35 246.315 323.76 243.995 323.96 241.465C324.27 237.475 325.6 233.905 329.44 231.755Z" fill="#EFEEEE"/>
<path d="M189.03 400.555C190.89 391.165 196.22 383.565 201.7 376.045C197.67 384.315 194.49 393.025 188.95 400.505L189.03 400.555Z" fill="#E1E0E0"/>
<path d="M145.69 334.795C143.33 336.085 143.17 338.175 143.63 340.485C135.71 340.925 135.52 340.565 138.83 331.605C139.47 335.105 140.89 336.605 144.04 333.615C144.35 334.345 145.53 333.845 145.69 334.795Z" fill="#F0F1D3"/>
<path d="M312.84 138.715C313.56 137.845 314.16 136.815 315.03 136.145C316.69 134.865 318.51 133.785 320.94 133.325C318.61 135.505 316.28 137.685 313.95 139.855C313.59 139.475 313.22 139.095 312.84 138.715Z" fill="#4B4B4C"/>
<path d="M190.1 388.945C190.1 387.295 190.1 385.635 190.11 383.985C191.01 384.465 191.89 384.395 193.16 384.175C192.14 385.755 191.12 387.355 190.1 388.945Z" fill="#DDD7AD"/>
<path d="M188.95 400.505C189.61 402.335 188.29 403.555 187.26 405.525C187.16 403.195 187.23 401.595 189.03 400.555L188.95 400.505Z" fill="#858B76"/>
<path d="M199.8 371.605C199.84 372.045 199.88 372.485 199.93 372.925C199.92 374.145 199.36 374.975 198.1 375.505C197.94 373.785 198.6 372.585 199.8 371.605Z" fill="#A9B290"/>
<path d="M192.12 247.475C192.36 251.075 190.45 252.085 187.19 251.705C185.9 251.555 184.26 251.385 183.67 252.865C183.21 254.015 184.62 254.355 185.37 254.945C187.23 256.385 186.07 257.045 184.63 257.635C178.67 260.085 172.34 258.965 166.18 259.485C164.96 259.585 164.01 258.485 164.1 257.135C164.23 255.235 165.71 254.385 167.2 253.555C168.39 252.895 169.46 253.595 170.59 253.615C171.76 253.645 173.31 253.585 173.18 252.075C173.06 250.625 171.56 250.505 170.4 250.985C166.73 252.515 165.99 250.375 165.8 247.465C173.03 231.375 180.25 215.275 187.48 199.185C187.92 199.245 188.36 199.305 188.8 199.365C189.92 215.405 191.02 231.435 192.12 247.475Z" fill="#F7E928"/>
<path d="M155.86 190.695C158.31 193.655 161.84 191.925 164.78 192.715C164.83 205.535 164.91 218.355 164.93 231.175C164.94 234.805 162.75 237.605 161.07 241.335C158.32 237.435 155.71 233.925 155.66 229.635C155.52 216.655 155.77 203.675 155.86 190.695Z" fill="#070607"/>
<path d="M155.84 164.725C160.06 163.945 163.83 167.025 163.35 170.905C162.77 175.505 162.59 180.055 163.67 184.655C164.2 186.915 164.52 190.005 160.41 187.685C158.51 186.615 157.37 188.355 155.86 188.725C155.35 180.725 155.35 172.725 155.84 164.725Z" fill="#070607"/>
<path d="M257.71 455.965C258.18 455.475 258.65 454.975 259.12 454.485C261.65 454.885 262.12 456.325 261.12 458.485C260.43 458.515 259.73 458.535 259.04 458.565C258.6 457.695 258.16 456.825 257.71 455.965Z" fill="#040405"/>
<path d="M261.13 458.475C261.1 456.825 260.86 455.275 259.13 454.475C256.55 450.225 253.88 446.045 249.86 442.935C248.81 442.115 247.99 440.975 246.45 442.015C237.31 448.175 227.17 451.135 216.6 450.725C220.21 448.625 216.72 444.675 217.71 441.255C219.04 436.665 221.69 432.115 226.25 430.925C245.8 425.795 265.36 420.735 284.93 415.685C285.51 415.535 286.19 415.795 287.1 415.905C279.95 433.125 272.9 450.125 265.8 467.085C265.4 468.045 265.01 469.645 263.55 469.175C262.91 468.975 262.49 467.605 262.26 466.695C261.6 463.995 262.65 461.065 261.13 458.475Z" fill="#FFFFFE"/>
<path d="M297.83 424.585C298.49 426.585 298.49 428.585 297.83 430.575C295.26 430.695 293.8 429.685 293.91 426.895C294.03 424.055 296.15 424.715 297.83 424.585Z" fill="#040405"/>
<path d="M356.69 195.705C352.61 195.705 348.53 195.805 344.46 195.685C338.22 195.495 333.3 191.475 332.08 185.515C331.78 184.055 331.05 182.275 333.13 181.145C336.68 179.225 345.38 181.045 348.88 184.695C350.13 185.995 351.25 187.515 352.07 189.115C353.21 191.325 354.21 193.535 357.09 194.215C356.96 194.715 356.82 195.205 356.69 195.705Z" fill="#060708"/>
<path d="M350.28 140.025C361.67 139.335 369.23 148.215 368.65 160.865C365.9 159.945 363.13 158.975 359.8 160.965C362.44 151.345 360.84 143.855 350.28 140.025Z" fill="#0F0F0F"/>
<path d="M322.44 210.095C325.22 203.015 324.9 197.065 320.8 190.055C326.5 193.715 330.91 196.545 335.08 199.225C335.28 201.425 329.15 201.475 333.9 204.355C333.2 204.735 332.54 205.315 331.8 205.465C328.66 206.095 326 207.675 322.44 210.095Z" fill="#131314"/>
<path d="M393.78 228.585C398.82 232.615 399.24 238.535 396.11 246.805C394.57 250.855 392.51 252.855 387.77 251.105C392.87 244.545 394.32 236.955 393.78 228.585Z" fill="#111111"/>
<path d="M349.92 171.005C342.06 169.645 334.66 170.335 327.21 172.835C327.31 166.665 336.69 168.655 335.98 161.645C340.85 164.915 345.39 167.955 349.92 171.005Z" fill="#161616"/>
<path d="M118.88 424.905C120.19 422.375 121.41 419.745 124.47 418.505C124.26 422.065 124.04 425.515 118.88 424.905Z" fill="#484848"/>
<path d="M118.15 390.825C118.36 392.785 119.6 393.315 121.28 392.845C122.99 392.365 123.62 393.665 123.61 394.625C123.58 396.295 121.91 395.815 120.9 395.835C117.01 395.905 116.06 394.165 117.92 390.575C117.91 390.575 118.15 390.825 118.15 390.825Z" fill="#303030"/>
<path d="M167.76 410.915C166.37 414.385 164.43 417.065 160.1 416.355C163.31 415.375 165.48 413.055 167.76 410.915Z" fill="#3C3D3B"/>
<path d="M147.87 399.965C146.72 401.995 146.07 404.485 142.88 405.605C143.8 402.315 145.71 401.015 147.87 399.965Z" fill="#4F4F4F"/>
<path d="M104.56 422.035C107.2 421.775 108.48 420.365 109.82 421.755C110.14 422.085 109.85 423.625 109.38 423.975C107.77 425.155 106.94 423.515 104.56 422.035Z" fill="#2B2A2B"/>
<path d="M159.12 407.435C158.46 410.265 158.51 412.455 159.34 415.315C156.14 412.535 155.97 410.255 159.12 407.435Z" fill="#787878"/>
<path d="M141.53 424.825C142.51 427.865 141.2 429.355 138.71 430.275C139.59 428.575 140.47 426.875 141.53 424.825Z" fill="#4C4C4C"/>
<path d="M111.1 411.985C109.83 412.965 108.56 413.935 107.02 415.125C107.76 413.165 108.49 411.655 111.1 411.985Z" fill="#8A8A8A"/>
<path d="M252.21 223.565C249.47 224.315 247.87 220.815 245.68 223.515C242.92 226.925 243.14 228.465 247.18 230.275C251.71 232.305 255.87 234.885 260.26 238.425C256.05 238.385 253.59 235.075 250.1 235.075C249.35 239.385 249.26 243.185 255.85 241.955C253.65 242.925 251.51 243.075 249.54 243.535C244.06 244.805 244 244.555 243.43 250.305C243.01 245.105 239.8 243.165 235.34 241.895C231.75 240.865 230.3 237.595 232.82 234.455C236.78 229.525 235.86 223.975 235.88 218.465C235.88 217.475 235.69 216.485 235.65 215.495C235.54 213.145 235.49 209.965 237.33 209.145C239.62 208.125 240.05 211.775 241.69 212.985C242.32 213.455 242.78 214.165 243.73 215.225C243.93 213.135 244.09 211.465 244.34 208.795C246.36 214.585 248.84 219.215 252.21 223.565Z" fill="#09090A"/>
<path d="M238.89 271.635C242.59 278.635 246.63 283.965 252.04 288.135C253.18 289.015 252.95 290.165 252.91 291.285C252.69 297.575 252.51 303.875 252.16 310.155C252.06 312.025 252.19 313.655 253.05 315.385C255.02 319.335 256.6 323.445 256.73 328.945C254.08 322.655 252.64 316.895 248.35 312.445C246.93 310.975 247.61 308.225 248.09 306.205C250.13 297.615 249.47 289.915 242.79 283.185C240.24 280.605 238.98 276.775 238.89 271.635Z" fill="#131414"/>
<path d="M345.82 244.105C342.84 243.225 340.85 243.805 340.89 247.425C340.89 247.745 340.87 248.125 340.71 248.385C337.32 253.805 338.15 257.475 344.28 260.605C348.35 262.685 347.87 267.655 345.68 270.785C342.64 275.115 338.06 278.155 332.48 278.615C328.97 278.905 328.01 277.155 329.96 274.095C330.23 273.675 330.4 273.155 330.76 272.855C334.34 269.845 336.54 266.445 332.84 260.805C338.89 264.455 339.17 266.005 336.02 272.495C337.38 272.575 338.63 272.715 339.88 272.705C343.07 272.675 344.62 270.355 345.61 267.905C346.67 265.305 344.79 263.555 342.87 262.095C342.35 261.705 341.69 261.495 341.14 261.135C335.22 257.225 334.61 247.255 340.09 242.615C342.3 240.735 344.32 241.455 345.95 243.655L345.82 244.105Z" fill="#191A1A"/>
<path d="M277.27 243.375C275.49 243.765 273.65 244.435 272.56 242.775C266.57 233.565 251.71 230.885 253.48 216.355C253.29 216.315 253.71 216.315 253.74 216.425C256.1 224.985 262.42 230.035 269.48 234.535C272.84 236.665 275.8 239.325 277.27 243.375Z" fill="#181818"/>
<path d="M292.65 197.155C285.95 204.315 279.24 211.465 272.56 218.645C271.68 219.595 271.03 220.245 269.76 219.095C268.57 218.015 268.81 217.315 269.79 216.275C276.63 208.995 283.34 201.575 292.65 197.155Z" fill="#131313"/>
<path d="M264.47 329.335C263.58 323.405 262.79 318.265 262.05 313.115C261.91 312.135 262.11 311.225 262.52 310.255C263.34 308.335 264.21 306.215 266.59 306.805C268.78 307.345 268.39 309.775 268.11 311.395C267.08 317.155 265.8 322.875 264.47 329.335Z" fill="#0F1010"/>
<path d="M225.58 282.545C233.7 277.845 233.7 277.845 231.84 270.185C234.46 273.035 237.34 275.475 235.87 278.805C233.96 283.125 228.9 280.845 225.58 282.545Z" fill="#333434"/>
<path d="M261.65 255.555C261.22 261.575 257.62 264.695 251.19 264.365C255.24 261.755 258.95 259.425 261.65 255.555Z" fill="#282829"/>
<path d="M272.72 247.855C269.14 246.675 266.82 241.435 260.82 245.955C264.26 240.985 266.73 239.225 269.92 243.715C270.86 245.035 272.06 246.175 273.14 247.405C273 247.545 272.86 247.705 272.72 247.855Z" fill="#3A3A3A"/>
<path d="M344.95 282.125C346.71 280.265 348.47 278.395 350.97 275.755C350.18 279.855 347.84 281.195 344.95 282.125Z" fill="#4A4A4A"/>
<path d="M345.96 243.625C348.2 243.195 348.51 245.245 349.61 246.305C347.86 246.315 346.85 245.175 345.82 244.095C345.82 244.105 345.71 243.805 345.71 243.805L345.96 243.625Z" fill="#575656"/>
<path d="M273.14 247.395C274.49 247.755 275.19 248.835 276.15 250.215C274.45 249.845 273.38 249.165 272.72 247.855C272.86 247.705 273 247.555 273.14 247.395Z" fill="#3A3A3A"/>
<path d="M145.69 334.795C145.09 334.475 143.95 334.925 144.04 333.625C153.69 334.725 162.51 331.295 172.12 327.675C171.48 330.215 171.43 331.755 169.93 332.755C164.8 332.175 160.06 334.665 155.01 334.705C151.9 334.725 148.79 334.765 145.69 334.795Z" fill="#2E2B21"/>
<path d="M163.7 384.325C168.24 383.095 169.88 384.505 169.62 389.925C168.39 387.245 167.85 384.195 164.19 384.855C163.72 384.955 163.54 384.795 163.7 384.325Z" fill="#4A5356"/>
<path d="M164.19 384.845C163.32 385.725 162.45 386.615 161.22 387.865C160.99 385.405 162.03 384.625 163.7 384.325C163.84 384.525 164 384.695 164.19 384.845Z" fill="#494B49"/>
<path d="M141.33 345.775C142.46 346.725 141.67 348.325 142.95 349.145C143.41 349.435 146.02 349.185 144.19 351.065C142.75 352.535 141.82 351.105 141.03 350.165C139.99 348.925 139.83 347.515 141.33 345.775Z" fill="#353437"/>
<path d="M241.92 229.945C245.17 233.395 243.6 237.255 245.2 240.135C245.54 240.755 244.33 240.695 243.79 240.705C242.76 240.745 241.88 240.575 241.91 239.165C241.95 236.435 241.92 233.695 241.92 229.945Z" fill="#F9F9F9"/>
</svg>
