<?xml version="1.0" encoding="utf-8"?>
<!-- Generator: Adobe Illustrator 26.5.0, SVG Export Plug-In . SVG Version: 6.00 Build 0)  -->
<svg version="1.1" id="Camada_1" xmlns="http://www.w3.org/2000/svg" xmlns:xlink="http://www.w3.org/1999/xlink" x="0px" y="0px"
	 viewBox="0 0 640 640" style="enable-background:new 0 0 640 640;" xml:space="preserve">
<style type="text/css">
	.st0{fill:#7F6F1B;}
	.st1{fill:#080709;}
	.st2{fill:#121211;}
	.st3{fill:#13110F;}
	.st4{fill:#131110;}
	.st5{fill:#161311;}
	.st6{fill:#141210;}
	.st7{fill:#13120C;}
	.st8{fill:#151312;}
	.st9{fill:#151310;}
	.st10{fill:#161312;}
	.st11{fill:#17150F;}
	.st12{fill:#151410;}
	.st13{fill:#131310;}
	.st14{fill:#1A1713;}
	.st15{fill:#15130C;}
	.st16{fill:#35331E;}
	.st17{fill:#1F1814;}
	.st18{fill:#D3D47E;}
	.st19{fill:#DFD6A7;}
	.st20{fill:#F5E729;}
	.st21{fill:#F5E728;}
	.st22{fill:#060608;}
	.st23{fill:#F7E928;}
	.st24{fill:#F7E827;}
	.st25{fill:#EFE334;}
	.st26{fill:#EAE136;}
	.st27{fill:#F4E534;}
	.st28{fill:#EEE232;}
	.st29{fill:#ECE134;}
	.st30{fill:#ECE232;}
	.st31{fill:#EDE235;}
	.st32{fill:#ECE132;}
	.st33{fill:#EBE134;}
	.st34{fill:#ECE137;}
	.st35{fill:#EBE12E;}
	.st36{fill:#ECE237;}
	.st37{fill:#ECE234;}
	.st38{fill:#EEE334;}
	.st39{fill:#EEE234;}
	.st40{fill:#F3E433;}
	.st41{fill:#ECE235;}
	.st42{fill:#EEE237;}
	.st43{fill:#F1E430;}
	.st44{fill:#EEE233;}
	.st45{fill:#EEE235;}
	.st46{fill:#EBE235;}
	.st47{fill:#EDE234;}
	.st48{fill:#EFE235;}
	.st49{fill:#F1E434;}
	.st50{fill:#EDE232;}
	.st51{fill:#DBD98A;}
	.st52{fill:#E6E38A;}
	.st53{fill:#DDDC80;}
	.st54{fill:#EEEBAA;}
	.st55{fill:#E4E38A;}
	.st56{fill:#111111;}
	.st57{fill:#E6E6E6;}
	.st58{fill:#EFEEEF;}
	.st59{fill:#E2E1E0;}
	.st60{fill:#E8E7E8;}
	.st61{fill:#E9E8E8;}
	.st62{fill:#E7E6E8;}
	.st63{fill:#E4E4E4;}
	.st64{fill:#E9E8EA;}
	.st65{fill:#E1E0E0;}
	.st66{fill:#D9D8D4;}
	.st67{fill:#DCDBDB;}
	.st68{fill:#E9E8E9;}
	.st69{fill:#CBC478;}
	.st70{fill:#D0CCD0;}
	.st71{fill:#E5E4E4;}
	.st72{fill:#DAD9D9;}
	.st73{fill:#C4C2C6;}
	.st74{fill:#D4D3D3;}
	.st75{fill:#C8C6C7;}
	.st76{fill:#E3E2E2;}
	.st77{fill:#C0BFBF;}
	.st78{fill:#CAC6C7;}
	.st79{fill:#B7B5B5;}
	.st80{fill:#F0F0F0;}
	.st81{fill:#D5D8DB;}
	.st82{fill:#F0EFEF;}
	.st83{fill:#DDDADD;}
	.st84{fill:#040405;}
	.st85{fill:#0A0A0C;}
	.st86{fill:#F2E531;}
	.st87{fill:#070607;}
	.st88{fill:#0F0D11;}
	.st89{fill:#14130F;}
	.st90{fill:#FFFFFF;}
	.st91{fill:#080909;}
	.st92{fill:#E4E4E0;}
	.st93{fill:#F5F2E2;}
	.st94{fill:#080808;}
	.st95{fill:#FDFDFD;}
	.st96{fill:#FDFDFC;}
	.st97{fill:#F4F4EB;}
	.st98{fill:#F7E828;}
	.st99{fill:#FBFAFA;}
	.st100{fill:#F3E62B;}
	.st101{fill:#FAFAFA;}
	.st102{fill:#F7F8F5;}
	.st103{fill:#F4F4E1;}
	.st104{fill:#EFEEEE;}
	.st105{fill:#F0F1D3;}
	.st106{fill:#4B4B4C;}
	.st107{fill:#DDD7AD;}
	.st108{fill:#858B76;}
	.st109{fill:#A9B290;}
	.st110{fill:#FFFFFE;}
	.st111{fill:#060708;}
	.st112{fill:#0F0F0F;}
	.st113{fill:#131314;}
	.st114{fill:#161616;}
	.st115{fill:#484848;}
	.st116{fill:#303030;}
	.st117{fill:#3C3D3B;}
	.st118{fill:#4F4F4F;}
	.st119{fill:#2B2A2B;}
	.st120{fill:#787878;}
	.st121{fill:#4C4C4C;}
	.st122{fill:#8A8A8A;}
	.st123{fill:#09090A;}
	.st124{fill:#131414;}
	.st125{fill:#191A1A;}
	.st126{fill:#181818;}
	.st127{fill:#131313;}
	.st128{fill:#0F1010;}
	.st129{fill:#333434;}
	.st130{fill:#282829;}
	.st131{fill:#3A3A3A;}
	.st132{fill:#4A4A4A;}
	.st133{fill:#575656;}
	.st134{fill:#2E2B21;}
	.st135{fill:#4A5356;}
	.st136{fill:#494B49;}
	.st137{fill:#353437;}
	.st138{fill:#F9F9F9;}
</style>
<g>
	<g>
		<path class="st0" d="M0.52,638.83c213.27,0,426.54,0,639.81,0c-0.22,0.31,0.51,1.04-0.5,1.01c-1.33-0.04-2.67-0.01-4-0.01
			c-210.27,0-420.54,0-630.82-0.06C3.55,639.77,1.63,640.92,0.52,638.83z"/>
		<path class="st1" d="M576.35,321.76c0.48,139.16-111.97,252.75-250.67,254.91c-146.89,2.29-260.21-115.82-260.27-255.2
			C65.36,179.83,180.78,66.03,320.79,65.88C462.56,65.74,577.71,182.01,576.35,321.76z"/>
		<path class="st2" d="M83.2,157.91c4.43,4.19,8.47,8.64,14.52,10.76c-1.19,1.66-2.33,3.25-3.5,4.87
			c-0.83-4.82-16.43-16.39-21.2-15.76c4.39-6.79,4.38-6.76,12.24-4.79c3.62,0.91,7.28,1.67,11.59,2.65
			c-2.24-3.79-4.11-7.04-6.06-10.24c-4.12-6.75-4.14-6.74,1.04-13.06c1.29,5.15,5.98,6.93,9.68,9.4c3.51,2.34,5.95,7.41,12.14,5.39
			c-2.25,3.13-4.21,5.85-6.18,8.59c-3.03-6.32-9.46-8.42-14.87-12.04c2.89,4.8,5.75,9.63,8.7,14.4c0.78,1.27,2.1,2.49,1.12,3.97
			c-1.18,1.78-2.76,0.05-3.99-0.21C93.31,160.73,88.27,159.25,83.2,157.91z"/>
		<path class="st3" d="M299.43,52.69c3.83-1.9,7.5-3.64,9.2-7.91c2.57-6.43,1.19-13.6-3.68-17.58c-4.06-3.31-12.59-3.35-17.75-0.08
			c-4.51,2.86-6.88,9.11-5.66,14.91c1.27,6.03,4.69,9.47,10.47,10.24c2.6,0.35,4.28,1.45,5.92,3.67c4.41,5.99,10.83,5.13,13.48-1.49
			C307.33,54.83,303.02,56.7,299.43,52.69z M292.32,49.58c-1.79-1.14-2.82-2.8-3.46-4.66c-0.24-0.44-0.42-0.95-0.5-1.54
			c-0.06-0.38-0.11-0.77-0.16-1.16c-0.1-0.59-0.18-1.17-0.24-1.76c-0.14-0.79-0.29-1.57-0.3-2.37c-0.01-1.36,0.26-2.69,0.23-4.06
			c-0.02-0.7,0.12-1.36,0.37-1.96c0.04-0.37,0.1-0.74,0.22-1.1c0.67-2.04,2.48-3.74,4.7-3.85c1.62-0.75,3.47-0.82,5.34,0.27
			c2.07,1.21,3.57,3.55,4.09,5.87c0,0,0,0,0,0c0.07,0.18,0.13,0.37,0.17,0.57c0.04,0.17,0.08,0.34,0.11,0.51
			c0.04,0.17,0.05,0.35,0.07,0.52c0.27,0.6,0.43,1.29,0.46,2.08c0.09,2.4,0.17,4.68-0.06,7.08c-0.06,0.62-0.22,1.17-0.43,1.69
			c-0.13,0.55-0.32,1.05-0.58,1.49c0,0,0,0,0,0c-0.01,0.02-0.02,0.03-0.03,0.04c-0.07,0.12-0.14,0.24-0.22,0.35
			c-0.09,0.14-0.17,0.28-0.26,0.41c-0.79,1.12-1.74,1.82-2.72,2.19C297.01,51.16,294.43,50.91,292.32,49.58z"/>
		<path class="st4" d="M124.58,102.14c-6.36-0.25-14.8,8.04-15.12,14.86c-0.33,6.96,6.72,14.75,13.68,15.12
			c7,0.38,15.01-7.08,15.31-14.24C138.77,110.6,131.54,102.41,124.58,102.14z M133.29,124.52c-0.11,0.2-0.23,0.39-0.36,0.56
			c-0.17,0.24-0.38,0.42-0.6,0.59c-0.08,0.08-0.16,0.16-0.24,0.23c-0.1,0.25-0.3,0.43-0.56,0.58c-0.02,0.09-0.06,0.18-0.13,0.26
			c-0.27,0.31-0.62,0.43-0.99,0.49c-0.07,0.07-0.14,0.14-0.25,0.18c-0.81,0.3-1.73,0.26-2.58,0.34c-0.82,0.08-1.46-0.07-2.17-0.37
			c-0.76-0.21-1.49-0.52-2.18-0.86c-1.62-0.81-2.96-1.96-4.23-3.24c-1.34-1.35-2.56-2.66-3.64-4.24c-0.79-1.15-1.59-2.26-1.86-3.61
			c-0.51-0.93-0.47-2.36-0.22-3.33c0.19-0.75,0.58-1.45,1.03-2.08c0.21-0.3,0.47-0.55,0.73-0.78c0.03-0.03,0.06-0.07,0.09-0.1
			c0.02-0.02,0.03-0.02,0.05-0.03c0.03-0.03,0.06-0.05,0.09-0.08c0.62-1.11,2.2-1.83,3.35-2.22c0.68-0.23,1.44-0.32,2.15-0.38
			c0.8-0.06,1.49,0.27,2.18,0.64c1.6,0.85,3.16,1.8,4.63,2.87c0.66,0.48,1.23,1.05,1.83,1.58c0.59,0.52,1.22,0.99,1.75,1.58
			c0.11,0.12,0.15,0.28,0.15,0.43c1.48,1.46,2.61,3.27,3.14,5.29c0.25,0.96,0.41,2.05,0.2,3.04
			C134.45,122.78,133.85,123.75,133.29,124.52z"/>
		<path class="st5" d="M154.85,107.63c0.64-4.95-10.99-20.92-15.08-20.88c3.93-4.73,4.75-4.98,10.11-3.38
			c5.18,1.54,10.38,3.03,16.85,4.91c-4.5-4.77-5.39-11.12-12.05-12.89c2.02-1.44,3.99-2.83,5.95-4.23
			c-1.22,2.85,0.44,4.72,1.85,6.68c3.19,4.44,6.41,8.85,9.48,13.37c0.66,0.98,2.16,2.19,1.05,3.45c-0.89,1.01-2.5,0.61-3.79,0.23
			c-6.76-1.98-13.52-3.98-20.68-5.45c3.86,4.81,5.23,11.48,11.61,14.26C158.94,105.39,156.73,106.19,154.85,107.63z"/>
		<path class="st6" d="M435.34,47c2.93,1.39,5.86,2.77,9.34,4.42c-1.82,0.96-3.55,0.81-4.27,2.57c-1.91,4.71-3.99,9.36-6.11,13.98
			c-1.61,3.52-0.12,5.67,2.89,7.27c3.21,1.71,6.49,1.47,8.32-1.61c2.84-4.78,4.89-10.02,7.44-14.98c0.84-1.63-1.35-1.99-1-3.46
			c2.63,0.59,4.97,1.58,7.58,3.69c-3.25-0.03-4.46,1.53-5.44,3.97c-1.59,3.95-3.49,7.86-5.79,11.44c-3.01,4.68-8.2,5.47-13.56,2.59
			c-5.74-3.09-7.56-7.04-5.41-12.58c1.49-3.82,3.32-7.52,5.17-11.19C435.5,51.14,436.37,49.32,435.34,47z"/>
		<path class="st7" d="M346.19,26.22c2.89-0.69,5.01-0.46,8.2,0.2c-3.94,1.14-3.94,3.71-3.97,6.3c-0.05,4.46,0.32,8.96-1.14,13.3
			c-1.71,5.1-5.34,6.88-12.48,6.15c-4.83-0.49-8.29-3.85-8.44-8.74c-0.14-4.47-0.35-8.97,0.64-13.4c0.5-2.21,0.76-4.34-2.5-5.29
			c3.74-0.26,7.07-0.95,10.93,0.56c-1.11,1-2.54,1.49-2.6,3c-0.21,5.59-1.21,11.14-0.54,16.78c0.39,3.3,2.5,4.6,5.29,4.96
			c3.06,0.4,5.46-0.76,6.77-3.83c1.7-3.99,0.93-8.18,1.12-12.28C347.6,31.37,350.03,28.5,346.19,26.22z"/>
		<path class="st8" d="M399.64,34.9c6.07,1.87,11.83,3.64,17.84,5.48c-1.06,2.07-1.95,3.8-2.84,5.54c-0.38-4.88-3.67-6.03-7.5-6.4
			c-0.76-0.07-3.56,8.56-2.9,9.05c2.15,1.59,4.36,1.65,6.23-0.65c1.15,1.63-0.17,2.73-0.24,3.96c-0.06,1.05-0.79,2.07-1.35,3.43
			c-0.81-2.87-2.16-4.67-5.08-4.09c-1.3,0.26-3.96,8.57-2.95,9.28c3.84,2.69,7.52,2.49,10.92-2.2c-1.55,7.77-1.56,7.79-7.78,5.83
			c-4.07-1.28-8.11-2.64-12.42-4.04C395.69,57.81,401.66,39.34,399.64,34.9z"/>
		<path class="st9" d="M219.33,70.57c2.88-4.74-4.05-23.3-8.93-24.95c4.62-1.64,8.94-3.11,13.21-4.71c6.04-2.27,6.06-2.28,5.58,5.64
			c-2.04-5.03-4.95-3.95-8.2-2.61c-1.68,0.69-1.54,1.42-0.94,2.54c1.24,2.32,0.73,6.02,3.8,6.78c2.23,0.55,3.85-1.35,3.66-4.39
			c2.3,2.09,2.75,4.39,3.18,8c-2.27-3.25-5.19-2.95-6.23-1.41c-1.68,2.47,1.06,5.01,1.7,7.58c0.35,1.42,0.89,2.31,2.75,1.91
			c3.93-0.85,6.35-2.73,5.54-7.43c4.14,3.96,3.83,6.38-0.69,7.99C229.29,67.1,224.81,68.65,219.33,70.57z"/>
		<path class="st10" d="M252.03,52.13c2.13,2.01,2.48,6.67,6.88,4.6c1.88-0.88,3.54-1.96,3.47-4.33c-0.07-2.27-1.39-3.64-3.53-4.22
			c-1.91-0.51-3.85-0.91-5.74-1.48c-3.35-1-5.34-3.23-5.66-6.77c-0.3-3.42,1.64-5.59,4.28-7.3c2.6-1.68,5.76-2.28,8.57-2.06
			c4.67,0.36,0.57,4.24,2.92,6.21c-2.07-0.07-2.61-0.69-2.87-1.51c-0.7-2.16-2.21-2.72-4.26-2.22c-1.95,0.47-3.37,1.7-3.57,3.67
			c-0.23,2.26,1.14,3.72,3.28,4.35c1.88,0.56,3.83,0.93,5.68,1.55c3.38,1.13,5.79,3.14,5.95,7.05c0.16,3.8-1.8,6.29-4.98,7.89
			c-1.45,0.73-3.09,1.22-4.7,1.47C251.56,60.02,250.87,59.2,252.03,52.13z"/>
		<path class="st11" d="M197.16,60.39c-1.42-1.92-1.89-2.6-2.41-3.24c-1.71-2.13-3.27-0.51-4.81,0.25
			c-2.57,1.27-0.24,2.47,0.24,3.45c2.39,4.9,5.06,9.66,7.41,14.58c1.02,2.15,2.21,3.08,4.74,1.94c-2.69,3.4-6.77,3.94-10.21,6.18
			c2.05-2.82,0.56-5.03-0.63-7.31c-2.05-3.95-3.99-7.97-6.13-11.88c-0.74-1.35-0.77-3.92-3.58-2.88c-2.56,0.95-3.9,2.41-2.48,5.26
			c0.19,0.37-0.03,0.95-0.06,1.48c-4.97-3.38-4.99-5.36-0.19-7.79c3.83-1.94,7.65-3.9,11.49-5.81
			C196.4,51.69,196.55,51.8,197.16,60.39z"/>
		<path class="st12" d="M492.86,79.28c4.07,3.02,7.5,5.6,10.97,8.13c5.2,3.8,5.21,3.78-0.6,7.55c-0.81-1.92,2.51-4.29-0.66-5.93
			c-1.44-0.74-2.97-3.11-4.22-2.02c-2.31,2.01-4.48,4.69-5.38,7.51c-0.3,0.94,3.28,3.93,6.77,0.19c-0.98,3.92-2.82,5.63-5.33,8.02
			c0.38-3.39-0.24-5.82-3.07-6.21c-2.09-0.29-5.85,7.59-5,10.7c-3.42-1.82-6.12-4.04-8.84-6.6
			C482.67,99.71,494.09,84.13,492.86,79.28z"/>
		<path class="st13" d="M564.18,163.15c0.8-2.83,4.46-4.8,1.27-7.69c-2.81-2.55-5.51-4.13-9.76-2.47
			c-11.05,4.32-12.89,12.05-4.64,21.35c-4.75-0.82-8.8-4.94-9.71-9.88c-1.23-6.65,1.38-11.91,7.58-15.28
			c4.78-2.59,11.24-1.83,15.19,1.95c1.43,1.37,2.7,2.94,3.8,4.59C571.55,161.18,571.41,161.43,564.18,163.15z"/>
		<path class="st14" d="M534.81,124.1c-3.16-1.8-5.5-0.82-6.8,2.28c-0.81,1.93-1.23,3.07-3.93,2.85c-4.97-0.4-7.63,3.93-4.8,8.23
			c2.83,4.3,6.74,7.88,10.94,12.62c-1.81-6.59-0.75-7.88,7.01-9.89c-1.17-1.36-2.25-2.61-3.98-4.62c1.08,3.8-0.72,4.68-3.1,5.6
			c0.15-2.84,0.27-5.29,0.42-8.1c2.86,1.02,6.03,1.96,7.52-1.17C539.66,128.58,537.95,125.88,534.81,124.1z M526.92,134.71
			c-0.08,0.33-0.16,0.66-0.22,0.99c-0.01,0.03-0.01,0.07-0.02,0.1c-0.01,0.12-0.02,0.24-0.03,0.36c-0.1,1.23-0.13,2.57-0.85,3.63
			c-0.52,0.77-1.41,0.84-2.11,0.27c-0.54-0.44-0.99-1.02-1.35-1.61c-0.36-0.59-0.67-1.31-0.61-2.02c0.05-0.62,0.32-1.13,0.72-1.57
			c0.01-0.32,0.14-0.64,0.38-0.87c0.03-0.03,0.06-0.04,0.09-0.07c0.33-0.86,1.13-1.56,1.79-2.21c0.3-0.51,0.93-0.72,1.49-0.59
			c0.61,0.14,0.93,0.72,0.99,1.29C527.26,133.19,527.09,133.97,526.92,134.71z M536.3,128.7c-0.01,0.04-0.02,0.08-0.03,0.12
			c-0.07,0.22-0.16,0.44-0.28,0.64c-0.12,0.2-0.27,0.39-0.42,0.57c-0.07,0.08-0.14,0.16-0.22,0.23c-0.18,0.16-0.37,0.31-0.57,0.44
			c-0.09,0.06-0.18,0.11-0.27,0.15c-0.21,0.1-0.43,0.2-0.66,0.26c-0.11,0.03-0.23,0.04-0.35,0.05c-0.11,0.01-0.23,0.04-0.34,0.04
			c-0.18,0-0.37-0.04-0.55-0.07c-0.04-0.01-0.08-0.01-0.11-0.03c-0.22-0.05-0.4-0.15-0.56-0.3c-0.12-0.07-0.22-0.17-0.3-0.3
			c-0.15-0.16-0.25-0.35-0.3-0.56c-0.02-0.15-0.04-0.29-0.06-0.44c0.01-0.2,0.04-0.4,0.09-0.59c-0.04-0.18-0.05-0.36-0.01-0.54
			c0.01-0.22,0.08-0.43,0.2-0.62c0.04-0.07,0.08-0.13,0.13-0.2c0.14-0.18,0.27-0.36,0.42-0.53c0.23-0.26,0.5-0.46,0.77-0.67
			c0.07-0.05,0.14-0.1,0.21-0.14c0.04-0.02,0.07-0.04,0.11-0.06c0.16-0.07,0.32-0.15,0.48-0.2c0.03-0.01,0.07-0.02,0.1-0.03
			c0.15-0.03,0.32-0.05,0.47-0.06c0.02,0,0.03,0,0.05,0c0.09,0,0.19,0.02,0.26,0.03c0.07,0.01,0.17,0.02,0.26,0.04
			c0.16,0.04,0.32,0.11,0.46,0.19c0.01,0.01,0.03,0.02,0.04,0.03c0.11,0.07,0.27,0.19,0.36,0.28c0.01,0.01,0.02,0.02,0.03,0.03
			c0.1,0.11,0.2,0.24,0.28,0.36c0.12,0.18,0.2,0.39,0.26,0.61c0.02,0.06,0.02,0.11,0.03,0.17c0.03,0.18,0.07,0.36,0.06,0.54
			C536.36,128.33,536.33,128.52,536.3,128.7z"/>
		<path class="st15" d="M381.82,30.53c-4.14,2.71-7.73,21.05-5.13,25.39c-3.59,1.1-6.7-1.03-10.29-1.18
			c4.35-3.52,7.48-22.61,4.11-26.29C374.39,29.16,377.87,29.8,381.82,30.53z"/>
		<path class="st16" d="M504.45,117.09c2.04-0.22,3.37,0.83,3.52,2.66c0.15,1.9-1.2,3.06-3.11,3.14c-2.05,0.09-3.19-1.44-3.16-3.1
			C501.72,118.61,502.42,116.82,504.45,117.09z"/>
		<path class="st17" d="M563.42,190.66c-0.24,1.83-1.17,2.85-3.17,2.86c-1.89,0.01-2.68-1.17-2.78-2.71
			c-0.11-1.64,0.8-2.75,2.59-2.88C562.01,187.78,563.12,188.67,563.42,190.66z"/>
		<path class="st18" d="M304.23,566.26c-25.3-1.46-49.78-6.81-73.23-16.31c-61.97-25.11-106.89-68.2-134.76-128.96
			c-9.35-20.37-15.67-41.78-18.58-63.93c-6.75-51.37,0.18-100.72,24.24-147.08c30.56-58.89,77.39-99.22,139.83-121.32
			c18.09-6.4,36.85-10.13,56.09-11.8c13.98-1.21,27.94-1.7,41.82-0.6c36.03,2.84,70.18,12.56,101.59,30.72
			c59.49,34.4,98.86,84.5,117.36,150.9c7.67,27.54,9.76,55.63,7.41,83.8c-4.49,53.88-24.69,101.45-60.71,142.1
			c-32.49,36.67-72.32,61.56-119.52,74.58c-14.68,4.05-29.61,6.96-44.9,7.57c-2.14,0.09-4.26,0.43-6.39,0.66
			c0.03-1.66,1.32-2.09,2.52-2.62c14.96-2.34,30.02-3.96,44.74-7.78c39.33-10.21,73.76-29.18,103.71-56.63
			c20.35-18.66,37.03-40.12,49.98-64.39c10.78-20.21,18.81-41.5,23.09-64.15c3.22-17.04,5.81-34.13,5.45-51.51
			c-0.49-23.92-4.07-47.37-11.13-70.29c-12.82-41.59-35.54-77.06-67.39-106.37C448.69,109,405.35,88.33,355.64,81.3
			c-13.55-1.92-27.13-3.34-40.78-2.74c-31.38,1.38-61.73,7.6-90.67,20.16c-24.06,10.44-45.58,24.7-65.18,42.08
			c-26.75,23.73-46.97,52.14-61.15,84.79c-9.67,22.27-15.91,45.57-18.12,69.83c-3.18,34.88-0.5,69.22,10.75,102.54
			c10.01,29.65,25.07,56.53,45.62,80.29c15.68,18.13,33.26,34.09,53.45,47.03c24.33,15.6,50.55,26.81,78.94,32.75
			c9.63,2.01,19.31,3.59,29.08,4.71c2.43,0.28,5.02,0.35,7.06,2.09C304.81,565.4,304.67,565.87,304.23,566.26z"/>
		<path class="st19" d="M304.23,566.26c0.11-0.45,0.22-0.9,0.33-1.35c4.7-2.41,27.21-2.38,31.77,0.05
			c-0.62,0.54-1.23,1.09-1.85,1.63C324.39,566.83,314.3,567.48,304.23,566.26z"/>
		<path class="st20" d="M303.49,41.02c0.01-0.18,0.02-0.36,0.03-0.53c0.02-0.94,0-1.86-0.09-2.77
			C303.47,38.83,303.5,39.92,303.49,41.02z"/>
		<path class="st20" d="M302.92,45.72c-0.13,0.55-0.32,1.05-0.58,1.49c0,0,0,0,0,0c-0.01,0.02-0.02,0.03-0.03,0.04
			c-0.07,0.12-0.14,0.24-0.22,0.35c-0.09,0.14-0.17,0.28-0.26,0.41c-0.56,0.79-1.2,1.37-1.87,1.77c1.59-0.86,2.6-2.35,3.1-4.36
			c0.02-0.07,0.02-0.15,0.04-0.22C303.04,45.38,302.99,45.56,302.92,45.72z"/>
		<path class="st21" d="M122.96,107.08c1.32,0.7,2.59,1.48,3.82,2.33c-0.89-0.63-1.82-1.23-2.79-1.81
			c-0.36-0.21-0.71-0.39-1.06-0.53C122.94,107.07,122.95,107.08,122.96,107.08z"/>
		<path class="st21" d="M119.01,123.29c-0.92-0.92-1.77-1.83-2.56-2.81c1.04,1.35,2.18,2.6,3.48,3.68
			C119.62,123.88,119.31,123.59,119.01,123.29z"/>
		<path class="st22" d="M336.33,564.95c-10.59-0.02-21.18-0.03-31.77-0.05c-21.95-1.97-43.59-5.81-64.33-13.24
			c-28.26-10.12-54.09-24.69-76.96-44.37c-37.4-32.18-63.23-71.69-77.07-119.13c-8.34-28.58-11.29-57.89-8.37-87.17
			c8.52-85.4,50.76-149.8,124.82-193.06c22.68-13.24,47.4-21.71,73.23-26.42c28.61-5.21,57.24-5.49,86.08-0.58
			c40.32,6.87,76.61,22.6,108.67,47.73c41.51,32.56,70.12,74.06,84.84,124.99c7.48,25.9,10.81,52.26,9.42,79.07
			c-2.41,46.57-16.59,89.34-43.43,127.69c-24.76,35.38-56.67,62.47-95.53,81.19c-20.76,10-42.59,16.92-65.47,20.23
			C352.43,562.99,344.37,563.92,336.33,564.95z"/>
		<path class="st23" d="M151.45,437.88c-13.11-17.94-22.25-37.8-28.31-59.09c-7.42-26.08-10.01-52.51-6.96-79.61
			c5.75-51,27.38-94.01,64.75-128.87c32.28-30.11,70.59-47.85,114.57-53.29c14.75-1.82,29.5-2.21,44.22-0.81
			c28.58,2.71,55.75,10.31,80.69,24.93c-1.21,3.44-4.22,1.89-6.5,2.34c-6.98,0.11-13.86-1.31-20.87-1.12
			c-13.05,0.34-25.38,2.93-36.43,10.17c-4.31,2.83-9.55,2.64-14.12,4.69c-6.72,3.03-12.6,6.71-15.12,14.15
			c-0.86,2.54-3.14,3.83-5.23,5.16c-4.89,3.1-7.78,7.14-6.84,13.23c0.15,1,0.07,2.07-0.44,2.92c-3.88,6.58-6.61,13.88-11.02,20.03
			c-6.48,9.05-8.8,18.85-7.84,29.62c0.77,8.71-0.25,10.71-8.45,14.69c-2.69,0.28-4.42,1.82-5.96,3.97c-2.12,2.98-3.83,6.21-6,9.14
			c-0.89,1.2-1.71,2.5-3.04,3.24c-1.83,1.02-3.66,2.94-5.87,1.73c-2-1.1-1.37-3.51-1.58-5.44c-1.4-13.14,0.13-26.36-1.01-39.5
			c-0.17-2-0.24-3.95-1.32-5.73c-0.6-0.98-1.29-2.15-0.35-3.2c1.14-1.27,2.48-0.49,3.63,0.13c2.04,1.1,4.34,1.69,6.22,3.08
			c1.58,0.95,2.56,2.43,3.64,3.89c1.5,2.03,1.48-0.26,2.03-0.88c1.15-3.74,1.18-7.67,2.25-11.46c0.77-2.71-3.46-6.01-7.5-6.54
			c-1.48-0.19-2.97-0.12-4.46-0.15c-2.31-0.05-3.93-0.85-5.18-3.06c-3.06-5.4-7.69-5.76-11.94-1.21c-1.32,1.42-1.89,3.58-4.1,4.14
			c-4.48,0.85-8.98,0.48-13.46,0.37c-3.61-0.09-5.52-1.86-5.47-5.61c0.1-6.66-0.25-13.32-0.14-19.98c0.04-2.58,0.38-5.02,2.91-6.46
			c10.55-1.74,21.15-1.29,31.71-0.24c3.56,0.35,6.59,2.32,7.55,6.27c0.08-0.11-0.01-0.37-0.03-0.76c-0.51-8.15-0.51-8.16-8.52-8.16
			c-15.45-0.01-30.9-0.01-46.36-0.07c-1.31-0.01-2.67-0.26-3.82,0.61c-0.45,0.91-0.06,1.67,0.58,2.21
			c8.51,7.19,6.6,17.04,6.68,26.35c0.02,2.18-1.31,3.78-3.41,4.43c-1.48,0.46-2.67,1.29-3.83,2.23c-1.53,1.03-3.27,1.48-5.04,1.91
			c-1.66,0.4-4.19,0.28-3.83,2.84c0.37,2.62,2.79,1.54,4.47,1.63c1.33-0.02,2.66-0.05,3.96,0.26c0.99,0.24,1.66,1.1,2.48,1.49
			c2.47,1.18-3.83,4.25,1.44,5.14c3.08,0.53,2.88,4.45,2.92,7.26c0.04,2.83,0.91,5.57,0.89,8.39c-0.04,5.24-2.5,6.78-7.08,4.52
			c-6.17-10.5-10.98-21.63-15.47-32.92c-0.64-1.62-0.72-4.53-2.66-4.27c-2.55,0.34-1.42,3.23-1.56,5.04
			c-1.35,17.41-1.11,34.9-2.9,52.28c-0.22,2.13-0.3,4.28-0.03,6.76c2.11-1.35,1.94-3.27,1.94-4.84c0.04-11.83,1.56-23.56,2.16-35.35
			c0.03-0.5-0.01-1,0.06-1.5c0.22-1.43-0.06-3.4,1.69-3.77c1.73-0.36,2.43,1.5,3.12,2.75c7.77,13.99,14.44,28.51,20.94,43.12
			c0.48,1.08,0.61,2.24,0.4,3.43c-0.14,0.81-0.68,1.53-0.74,2.32c-0.53,8.32-0.62,8.42-9.2,8.44c-11.79-1.75-21.75-7.32-30.24-15.37
			c-12.23-11.61-11.54-29.31,1.18-40.48c2.12-1.86,4.55-3.42,6.05-5.89c0.7-1.16,1.13-2.63,0.38-3.81c-1.03-1.62-2.43-0.36-3.52,0.1
			c-7.62,3.2-14.42,7.58-19.89,13.87c-10.22,11.76-8.38,28.81,4.58,38.78c14.11,10.86,30.54,15.83,47.99,18.17
			c13.82,1.86,27.56,0.5,41.34-0.19c4.86-0.24,5.1,0.01,4.75,4.88c-0.39,5.52,0.81,7.13,6.21,8.26c2.12,0.44,4.26,0.75,6.4,1.07
			c6.03,0.92,8.83,3.93,9.13,9.94c0.19,3.97-0.25,8.02,2.65,11.38c0.65,0.75,0.83,1.89,0.13,2.79c-0.84,1.07-2.04,1.04-3.18,0.56
			c-2.01-0.86-3.66-2.3-5.37-3.61c-12.84-9.87-27.56-14.37-43.53-15.41c-4.04-0.26-7.94,0.69-11.91,0.96
			c-2.29,0.16-2.98,1.8-3.95,3.32c-8.61,13.48-14.18,28.17-17.57,43.74c-1.42,6.53-1.41,6.53-7.76,7.04
			c-5.66,0.45-8.74,3.51-9.3,9.15c-0.41,4.09,0.62,7.96,1.91,11.73c1.42,4.14,0.09,6.78-3.88,8.27c-6.15,2.31-9.49,6.45-8.85,13.3
			c0.23,2.5-1.63,3.49-3.55,4.22c-5.76,2.2-8.89,6.17-8.81,12.48c0.03,2.08-0.58,4.09-2.28,5.33c-2.41,1.75-3.54,4.34-5.02,6.73
			C152.94,437.32,152.3,437.78,151.45,437.88z"/>
		<path class="st23" d="M323.56,526.76c-31.36,1.19-61.03-5.71-89.4-18.75c-2.63-1.21-5.57-1.92-7.75-4.02
			c-1.16-1.31-1.33-2.93-1.42-4.56c-0.43-8.06,0.09-15.87,4.62-23.02c1.73-2.72,3.43-4.83,6.86-4.93c2.91-0.08,4.36-1.35,4.7-4.52
			c0.78-7.12,2.54-14.08,4.74-20.87c4.04-12.48,13.43-20.77,23.78-27.71c7.56-5.07,12.83-11.42,15.88-19.77
			c2.51-6.89-0.28-11.06-7.69-11.03c-3.85,0.01-4.43-1.51-3.26-4.49c5.14-13.04,8.38-26.58,10.84-40.34
			c0.28-1.56,0.62-3.71,2.66-3.67c1.53,0.03,2.24,1.84,2.76,3.25c1.3,3.55,1.17,7.24,0.51,10.84c-0.84,4.64-0.76,9.28-0.48,13.91
			c0.34,5.73,3.93,11.26,9.17,11.56c8.97,0.51,16.83,4.5,25.32,6.36c3.26,1.01,6.61,0.48,9.92,0.61
			c9.91,0.38,13.63,3.94,13.36,13.76c-0.27,9.71,2.15,18.74,5.77,27.58c2.89,7.05,1.31,10.26-5.95,12.1
			c-18.38,4.64-36.7,9.52-55.05,14.25c-8.77,2.26-11.98,6.24-12.73,15.29c-0.49,5.86-4.82,9.55-9.45,10.87
			c-5.76,1.64-9.33,4.97-10.63,9.95c-1.92,7.36-7.1,12.25-11.28,17.95c-0.6,0.82-2.75,1.5-0.69,3.02c7.35,2.02,14.22,5.38,21.7,7.05
			c3.1,0.69,6.22,0.76,9.28,1.46c9.01,3.94,18.75,3.34,28.2,4.55c5.05,0.65,10.19,0.53,15.17,1.85
			C323.55,525.67,323.73,526.15,323.56,526.76z"/>
		<path class="st24" d="M522.24,278.99c4.14,15.48,5.57,31.32,4.95,47.21c-1.12,28.81-6.78,56.67-19.81,82.69
			c-0.79,0.05-1.55-0.08-2.26-0.44c-2.33-1.94-4.77-3.47-8.03-3.32c-2.13,0.1-3.74-1.14-5.04-2.8
			c-6.36-8.12-12.01-16.74-18.19-24.99c-1.45-1.93-2-4.27-1.56-6.64c1.11-5.99,1.49-12.18,6.37-16.89c2.58-2.48,3.41-6.02,3.38-9.66
			c-0.02-2.33-0.06-4.66,0.04-6.98c0.36-8.87,4.66-14.69,12.96-17.59c14.84-5.18,19.72-11.52,19.9-27.08
			c0.06-4.88,4.22-7.75,4.65-12.24C520.23,279.33,521.01,278.69,522.24,278.99z"/>
		<path class="st25" d="M98.52,257.35c-1.2,12.14-1.24,23.12,1.83,33.91c0.45-11.21,1.2-22.42-0.47-33.52
			c8.45,5.82,9.85,27,3.24,44.91C91.94,294.27,90.9,271.04,98.52,257.35z"/>
		<path class="st26" d="M306.99,98.89c10.91-0.87,21.37-3.54,32.74-7.03c-6.58,8.24-14.87,10.76-23.66,12.27
			c-5.43,0.93-10.91,1.01-16.39,0.73c-1.36-0.07-3.5,0.8-3.9-0.95c-0.23-1.01,1.19-2.62,2.19-3.66c6.86-7.14,15.45-10.56,25.2-11.1
			c4.92-0.27,9.86-0.05,14.89,0.48C327.6,92.56,316.59,93.41,306.99,98.89z"/>
		<path class="st27" d="M547.49,371.42c-0.05-12.32-0.03-23.7-4.27-34.56c-0.09,11,0.79,21.92,1.79,32.87
			c-10.7-13.37-8.22-28.4-5.63-43.63C551.02,332.41,554.37,355.44,547.49,371.42z"/>
		<path class="st28" d="M518.87,442.45c2.57-11.01,7.07-20.86,6.48-33.13c-4.41,11.78-6.78,22.62-9.5,34.81
			c-5.73-17.92,1.48-31.51,9.39-45.25C533.96,409.47,529.44,430.52,518.87,442.45z"/>
		<path class="st29" d="M222.56,111.41c-4.66,4-8.95,7.49-13,11.23c-4.12,3.8-8.29,7.62-10.89,12.82c9.08-6.62,17.48-14,25.29-22.55
			c-0.19,11.25-14.4,25.36-31.67,31.91C191.01,131.63,205.7,116.31,222.56,111.41z"/>
		<path class="st30" d="M479.05,155.27c-17.12,2.08-28.93-7.53-40.58-17.94c10.82-6.94,33.38,2.75,41.95,15.65
			c-10.13-5.55-19.61-11.46-30.73-13.56C458.9,145.8,469.02,150.43,479.05,155.27z"/>
		<path class="st31" d="M107.96,413.42c6.96,8.14,13.09,17.15,22.28,23.33c-5.91-9.24-13.02-17.48-20.83-25.22
			c10.82-0.33,25.09,16.09,31.2,33.53C122.19,442,113.66,429.25,107.96,413.42z"/>
		<path class="st32" d="M95.61,375.52c5.81,10.62,10.41,20.52,18.56,28.11c-4.7-10.2-10.35-19.85-17.29-29.81
			c7.72,2.54,12.08,7.57,15.76,13.29c4.34,6.74,7.05,14.19,8.88,21.96c0.2,0.83,1.12,1.9,0.19,2.66c-0.85,0.69-1.8,0.02-2.75-0.36
			c-10.58-4.31-16.72-12.59-20.53-22.91C97.02,384.61,95.31,380.8,95.61,375.52z"/>
		<path class="st33" d="M507.13,182.75c-9.16-7.15-17.34-14.63-27.96-18.42c8.18,7.56,17.07,14.18,26.95,20.09
			c-12.01,2.61-29.66-11.74-37.69-24.6C479.54,155.49,499.08,166.65,507.13,182.75z"/>
		<path class="st34" d="M540.98,253.76c-10.62-0.95-23.4-17.96-26.83-35.26c12.55,0.01,26.5,17.44,28.29,33.8
			c-6.32-9.56-11.22-19.19-19.79-25.98C527.81,236,533.77,245.16,540.98,253.76z"/>
		<path class="st35" d="M542.74,298.9c1.74,11.03,4.18,21.9,8.19,32.41c-3.59-1.33-5.85-3.72-8.36-8.78
			c-4.85-9.8-5.67-20.28-5.4-30.98c0.08-3.21,1.27-2.82,3.16-1.37c7.69,5.9,11.3,14.12,12.93,23.32c1.04,5.89,1.34,11.86-0.29,18.61
			C550.65,320.14,548.51,308.99,542.74,298.9z"/>
		<path class="st25" d="M134.55,188.3c4.66,16.82-3.72,29.71-12.43,43.02c-6.61-13.38-2.55-32.14,9.69-43.93
			c-3.74,11.03-8.4,20.87-8.74,31.9C128.03,209.41,131.14,198.84,134.55,188.3z"/>
		<path class="st36" d="M549.04,292.66c-15.24-9.17-18.04-24.61-20.81-40.5c13.66,4.44,23.92,21.79,22.77,38.68
			c-4.73-10.37-7.81-20.87-15.25-29.11C539.14,272.48,543.95,282.62,549.04,292.66z"/>
		<path class="st35" d="M268.85,104.76c10.69-2.91,20.9-7.16,31-12.51c-4.26,11.69-25.45,19.51-40.99,19.41
			c4.24-13.27,22.01-21.71,40.56-21.33C288.4,94.66,277.71,97.71,268.85,104.76z"/>
		<path class="st37" d="M168.88,158.82c7.88-8.02,14.85-16.77,21.01-26.39c3.09,10.98-12.83,29.82-25.99,36.74
			c-3.24-12.64,9.17-31.13,24.34-37.77C180.96,140.2,173.1,148.21,168.88,158.82z"/>
		<path class="st38" d="M493.81,186.79c12.63-0.97,28.4,12.12,33.85,28.93c-4.3-4.64-7.81-8.55-11.46-12.33
			c-3.74-3.88-7.6-7.64-12.68-9.91c6.83,8.63,14.25,16.66,22.74,23.91C515.71,219.22,498.73,201.1,493.81,186.79z"/>
		<path class="st31" d="M487.89,463.25c3.83,15.01-9.5,32.75-21.54,38.81c3.41-4.76,6.63-9.03,9.61-13.47
			c2.99-4.46,6.32-8.8,7.16-14.39c-7.17,8.32-13.3,17.35-18.96,27.33C462.25,489.38,474.05,470.77,487.89,463.25z"/>
		<path class="st39" d="M139.77,198.48c-3.65-17.52,4.59-29.64,16.3-40.35c-4.04,9.56-10.75,17.97-12.41,28.57
			c6.65-9.17,11.68-19.22,16.35-29.98C161.86,170.96,153.58,188.11,139.77,198.48z"/>
		<path class="st40" d="M536.14,408.44c1.57-11.94,3.36-22.64,1.46-33.5c-2.53,10.68-3.6,21.52-3.24,32.7
			c-8.58-7.37-5.89-29.34,1.43-44.35C545.16,372.14,545.68,392.54,536.14,408.44z"/>
		<path class="st41" d="M128.68,446.09c17.39,1.83,26.62,14.32,35.83,27.56c-15.14,0.99-29.42-8.52-37.68-25.61
			c5.04,4.52,8.76,8.41,13.03,11.53c4.16,3.04,7.87,6.98,14.55,8.76C145.62,459.81,137.31,452.89,128.68,446.09z"/>
		<path class="st42" d="M151.1,479.32c9.64,5.89,18.94,12.37,30.06,15.29c-8.93-6.83-18.63-12.32-29-17.22
			c4.14-2.27,8.18-0.79,11.84,0.31c10.79,3.22,19.12,10.31,26.77,18.27c2.84,2.96-0.15,2.73-1.75,2.93
			c-10.53,1.3-19.51-2.47-27.66-8.73C157.42,487.13,153.94,483.57,151.1,479.32z"/>
		<path class="st43" d="M332.5,102.79c10.62-10.54,25.49-12.88,44.69-6.66c-12.03,0.34-22.77,0.25-33.07,3.71
			c11.26,0.56,22.48,0.4,33.76-1.51C371.1,108.1,345.41,108.02,332.5,102.79z"/>
		<path class="st44" d="M113.55,220.69c7.75,7.37,5.27,29.04-3.93,44.92c-9.38-8.47-7.34-31.43,2.04-43.67
			c-1.46,11.31-5.03,21.92-2.92,32.93C111.11,243.69,114.1,232.62,113.55,220.69z"/>
		<path class="st45" d="M495.56,474.2c4.44-10.01,10.11-19.35,11.54-30.34c-5.72,9.56-10.5,19.55-14.4,31.07
			c-2.25-6.19-1.26-11.27,0.27-16.3c2.75-9.02,8.02-16.58,13.99-23.7c0.66-0.78,1.17-2.3,2.62-1.77c1.07,0.39,0.85,1.68,1.05,2.6
			c2.26,10.13-0.35,19.33-5.7,27.84C502.42,467.61,499.63,471.53,495.56,474.2z"/>
		<path class="st46" d="M257.96,98.3c-8.73,5.85-18.18,10.37-25.17,18.43c10.09-4.5,19.2-10.59,28-17.21
			c-0.56,4.11-3.35,8.62-7.6,12.25c-7.56,6.47-16.52,10.21-25.87,13.17c-0.89,0.28-2.28,0.83-2.73-0.13
			c-0.42-0.88-0.24-2.31,0.18-3.29c2.33-5.41,5.78-10,10.43-13.67C241.92,102.54,249.54,99.36,257.96,98.3z"/>
		<path class="st47" d="M103.2,367.28c-2.95-10.95-6.63-21.48-11.71-31.5c10.67,1.81,19.21,27.85,17.72,40.74
			c-12.33-4.31-21-21.48-19.52-39.68C93.66,347.83,96.45,358.51,103.2,367.28z"/>
		<path class="st48" d="M416.92,120.37c10.25,4.55,20.98,7.5,31.89,9.96c-8.92,6.2-30.96-0.36-43.34-10.83
			c10.91-7.4,31.3-3.1,44.17,8.85C438.49,124.81,428.27,120.16,416.92,120.37z"/>
		<path class="st49" d="M369.96,108.32c7.76-9.43,32.78-8.06,44.45,0.91c-11.2-1.66-21.91-4.09-32.97-2.38
			c10.78,2.88,21.8,4.15,32.97,4.43C407.13,119.27,385.32,116.46,369.96,108.32z"/>
		<path class="st50" d="M92.29,307.97c0.66,8.16,3.6,17.98,6.94,22.72c-0.95-6.11-1.69-11.93-2.8-17.68
			c-1.07-5.59-2.52-11.11-4.07-17.82c13.22,13.33,12,28.92,11.18,44.53c-8.51-2.37-16.19-19.51-14.83-33.74
			C91.04,304.6,90.91,307.64,92.29,307.97z"/>
		<path class="st51" d="M522.24,278.99c-0.57,0.33-1.14,0.66-1.72,0.99c-2.83-5.87-3.4-12.39-5.34-18.53
			c-6.79-21.45-16.6-41.33-30.1-59.36c-1.13-1.5-2.34-2.95-3.53-4.41c-0.8-1.19-1.85-2.37-2.14-3.7c-0.44-2.04-1.56-1.88-2.99-1.55
			c-0.83-0.53-1.25-1.36-1.61-2.23c-0.6-2.24-1.96-3.34-4.37-2.99c-1.2,0.17-2.9-0.01-2.38-1.51c2.1-6.08-3.12-7.03-6.28-9.45
			c-3.32-4.13-8.71-5.79-11.99-9.97c-1.28-1.63-3.23-3.07-1.35-5.47c0.5-0.07,0.99-0.01,1.45,0.18
			c13.2,9.74,24.33,21.57,34.35,34.44c17.92,23.03,30.22,48.84,37.13,77.19C521.87,274.7,522.8,276.76,522.24,278.99z"/>
		<path class="st52" d="M506.01,408.21c0.46,0.23,0.91,0.46,1.37,0.68c-16.64,35.73-41.69,64.1-74.86,85.34
			c-0.66-0.49-0.81-1.17-0.74-1.94c2.09-3.48,5.09-5.96,8.64-7.85c5.59-2.98,9.88-7.61,14.38-11.86
			c8.53-8.07,16.81-16.39,24.83-24.97c2.76-3.08,5.62-6.08,7.12-10.05c6.93-8.26,9.74-19,16.47-27.38
			C503.99,409.29,504.86,408.54,506.01,408.21z"/>
		<path class="st53" d="M226.28,498.57c0.04,1.81,0.09,3.62,0.13,5.43c-14-6.29-26.3-15.25-38-24.96
			c-13.03-10.81-24.48-23.24-34.41-37c-0.95-1.31-1.71-2.77-2.55-4.16c0.33-0.33,0.65-0.65,0.98-0.98c1.28-0.25,1.91,1.73,3.35,0.98
			c3.31,3.9,5.52,8.61,9.06,12.35c0.55,1.89,1.86,3.38,3.68,3.6c2.89,0.34,3.15,2.19,3.34,4.34c6.53,8.23,15.17,14.17,22.89,21.09
			c1.67,1.8,2.91,4.31,6.07,3.68c5.59,3.46,9.57,9.11,15.82,11.67c2.45,2.62,5.73,4.15,8.39,6.25
			C224.66,499.8,224.84,498.87,226.28,498.57z"/>
		<path class="st54" d="M432.39,491.9c0.04,0.78,0.09,1.56,0.13,2.33c-19.02,12.62-39.55,21.71-61.88,26.62
			c-1.09-0.05-2.17-0.12-2.65-1.36c-0.17-2.04,1.3-2.5,2.82-2.77c7.04-1.26,14.23-2.76,20.27-6.41c11.39-6.88,24.8-9.53,35.54-17.59
			C428.38,491.41,430.16,490.05,432.39,491.9z"/>
		<path class="st55" d="M449.89,161c-0.57,0.05-1.13,0.1-1.7,0.16c-1.37,0.57-2.64,0.13-3.77-0.56
			c-7.45-4.49-15.19-8.51-22.12-13.83c-1.32-1.76-3.32-1.94-5.26-2.36c-1.45-0.31-3.54,0.22-3.72-2.25
			c2.32-0.63,4.96,0.98,7.09-1.01C431.07,146.52,440.98,153.02,449.89,161z"/>
		<path class="st54" d="M323.56,526.76c-0.14-0.26-0.27-0.52-0.4-0.78c1.23-1.65,3.47-1.32,4.93-2.53c1.52-0.76,3.16-1,4.82-0.97
			c9.12,0.18,17.99-1.38,26.79-3.6c1.3-0.33,2.62-0.31,3.89,0.19c0.93,0.86,0.83,2.63,2.49,2.87c-5.34,1.65-10.8,2.68-16.39,2.94
			c-1.61,1-3.52,0.04-5.17,0.77C337.58,526.92,330.59,527.25,323.56,526.76z"/>
		<path class="st56" d="M383.61,529.84c0.26-0.31,0.53-0.61,0.79-0.92c5.14-0.56,5.48,3.82,6.65,6.9c0.85,2.23,0.81,4.89-0.7,7.14
			l0.14-0.14c-2.81,1.52-4.5-0.37-5.56-2.33C383.16,537.2,381.89,533.65,383.61,529.84z"/>
		<path class="st57" d="M335.51,545.78c0-2.22,0.1-3.51-0.02-4.78c-0.2-1.92-1.41-2.95-3.31-3.01c-2.62-0.07-1.63,2.01-1.66,3.22
			c-0.09,2.81-0.48,5.8,0.29,8.4c1.2,4.04-0.72,4.31-3.77,4.09c2.56-4.18,1.76-8.86,0.75-12.93c-1.18-4.78,1.64-3.73,3.94-3.89
			c2.6-0.19,5.07,0.39,6.3,2.92C339.07,541.99,338.04,543.75,335.51,545.78z"/>
		<path class="st58" d="M309.09,537.05c10.84-0.52,11.27-0.41,12.53,4.32c-2.26-3.71-5.03-4.17-7.45-3.26
			c-2.5,0.94-1.4,3.75-1.28,5.75c0.19,3.07-1,6.25,0.75,9.17c-3.25,1.16-3.67,0.36-3.44-3.06
			C310.48,545.8,311.73,541.22,309.09,537.05z"/>
		<path class="st59" d="M244.49,523.95c2.31,0.38,4.25,1.54,4.59,3.88c0.31,2.13-0.82,3.8-3.24,4.22c-1.92,0.33-1.16,1.46-0.74,2.59
			c0.84,2.26,1.54,4.56,2.59,7.7c-5.29-2.68-4-8.56-7.23-11.53c-0.27-0.43-0.23-0.82,0.14-1.16c3.7,0.09,4.98-1.56,3.63-5.08
			C244.31,524.36,244.4,524.15,244.49,523.95z"/>
		<path class="st60" d="M253.46,547.05c1.09-4.07,2.03-8.19,3.31-12.2c0.71-2.22,1.2-4.28-0.07-6.91c1.85,0.49,3.33,0.88,4.85,1.28
			c-2.15,3.88-2.93,8.07-4.21,12.09c-0.68,2.14-0.69,5.13-3.94,5.61L253.46,547.05z"/>
		<path class="st61" d="M240.5,529.78c-0.01,0.34-0.03,0.69-0.04,1.04c-1.4,2.48-2.95,4.93-1.17,8.3c-2.02-1.1-4.03-0.91-5.31-2.43
			c2.79-2.04,6.15-10.6,5.73-14.97c1.57,1.07,3.55,0.72,4.78,2.23c0,0,0.01-0.13,0.01-0.13
			C242.92,525.64,243.12,528.65,240.5,529.78z"/>
		<path class="st62" d="M205.31,523.05c-4.4-1.37-4.19-4.24-2.6-7.69c1.47-3.2,4.58-5.68,4.14-9.91c1.62,0.84,3.04,1.58,4.84,2.52
			c-4.71,2.19-5.63,6.87-7.95,10.49c-0.97,1.51,1,2.87,1.97,4.13C205.58,522.74,205.45,522.9,205.31,523.05z"/>
		<path class="st63" d="M292.54,536c2.13,0,3.76,0,5.2,0c-3.04,3.75-2.47,8.46-2.45,12.54c0.02,4.02-1.49,3.71-4.28,3.19
			c1.75-2.12,2.13-4.68,2.26-7.18C293.4,541.84,294.16,539.01,292.54,536z"/>
		<path class="st64" d="M225.45,523.88c-2.57,0-2.69,2.37-3.08,3.82c-0.93,3.47-2.54,3.73-5.09,1.79c3.52-2.4,7.31-10.68,6.5-14.34
			c3.54,1.03,3.46,1,2.11,4.38c-0.55,1.37-1.53,2.82-0.51,4.43L225.45,523.88z"/>
		<path class="st65" d="M405.4,537.51c-0.83,0.52-1.47,1.07-2.21,1.33c-0.67,0.24-1.42,0.6-1.84-0.7
			c-1.41-4.33-1.77-9.13-5.47-12.51c-0.55-0.5,0.52-0.93,0.96-1.27c1.17-0.92,1.87-0.08,2.25,0.85c1.17,2.85,2.34,5.71,3.29,8.63
			C402.91,535.46,403.56,536.82,405.4,537.51z"/>
		<path class="st66" d="M429.15,509.06c1.63-0.21,1.63,1.14,2.07,1.85c2.08,3.33,4.04,6.74,6.1,10.09c0.39,0.63,1.47,1.07,0.27,1.83
			c-0.67,0.42-1.51,1.05-2.16,0.93c-1.35-0.25,0.17-1.25-0.25-1.87c-2.23-3.33-3.1-7.58-6.66-9.97c-0.53-0.35-1.33-0.35-0.92-1.14
			C427.96,510.08,428.68,509.57,429.15,509.06z"/>
		<path class="st65" d="M390.34,542.96c0.3-3.68,0.18-7.27-1.69-10.61c-0.98-1.74-1.67-3.72-4.25-3.42c0.3-1.07,1.18-1.11,1.96-0.9
			C391.69,529.51,394.1,538.61,390.34,542.96z"/>
		<path class="st67" d="M373.45,543.29c1.79-9.02,1.23-10.26-3.75-9.64c2.34-2.52,3.6-2.88,5.32-1.53
			C377.23,533.85,376.91,536.83,373.45,543.29z"/>
		<path class="st68" d="M383.61,529.84c-0.76,3.61,0.69,6.82,1.96,10.02c0.84,2.11,2.2,3.76,4.91,2.96
			c-0.98,1.85-2.63,1.17-3.83,0.67C382.37,541.7,380.71,533.94,383.61,529.84z"/>
		<path class="st69" d="M92.29,307.97c-1.19-0.66-2.39-1.32-3.58-1.99c0.36-3.21,0.72-6.43,1.08-9.66
			C92.29,299.87,90.88,304.22,92.29,307.97z"/>
		<path class="st70" d="M378.55,545.13c-1.85,3.2-4.99,2.7-8.47,3.03C372.16,543.79,376.03,546.42,378.55,545.13z"/>
		<path class="st71" d="M414.65,519.79c-2.74,0.02-4.99,1.3-7.61,3.23c0.28-4.46,3.87-4.25,6.12-5.24c1.82-0.8,1.07,1.24,1.39,2.07
			L414.65,519.79z"/>
		<path class="st72" d="M414.56,519.85c1.51,4.77,0.57,9.58,0.19,14.38c-0.22-4.81-1.41-9.61-0.1-14.44
			C414.65,519.79,414.56,519.85,414.56,519.85z"/>
		<path class="st23" d="M366.08,521.95c-0.88-0.19-1.76-0.37-2.64-0.56c0.36-0.46,0.71-0.93,1.07-1.39
			c1.22-1.28,2.51-1.13,3.83-0.17c0.77,0.34,1.53,0.68,2.3,1.03C369.3,521.99,367.67,521.89,366.08,521.95z"/>
		<path class="st73" d="M223.26,532.03c2.66-0.06,4.79,0.26,7.13-1.42C228.51,534.97,226.28,534.37,223.26,532.03z"/>
		<path class="st74" d="M272.77,542.95c1.88,0.09,3.92-0.78,5.41,1.53C275.77,545.4,274.02,544.97,272.77,542.95z"/>
		<path class="st75" d="M350.35,546.95c2.72-2.62,4.7-2.06,6.86-1.82C355.68,547.71,353.57,546.83,350.35,546.95z"/>
		<path class="st76" d="M319.31,542.75c0,1.55,0,2.97,0,4.38C316.57,545.24,316.57,545.24,319.31,542.75z"/>
		<path class="st77" d="M225.37,523.98c1.66,0.85,6.67-1.71,3.6,4.53c-0.54-2.55-2.25-3.37-3.52-4.63
			C225.45,523.88,225.37,523.98,225.37,523.98z"/>
		<path class="st78" d="M253.4,546.93c-1.56,2.09-2.67,0.75-3.71-0.53c-0.46-0.57-0.38-1.3,0.39-1.52c1.91-0.57,2.28,1.4,3.38,2.18
			C253.46,547.05,253.4,546.93,253.4,546.93z"/>
		<path class="st79" d="M233.07,522.8c-0.7-1.29-1.05-2.48-0.69-3.81c0.03-0.1,1-0.17,1.29,0.06
			C235.29,520.37,234.52,521.51,233.07,522.8z"/>
		<path class="st80" d="M301.31,546.68c-1.06-0.93-1.49-2.52-4.25-1.64C301.19,542.25,302.33,542.86,301.31,546.68z"/>
		<path class="st81" d="M214.9,511.21c2.43-0.46,3.27,0.48,4.14,1.34c-0.52,0.36-1.02,0.97-1.58,1.04
			C215.35,513.84,216.74,511.74,214.9,511.21z"/>
		<path class="st82" d="M301.49,537.05c3.46-0.8,3.23,0.99,2.71,3.27C303.29,539.22,302.49,538.25,301.49,537.05z"/>
		<path class="st57" d="M205.71,522.59c1.4,0.19,2.8,0.37,4.2,0.56c-1.57,0.73-3.15,1.73-4.6-0.1
			C205.45,522.9,205.58,522.74,205.71,522.59z"/>
		<path class="st83" d="M427.34,527.89c-0.27,0.71-0.91,1.09-1.46,0.7c-0.4-0.29-0.59-1.1-0.57-1.67c0.02-0.73,0.57-1.15,1.28-0.62
			C427.07,526.67,427.64,527.11,427.34,527.89z"/>
		<path class="st23" d="M344.52,525.67c1.56-1.31,3.41-0.76,5.17-0.77C348.1,526.07,346.31,525.85,344.52,525.67z"/>
		<path class="st84" d="M413.32,142.15c2.65,1.42,5.61,1.54,8.5,1.84c1.93,0.2,0.93,1.06,0.59,1.84c-3.27,2.81-6.74,0.62-9.93,0.05
			c-12.8-2.26-25.47-2.3-38.11,0.87c-0.65,0.16-1.33,0.23-1.93,0.5c-11.35,5.04-22.68,10.1-34.26,14.64
			c-3.62,1.42-6.25,4.5-7.47,8.33c-1.04,3.24-3.19,5.3-5.98,7.02c-2.95,1.82-5.75,3.91-6.93,8.64c4.05-2.95,7.21-5.5,10.8-7.42
			c10.69-5.74,22.45-7.21,34.2-8.39c5.13-0.52,9.44-1.62,12.21-6.3c0.42-0.71,1.28-1.03,2.14-1.16c0.85,0.04,1.43,0.46,1.74,1.25
			c0.25,1.21-0.13,2.32-0.65,3.37c-2.41,4.88-2.9,9.86-0.87,14.98c1.29,3.24,0.3,5.55-2.28,7.88c-6.73,6.1-7.36,15.28-1.82,22.43
			c4.43,5.71,8.31,11.69,9.39,19.04c0.2,1.37,0.74,2.54,1.81,3.45c0.93,0.78,1.82,1.76,1.35,2.99c-2.52,6.57-0.39,13.79-2.94,20.36
			c-1,2.59,0.38,4.72,2.02,6.81c0.82-13.52,10.26-21.46,24.27-20.23c5.13,0.45,10.28,1.33,14.38,5.03c2.22,2,4.61,1.91,6.71-0.11
			c2.18-2.12,0.39-4.04-0.78-5.75c-3.4-4.96-5.09-10.44-5.35-16.39c-0.06-1.33,0.01-2.68,0.36-3.97c0.39-1.43,0.68-3.43,2.3-3.5
			c1.79-0.08,2.02,2.02,2.3,3.4c1.87,9.1,7.67,15.2,14.87,20.51c10.35,7.63,12.83,19.73,6.76,31.09c-0.47,0.88-0.91,1.79-1.59,2.53
			c-0.67,0.72-1.41,1.6-2.53,1.11c-1.06-0.46-1.19-1.59-1.09-2.57c0.29-2.81,0.57-5.63,0.89-8.44c0.12-0.99,0.46-1.96,0.45-2.96
			c-0.04-2.83,0.31-6.29-1.95-7.95c-2.56-1.88-4.81,1.22-6.98,2.46c-2.76,1.58-6.49,2.68-6.01,7.05c0.44,3.98,2.48,6.81,6.35,8.19
			c2.75,0.99,3.04,2.41,1.32,4.88c-3.34,4.78-3.24,8.06,0.5,12c1.69,1.78,1.62,3.09,0.3,4.71c-2.28,2.8-3.5,5.95-3.87,9.56
			c-0.39,3.82-3.09,5.29-6.62,5.5c-4.96,0.3-8.47,2.62-10.52,7.19c-0.42,0.93-1.11,1.89-0.46,2.79c1.65,2.3,0.92,4.78,0.89,7.24
			c-0.04,3.78,0.94,7.2,4.02,10.27c2.14-2.58,3.46-5.84,6.99-6.67c0.92-0.22,1.07-1.17,0.95-2.06c-1.17-8.83,3.38-15.04,9.73-20.09
			c2.95-2.35,4.66-4.89,5.28-8.58c1.49-8.91,7-15.4,14.71-19.06c7.22-3.42,11.16-8.23,12.76-15.84c1.65-7.87-0.36-14.82-4.16-21.49
			c-1.84-3.22-4.66-5.64-7.26-8.21c-1.82-1.79-2.42-4.32-4.04-6.26c-2.19,1.3-1.43,4.6-4.15,5.56c-2.35-2.74-1.64-5.98-1.2-9
			c0.84-5.67,3.01-10.86,6.25-15.64c4.01-5.92,3.28-11.54-1.85-16.6c-2.52-2.49-5.65-4.09-8.5-6.11c-5.22-3.69-4.84-7.94,1.04-10.38
			c3.83-1.59,7.88-2.68,12.14-2.26c4.2-0.21,5.61,3.5,7.81,5.86c1.6,1.72-2.14,2.3-1.77,4.49c2.18-0.26,4.41-2.59,6.46,0.49
			c1.03,1.55,0.61,2.12-0.32,3.05c-0.15,2.27-2.03,3.6-2.95,5.56c1.7-1.09,2.51-3.39,4.86-3.42c3.78-0.58,4.72,2.18,5.74,4.86
			c-0.71,2.68,0.12,4.31,3.07,4.49c4.23,2.17,5.76,6.57,8.07,10.21c12.19,19.17,21.23,39.69,26.33,61.92
			c0.5,2.16,0.15,4.28,0.74,6.34c0.05,1.81-1.15,3.48-0.56,5.38c0.32,1.03-0.1,2.5-1.06,2.42c-4.09-0.33-2.45,2.65-2.42,4.24
			c0.15,7.9-1.73,15.08-6.9,21.22c-2.99,3.55-6.82,5.62-11.31,6.81c-11.13,2.96-15.13,8.04-14.82,19.62
			c0.2,7.34-1.02,13.69-6.8,18.9c-3.23,2.91-3.19,15.87-0.6,19.46c5.52,7.66,11.12,15.26,16.49,23.02c1.41,2.03,2.89,3.06,5.3,2.74
			c3.78-0.5,6.26,1.41,8.17,4.4c-0.58,0.58-0.49,1.75-1.63,1.85c-10.48-5.19-20.98-2.34-31.14,0.61
			c-19.32,5.61-35.96,16.37-51.73,28.59c-17.3,13.41-32.71,28.82-47.46,44.91c-1.27,1.38-2.63,2.54-4.41,3.15
			c-7.25,2.5-14.73,4.23-22.11,6.26c-1.15,0.32-2.32,0.29-3.34-0.5c-0.47-0.66-0.59-1.4-0.45-2.18c0.85-2.28,3.06-2.65,4.91-2.88
			c14.59-1.84,24.95-10.18,34.36-20.84c9.25-10.48,19.57-19.98,30.79-28.4c2.51-1.89,4.09-4.18,3.26-7.23
			c-3.43-12.6,1.39-21.98,10.37-30.59c4.6-4.41,7.8-10.34,11.72-15.52c4.44-5.87,4.51-6.07,11.64-3.64
			c8.36,2.84,16.76,5.55,25.06,8.55c1.22,0.44,2.37,1.23,4.23,0.93c-1.25-3-3.04-5.52-5.04-7.82c-4.63-5.31-7.98-10.84-3.56-18.67
			c-7.44,0.67-13.81,0.84-20.11-0.74c-2.33-0.58-3.52,1.16-4.51,3.09c-1.82,3.55-2.93,3.65-5.6,0.76
			c-5.15-5.57-6.33-13.87-2.97-20.93c1.95-4.1-0.74-8.68-5.32-8.94c-3.04-0.18-3.02,1.85-2.79,4.03c0.18,1.68,1.94,3.69-0.23,4.95
			c-1.68,0.97-3.56-0.19-5.21-0.95c-6.92-3.19-10.82-10.3-10.19-18.39c-1.41,15.69-10.56,25.15-24.6,30.67
			c-1.08,0.43-2.19,0.81-3.35,1.01c-1.13,0.19-2.56,0.65-3.09-0.7c-0.48-1.21,0.66-2.11,1.55-2.86c1.53-1.29,3.31-2.24,4.9-3.45
			c7.52-5.77,11.76-13.5,13-22.79c0.67-5.06-0.03-5.69-5.01-6.31c-3.57-0.45-6.85-1.51-9.17-4.47c-0.73-0.93-1.24-2.11-0.55-3.25
			c0.64-1.06,1.79-0.62,2.72-0.44c2.3,0.43,4.69-0.2,6.94,0.6c5.2,1.87,9.33,0.07,13.21-3.43c3.47-3.13,6.83-6.3,9.68-10.03
			c7.35-9.6,7.9-24.74,1.15-34.74c-7.38-10.93-17.97-10.48-24.33,1.08c-1.84,3.35-3.43,6.84-5.85,9.86
			c-1.86,2.32-3.79,3.78-6.77,1.91c-2.64-1.66-6.06-2.86-4.25-7.13c0.98-2.31,0.07-4.2-1.12-6.09c-2.14-3.39-3.12-6.97-1.73-10.93
			c1.11-3.17-0.35-5.87-1.68-8.55c-1.29-2.6-2.42-5.23-0.92-8.08c3.08-5.85,1.49-11.29-1.28-16.67c-1.46-2.84-3.33-5.4-5.47-7.73
			c-5.1-5.55-5.31-11.92-3.44-18.69c0.62-2.25,1.16-4.63,2.45-6.53c3.02-4.43,0.65-9.07,0.9-13.58c0.08-1.56-1.29-1.81-2.52-1.62
			c-9.53,1.44-19.3,1.56-28.46,5.01c-13.26,5-21.92,14.73-27.4,27.48c-1.39,3.24-2.88,6.27-5.18,9.01
			c-4.36,5.19-6.58,11.59-5.96,18.1c1.12,11.59-1.95,20.75-10.8,28.71c-5.99,5.38-9.91,12.86-15.64,18.74
			c-3.36,3.45-5.46,7.96-7.11,12.53c-1.64,4.51-0.04,6.64,4.82,6.57c2.69-0.04,5.24-0.87,7.83-1.49c4.03-0.97,8.08-2.29,12.29-1.11
			c1.75,0.49,3.84,1.04,3.64,3.41c-0.21,2.51-2.37,2.62-4.19,2.33c-4.28-0.69-4.32,2.22-4.16,4.92c0.26,4.44,1.61,8.79,1,13.69
			c3-2.81,6.21-3.19,9.51-2.6c4.1,0.73,8,2.27,11.98,3.49c2.02,0.62,3.33,1.93,1.94,4.1c-3.49,5.44-7.69,10.11-14.49,11.32
			c-1.44,0.26-3.41,0.55-3.88-1.18c-0.45-1.67,1.57-1.83,2.7-2.3c3.12-1.31,5.89-3.02,8.01-6.31c-3.97-1.53-7.78-1.06-10.86,1
			c-3.33,2.23-1.29,6.05,0.13,8.06c3.35,4.72,3.26,9.51,2.54,14.76c-0.66,4.76-1.3,9.56-0.38,14.4c1.28,6.78,4.33,9.11,11.05,8.34
			c4.81-0.55,8.82-3.01,12.68-5.57c3-1.99,6.04-3.48,9.63-3.72c9.94-0.65,18.29-5.76,27.1-9.59c1.9-0.83,2.6-2.41,3.12-4.23
			c1.2-4.17,0.52-8.25-0.38-12.34c-0.61-2.77-1.2-5.55-0.62-8.4c0.28-1.37,0.88-2.73,2.43-2.75c1.34-0.01,1.85,1.36,2.14,2.46
			c1.56,5.79,2.44,11.73,4.05,17.51c0.62,2.22,0.78,4.57,3.51,5.6c2.05,0.77,1.53,2.59,0.47,3.68c-8.1,8.32-15.56,17.31-25.01,24.24
			c-3-0.52-5.54-0.31-8.07,2.1c-2.88,2.75-7.05,0.34-10.51,1.39c-9.06-2.33-18.08-4.73-27.32-6.48c-5.51-1.04-8.27-6.79-8.67-12.63
			c-0.33-4.77-0.28-9.51,0.74-14.32c0.9-4.28,1.41-8.94-2.69-13.29c-2.49,16.48-6.75,32.02-12.71,47.46
			c4.57-1.59,8.45-0.96,11.41,2.46c2.73,3.15,2.2,6.69,0.56,10.23c-3.4,7.35-6.86,14.28-14.53,18.7
			c-6.79,3.91-11.79,10.35-17.48,15.78c-9.83,9.38-9.09,21.66-11.99,32.89c-1.12,4.34-2.75,6.11-6.59,6.19
			c-2.3,0.05-3.49,0.92-4.71,2.74c-4.69,6.97-5.69,14.69-5.12,22.8c-0.42,1.03-0.84,2.05-1.3,3.19c-2.74-2.55-7.45-2.27-8.59-6.67
			c0.01-1.42,0.62-2.67,1.57-3.57c4.64-4.38,6.15-10.53,9.54-16.24c-7.17-2.14-14.13-4.09-20.73-7.28
			c-2.63,4.96-2.46,11.03-6.48,15.3c-4.48,3.22-4.28-1.68-5.9-3.41c-3.16-5.49-6.69-10.45-12.53-13.69
			c-3.44-1.9-5.78-5.42-6.84-9.72c-1.26,1.04-2.48,2.43-4.4,1.8c-0.35-0.88-0.17-2.12,0.59-3.27c-4.35,1.7-6.1-0.47-6.8-4.21
			c3.65-1.8,7.25-2.12,10.76,0.37c0.54,0.38-0.2,0.09,0.42,0.26c8.63,2.25,17.27,4.64,26.23,4.93c3.75,0.12,6.77-3.21,7.08-6.53
			c0.37-3.95-2.52-5.02-5.43-6.04c-2.2-0.77-4.44-1.57-6.76-1.73c-8.29-0.58-15.1-4.85-22.09-8.69c-0.88-0.48-1.71-1.04-2.38-1.8
			c-0.79-0.89-1.54-1.89-0.96-3.12c0.64-1.36,1.94-1.11,3.06-0.79c2.24,0.63,4.5,1.2,6.74,1.85c4.28,1.25,8.46,1.47,12.68-0.36
			c4.08-1.78,8-1.3,11.94,0.89c4.08,2.26,8.14,4.47,11.81,7.41c3.13,2.51,6.57,4.69,10.91,4.02c2.26-0.35,4.23-1.5,4.89-3.75
			c0.56-1.94-1.33-2.9-2.58-3.87c-9.34-7.23-18.75-14.36-29.66-19.17c-3.37-1.49-6.66-2-10.04-0.07c-1.15,0.65-2.45,1.39-3.63,0.1
			c-1.6-1.74-2.65,0.36-3.98,0.47c-0.49,0.07-0.91-0.07-1.27-0.41c-4.84-3.55-9.43-1.11-13.85,0.85c-3.92,1.74-5.77,5.35-4.94,9.42
			c0.77,3.78-0.1,5.96-3.55,7.48c-2.43,1.07-2.41,4.31-4.54,5.75c-1.81,1.33-1.83-1.04-2.83-1.37c3.34-6.42,7.77-12.22,8.77-19.87
			c0.43-3.31,4.44-5.07,7.8-6.18c2.02-0.67,3.12-1.16,2.76-3.98c-0.75-5.91,2.5-10.62,8.61-12.88c4.29-1.59,6.04-3.62,3.92-8.22
			c-1.38-3-1.84-6.33-1.79-9.73c0.12-8.08,4.36-12.58,12.29-11.93c3.47,0.28,4.05-1.15,4.58-3.86c2.64-13.5,6.94-26.44,13.48-38.58
			c6.63-12.3,9.54-13.78,23.5-12.58c17.3,1.49,32.75,7.41,46.19,18.48c0.89,0.73,1.9,2.56,3.29,1.2c1.54-1.51-0.56-2.26-1.29-3.09
			c-2.44-2.8-2.08-6.14-2.13-9.44c-0.14-7.94-1.46-9.37-9.44-10.41c-1.65-0.21-3.28-0.54-4.92-0.8c-6.87-1.09-8.68-3.73-7-10.63
			c0.56-2.28,0.78-2.98-2.29-2.72c-21.21,1.79-42.41,2.68-63.14-3.72c-9.53-2.94-18.66-6.88-26.61-12.96
			c-17.73-13.56-18.54-31.86-2.08-46.81c6.08-5.52,13.47-8.92,21.17-11.65c1.42,5.46-0.23,8.88-4.72,12.32
			c-15.37,11.8-15.82,29.38-1.37,42.04c7.82,6.85,16.91,11.44,27.27,13.23c16.04,1.82,32,1.9,48.08-0.4
			c8.34-1.19,12.13-7.44,17.3-12.28c3.16-2.96,5.04-7,7.75-10.37c1.57-1.95,3.07-3.95,5.51-4.89c6.4-3.24,7.81-8.32,6.94-15.25
			c-1.04-8.29-0.47-17.11,4.63-23.89c5.62-7.47,8.05-16.58,13.84-23.8c0.78-0.97,1.31-1.94,0.92-3.18
			c-2.12-6.65,1.73-10.67,6.46-14.07c2.95-2.12,5.09-4.33,6.71-7.89c3.79-8.36,11.78-11.74,20.16-13.81
			c3.39-0.84,6.47-1.86,9.51-3.7c15.25-9.23,31.93-11,49.29-8.84C408.66,142.06,411,142.03,413.32,142.15z"/>
		<path class="st85" d="M218.76,274.87c-5.1-13.09-11.58-25.55-17.77-38.13c-1.8-3.66-3.76-7.25-6.23-11.97
			c-1.1,17.12-2.12,33.04-3.17,49.28c-3.3-0.65-4.68-1.74-4.39-5.27c1.64-20.33,2.59-40.7,3.27-61.09c0.04-1.34-1.12-3.59,1.84-3.64
			c2.13-0.04,3.48,0.2,4.27,2.87c3.78,12.69,9.74,24.46,15.93,36.11c5.35,6.45,7.35,14.86,12.57,21.77c2.36-1.43,2.89-3.8,3.77-5.81
			c7.49-17.23,15.87-34.06,22.98-51.46c0.97-2.37,2.26-4.61,5.36-4.38c3.31,0.24,3.6,2.98,4.21,5.38c0.33,1.29,0.4,2.64,0.36,3.97
			c-0.33,12.14,1.9,24.1,2.4,36.18c0.4,9.58,0.86,19.15,2.18,28.66c0.32,2.32-1.09,3.87-3.17,4.49c-2.64,0.79-5.39,2.28-8.14,0.55
			c-1.51-0.95-0.55-2.47-0.03-3.59c1.05-2.23,1.3-4.44,0.47-6.76c-0.91-15.66-2.69-31.25-3.58-46.91c-0.19-0.65-0.79,0.38-0.2,0.08
			c0.24,4.17-2.23,7.45-3.84,10.94c-5.49,11.93-10.91,23.89-16.32,35.85c-1.78,3.2-2.78,6.75-4.4,10.01
			c-1.57,3.17-3.63,3.42-5.58,0.61C219.99,280.34,218.24,277.97,218.76,274.87z"/>
		<path class="st86" d="M256.64,271.83c1.79,3.57,0.21,6.67-1.45,9.95c3.14,0.76,5.8-0.95,8.64-1.43c1.86-0.31,1.76-1.54,1.58-2.95
			c-2.08-16.12-2.58-32.37-4.12-48.53c-0.66-6.95-0.43-13.93-1.41-20.82c-0.21-1.47,0.61-3.83-2.42-4.03
			c-2.56-0.17-3.38,1.14-4.2,3.18c-8.08,20.24-17.58,39.85-26.69,59.64c-0.2,0.43-0.46,0.83-1.2,2.13
			c-4.66-8.92-9.41-17.08-12.86-25.92c2.92,2.47,4.79,1.21,4.81-2c0.02-4.74-0.57-9.49-1.18-14.21c-0.36-2.81-2.75-2.78-4.98-2.85
			c-1.45-0.05-2.85-0.9-2.44-2.44c0.61-2.3,1.62-0.08,2.48,0.06c0.94,0.14,1.62-0.32,1.84-1.23c0.22-0.95-0.37-1.77-1.17-1.9
			c-1.78-0.29-3.6-0.29-5.4-0.41c-0.06-2.22,1.87-1.87,3.11-2.36c1.9-0.75,4.87-0.32,5.01-3.16c0.12-2.43-3.41-0.69-4.14-2.67
			c0.42-0.51,0.78-1.39,1.28-1.47c7.17-1.25,5.98-6.77,5.64-11.47c-0.49-6.9,0.64-14.54-7.14-18.83c-1.2-0.66-1.68-2.42-1.77-3.98
			c8.97-0.92,12.9,2.34,13.39,11.13c0.15,1.47-0.08,2.95,0.13,4.41c0.01,7.63,0.15,15.25-0.07,22.88c0.12,0.89,0.14,1.78,0.04,2.66
			c0.02,11.76,0.01,23.53,0.02,35.3c0,3,0.21,5.97,1.52,8.74c0.35,0.74,0.69,1.65,1.6,1.73c1.3,0.11,1.49-1.11,1.82-1.98
			c0.96-2.52,1.02-5.18,1.03-7.84c0.08-11.1-0.14-22.21,0.1-33.31c0.07-3.88,2.41-5.1,5.89-5.1c3.49,0,6.98-0.1,10.47,0.08
			c3.59,0.18,4.91-1.44,4.04-4.9c0.42-5.64,5.05-6.65,9.12-7.55c3.71-0.82,5.71,2.31,6.71,5.29c0.71,2.12,1.79,2.42,3.59,2.44
			c2.31,0.02,4.79-0.31,6.9,0.39c7.08,2.36,8.31,4.99,5.23,12.18c-1.07,2.5,2.53,5.82-1.63,7.41c-3.37-2.19-2.13-5.65-2.23-8.64
			c-0.21-6.51-5.28-10.3-11.58-8.37c-2.17,0.67-1.62,2.24-0.81,3.56c0.89,1.46,2.64,1.97,3.9,3.04c2.59,2.2,5.89,4.03,4.94,8.34
			c-2.86-2.12-6.74-1.94-9.58-4.62c3.33,3.68,2.16,7.87,2.51,11.81c0.71,7.91,0.31,15.75-0.02,23.67
			c-0.21,5.03,0.88,10.42,0.98,15.68c0.05,2.24,0.73,2.22,2.76,1.32c6.46-2.86,7.92-9.69,11.78-14.54c2.13-2.68,3.9-3.62,6.92-3.12
			c-6.33,8.5-12.83,16.86-19.96,24.72c-0.92,1.01-1.9,1.83-3.25,2.16c-18.4,4.57-36.86,5.81-55.43,1.06
			c1.66-0.04,3.33,0.02,4.97-0.16c2.87-0.3,4.31-1.93,3.21-4.74c-0.8-2.03-1.02-3.47,1.31-4.36c1.26,2.44,2.54,4.86,3.76,7.32
			c0.45,0.92,0.86,1.85,2.07,1.69c1.08-0.14,0.83-1.25,1.18-1.92c1.69-3.31,2.35-7.07,4.57-10.14c1.55,1.57,3.25,2.65,5.63,2.46
			c1.21-0.09,2.34,0.62,2.51,1.94c0.22,1.67-1.06,2.23-2.38,2.65c-1.87,0.6-5.45-0.26-4.97,2.5c0.41,2.39,3.75,0.32,5.73,0.8
			c2.29,0.56,4.6,0.34,6.87-0.24c2.17-0.56,5.32,0.06,3.73-4.25c-0.66-1.81,1.65-2.78,3.33-2.73
			C253.45,275.03,255.01,273.45,256.64,271.83z"/>
		<path class="st87" d="M220.37,185.08c-0.75-8.02-3.03-10.12-11.91-10.99c0.98-2.16,2.95-1.11,4.37-1.11
			c18.32-0.1,36.65-0.02,54.97-0.12c2.67-0.01,3.94,0.46,3.74,3.49c-0.26,3.89-0.06,7.81-0.49,12.06
			c-1.95-9.66-8.72-10.61-16.61-10.29c-7.65,0.31-15.32,0.02-22.98-0.01c-2.3-1.88-3.8-1.41-4.45,1.53
			c-0.18,0.8-0.16,1.62-0.21,2.44C226.52,187.2,225.23,187.79,220.37,185.08z"/>
		<path class="st85" d="M220.37,185.08c3.7,0.96,6.43,0.88,5.16-4.3c-0.24-0.99,0.35-2.27,0.79-3.31c0.58-1.37,1.38-3.07,3.04-2.88
			c1.73,0.19,1.83,2.08,2.11,3.53c-1.68,1.13-2.05,2.72-2.03,4.68c0.1,7.27,0.18,14.54-0.02,21.8c-0.08,2.92,0.96,3.62,3.67,3.5
			c5.11-0.23,10.23-0.16,15.35-0.21c0.69,0.74,3.25-0.92,2.4,1.48c-0.74,2.09-0.15,5.56-4.39,5.17c-4.59-0.42-9.23-0.2-13.84-0.46
			c-2.32-0.13-3.39,0.67-3.31,2.98c-3.48,1.57-6.67,1.86-8.92-2.02c0-0.66,0-1.31-0.01-1.97c0.6-0.56,0.93-1.79,1.66-1.74
			c6.24,0.43,4.39-3.77,4.19-7.08c-0.11-1.81-0.34-3.69,0.04-5.43c1.14-5.23-1.21-8.15-5.91-9.74
			C220.36,187.75,220.37,186.41,220.37,185.08z"/>
		<path class="st88" d="M272.57,226c-1.95-4.09-4.41-7.6-9.08-9.04c-3.54-1.09-1.92-4.23-1.86-6.36c0.08-2.75,2.39-1.52,3.73-1.05
			c2.71,0.96,5.57,0.69,8.32,1.07c3.67,0.51,3.91,2.17,3.96,5.13c0.07,4.1-0.65,8.28,0.73,12.31c-0.24,1.2-0.49,2.4-0.76,3.72
			C274.67,230.61,274.92,227.2,272.57,226z"/>
		<path class="st89" d="M210.45,209.85c0.98,0.03,1.96,0,2.93,0.1c1.13,0.12,3.1-1.85,3.16,1.03c0.04,1.93,0.93,4.39-2.29,5.04
			c-2.62,0.54-5.42,0.44-7.78,2.02c-1.51-0.46-3.16,1.19-4.63-0.45c-2.44-2.73-1.69-5.25,1.93-6.13
			C205.99,210.92,208.22,210.39,210.45,209.85z"/>
		<path class="st90" d="M344.42,492.77c8.62-1.42,16.84-4.34,25.21-6.73c1.84-0.53,2.63-1.8,3.72-3
			c23.87-26.06,49.2-50.34,81.25-66.38c13.26-6.63,27.1-11.15,42.2-10.42c3.08,0.15,5.94,0.78,7.59,3.8
			c-3.94,7.06-8.1,14.01-11.72,21.24c-1.41,2.81-3.72,4.52-5.6,6.74c-0.55,1.67-1.91,1.73-3.26,1.48
			c-10.4-1.86-19.22,2.22-27.86,7.23c-5.54,3.21-12.03,4.65-16.28,10.17c-12.22,15.86-30.06,24.92-42.41,35.26
			c20.8-7.93,40.02-24.53,60.09-39.84c5.62-4.29,12-5.45,18.75-5.61c1.46-0.04,3.05-0.11,4.05,1.38
			c-8.29,10.07-17.89,18.84-27.17,27.95c-6.25,6.14-14.03,10.16-20.57,15.85c-5.18,0-8.46,4.14-12.38,6.42
			c-5.12,2.98-10.6,4.78-15.89,7.07c-6.51,2.82-12.38,6.9-19.27,9.01c-4.18,1.28-8.43,2.2-12.62,3.36
			c-1.49,0.41-3.51-0.39-3.89,2.06c-1.28,0.06-2.55,0.11-3.83,0.17c-6.14,1.04-12.32,1.87-18.39,3.21
			c-3.14,0.69-6.23,0.22-9.32,0.56c-2.87,0.32-5.96-0.94-8.59,1.17c-10.53,0.25-19.55-4.59-28.75-8.68
			c-6.99-3.1-13.88-6.5-19.99-11.22c-2.69-2.08-3.78-1.32-3.75,1.93c0.03,3.24,0.77,6.23,2.41,9.05c0.69,1.19,2.19,2.24,1.17,3.97
			c-9.6,0.34-18.09-3.83-26.8-6.9c-1.72-0.61-3.33-1-5.07-1.22c-0.07-3.8,3.12-5.68,5.06-8.2c3.35-4.33,6.73-8.36,8.23-13.96
			c1.28-4.78,4.08-8.71,10.11-9.65c7.8-1.22,15.11-4.69,23.27-4.85c4.8-0.09,9.18-2.78,13.34-5.21c3.48-2.03,6.14-1.73,8.51,1.71
			c1.97,2.88,4.92,4.94,7.03,7.73c0.71,1.1,1.21,2.29,1.53,3.56c0.4,2.6,1.31,5.14,1.22,7.79c-0.13,3.84,1.94,4.25,5.1,3.8
			C335.35,493.95,339.69,491.85,344.42,492.77z"/>
		<path class="st22" d="M344.42,492.77c-5.3,2.22-10.97,2.78-16.57,3.6c-1.58,0.23-3.28-0.5-3.44-2.7
			c-0.26-3.59-0.56-7.17-0.84-10.76c0.59-0.6,1.31-0.72,2.1-0.56c3.27,1.83,1.19,5.57,2.72,8.15c1.93-1.13,2.14-3.07,2.83-4.68
			c5.54-13.01,10.87-26.11,16.36-39.15c0.55-1.31,2.03-2.79,0.83-4.1c-1.11-1.22-2.83-0.21-4.23,0.16
			c-16.25,4.26-32.45,8.76-48.75,12.82c-9.62,2.39-11.82,5.18-12.12,15.33c-0.03,1,0.04,2-0.46,2.94
			c8.96-0.14,17.37-2.29,24.95-7.15c3.39-2.17,6.22-1.72,8.87,1.15c3,3.26,6.96,5.88,7.17,10.96c-0.28,0.77-0.78,1.31-1.58,1.54
			c-3.38-3.63-6.3-9.44-10.27-10.28c-3.82-0.81-8.54,4.31-13.2,5.42c-9.04,2.15-18.26,3.55-27.38,5.48
			c-5.07,1.07-8.06,3.71-8.98,7.96c-1.88,8.65-8.16,14.17-13.17,20.64c-0.6,0.78-1.2,1.55-1.8,2.33c-1.47-0.59-3.48-0.85-1.26-3.07
			c1.63-1.62,2.93-3.56,4.55-5.19c4.88-4.92,7.71-10.93,9.87-17.4c1.47-4.4,4.49-7.01,9.37-7.49c2.03-0.2,4.86-0.25,4.45-3.8
			c-0.05-0.45,0.72-1.41,1.13-1.42c5.06-0.08,3.78-3.8,3.86-6.66c0.19-6.67,4.49-12.33,11-14.07c19.9-5.29,39.83-10.51,59.74-15.77
			c4.21-1.11,5.82-4.09,3.95-7.87c-5.1-10.31-7.56-21.18-6.77-32.64c0.34-4.97-2.07-7.27-6.37-8.52c-3.08-0.89-6.22-0.9-9.38-1.01
			c-2.07-0.07-4.35,0.81-6.19-0.91c1.71-1.47,3.52-2.06,5.83-1.32c2.07,0.67,4.1-0.05,5.15-1.92c2.04-3.66,4.44-2.32,6.97-0.85
			c0.54,2.23,2.06,3.59,3.88,4.9c2.86,2.04,4.28,4.79,4,8.55c-0.57,7.5,0.38,14.88,2.63,22.07c2.13,6.8,5.2,13.27,7.25,20.11
			c1.08,3.61,3.02,7.07,1.92,11.06c-2.89,1.99-3.98,4.03-0.19,6.23c0.54,0.89,0.72,1.88,0.53,2.87c-0.41,2.1-0.62,4.83-3.18,5.02
			c-2.26,0.17-2.08-2.57-2.72-4.14c-0.75-1.83-1.17-3.81-2.12-5.56c-0.56-1.02-1.16-2.22-2.46-2.21c-1.4,0-1.72,1.39-2.19,2.41
			c-3.7,7.97-6.66,16.25-10.24,24.26c-1.94,4.35-3.57,8.83-5.42,13.37c3.34,0.1,6.34-2.42,9.37-0.11
			C344.39,491.44,344.4,492.11,344.42,492.77z"/>
		<path class="st91" d="M279.31,519.99c-3.87-4.47-5.39-9.64-4.91-15.52c0.22-2.73,0.73-4.11,3.65-2.03
			c15.22,10.83,32,18.22,50.16,22.49c-1.37,1.84-3.45,0.26-5.04,1.05c-13.22-0.72-26.45-1.32-39.49-3.94
			C281.9,521.69,280.74,520.7,279.31,519.99z"/>
		<path class="st90" d="M377.36,163.07c-3.93,8.65-12.09,8.05-19.59,9.04c-7.82,1.03-15.66,1.9-23.1,4.87
			c-6.7,2.67-12.38,6.77-17.54,11.72c-1.07-5.15-0.03-8.49,4.94-11.32c4.07-2.32,6.57-5.08,8.22-9.57c2-5.43,7.27-8.12,12.5-9.79
			c7.46-2.37,14.65-4.94,21.57-8.86c9.81-5.56,20.95-6.45,32.14-6.22c7.63,0.15,15.14,0.96,22.49,3.07c1.04,0.3,2.28-0.1,3.42-0.18
			c8.6,5.11,17.19,10.21,25.78,15.32c1.27,4.36,4.83,6.63,8.26,8.97c2.4,1.64,4.93,3.08,6.03,6c-3.59,1.75-7.64,1.89-11.36,3.16
			c-2.02,0.69-4.38,1.42-4.61,3.99c-0.2,2.28,1.8,3.57,3.41,4.56c3.54,2.17,7.09,4.21,10.08,7.2c3.87,3.87,5.37,12.02,0.95,17.17
			c-5.13,5.98-6.9,13.94-6.35,23.1c1.62-2.88,2.01-6.09,4.55-8.44c1.31,5.54,4.71,9.42,8.67,13.14c9.33,8.78,10.88,26.46,3.79,37.64
			c-1.01,1.6-2.46,2.02-3.9,2.67c-5.32,2.39-10.3,5.27-14.18,9.75c-2.52,2.91-4.73,6.03-5.12,9.97c-0.48,4.92-2.19,8.65-6.66,11.59
			c-4.59,3.02-7.62,7.59-8.83,13.35c-0.66,3.16,0.64,5.71,0.92,8.53c-4.96-0.45-6.64,1.04-8.89,8.05
			c-4.95-3.48-7.54-8.31-6.35-14.01c0.76-3.66-0.42-5.3-3.15-6.88c1.7-1.69,3.32-3.09,4.28-5.39c1.75-4.19,5.99-5.05,9.97-5.17
			c4.23-0.12,6.06-1.58,5.75-5.98c-0.32-4.56,2.72-7.58,5.98-10.37c-7.25-2.55-7.8-10.2-1.06-17.17c-3.69-0.76-6.95-1.89-8.65-5.43
			c-2.62-5.46-1.72-8.66,3.5-11.72c0.86-0.5,1.71-1.03,2.61-1.46c2.75-1.33,5.82-5.39,7.92-3.76c2.52,1.96,2.36,6.65,2.45,10.28
			c0.06,2.45-0.48,4.92-0.83,7.37c-0.33,2.28-0.78,4.54-1.22,7.05c7.65-6.56,10.71-23.63-1.41-32.47
			c-9.27-6.76-16.37-14.33-17.61-27.14c-3.9,10.22-0.53,18.07,4.43,25.57c1.37,2.07,3.49,4.07,0.09,6.04
			c-2.74,1.59-5.32,4-8.68,0.49c-8.71-9.1-32.58-5.46-35.91,6.17c-1.06,3.71,0.33,7.46-1.21,11.69c-2.84-4.91-7.57-8.7-2.77-14.39
			c-3.09-3.31,2.92-7.49-1.15-11.04c-0.97-0.85,1.57-2.9,2.3-4.5c0.42-0.91,1.93-2.78,0.68-2.76c-5.46,0.05-3-3.96-3.58-6.28
			c-1.57-6.22-4.68-11.58-8.69-16.51c-6.81-8.37-5.96-18,2.19-25.26c1.44-1.29,3.03-2.21,1.7-4.82c-3.45-6.81-2.09-13.34,1.95-19.5
			c0.47-2.14,2.23-3.15,3.79-4.34C380.59,160.86,379.3,162.46,377.36,163.07z"/>
		<path class="st92" d="M476.57,192.16c-1.87,2.14-3.75,4.28-5.89,6.74c-1.39-4.42,1.77-6.45,3.99-8.88
			C475.97,190.14,476.44,191,476.57,192.16z"/>
		<path class="st93" d="M485.38,201.52c-1.32,2.41-3.75,1.15-4.48,0.32c-1.52-1.72,0.15-3.4,1.41-4.81
			C483.63,198.31,485.11,199.5,485.38,201.52z"/>
		<path class="st94" d="M480.12,448.1c-11.2-1.51-20.1,3.13-28.51,9.99c-9.36,7.63-18.95,15.04-28.91,21.86
			c-9.59,6.57-20.54,10.78-31.36,15.44c6.37-4.85,12.76-9.67,19.12-14.55c7.22-5.53,14.41-11.11,21.61-16.67
			c0.39-0.3,0.94-0.54,1.13-0.95c6.32-13.1,20.12-15.75,31.14-22.27c6.04-3.57,12.79-2.55,19.33-2.68c1.15-0.02,2.29,0.36,3.39-0.24
			C486.95,442.9,483.46,445.45,480.12,448.1z"/>
		<path class="st95" d="M155.26,438.27c-0.32-4.15,2.3-6.33,5.56-7.83c1.46-0.67,2.08-0.96,1.73-2.91
			c-1.65-8.97,2.48-14.28,11.81-15.43c2.28-0.28,4.63-0.02,6.93-0.16c3.82-0.25,0.68,2.03,1.14,2.99c-1.21,2.32,0.18,3.21,2.23,3.91
			c-0.58-1.36-3.93-1.15-1.99-3.66c1.53-1.5,2.32-3.84,5.38-3.31c3.22,0.56-0.23,1.77,0.7,2.67c6.4-5.84,12.36-1.52,18.08,1.46
			c9.1,4.74,17.23,11.05,25.46,17.14c4.42,3.27,3.81,6.57-1.32,8.89c-5.75,2.61-10.57-0.03-14.54-3.63
			c-4.52-4.1-10.15-6.03-15.12-9.18c-1.33-0.84-2.87-0.54-4.29,0.21c-7.57,3.99-15.02,2.45-22.45-0.49
			c-0.87-0.35-1.79-0.57-3.72-1.18c3.25,5.59,8.76,6.24,12.69,9.05c4.15,2.96,9.22,3.27,14.04,4.05c2.5,0.41,4.82,1.16,7.14,2.03
			c3.33,1.26,6.54,2.56,5.75,7.25c-0.77,4.57-3.63,7-7.89,7.6c-2.56,0.37-5.2,0.2-7.88-0.49c-4.49-1.17-8.85-2.87-13.77-2.59
			c-2.43,0.14-5.28-0.69-7.43-3.14c-2.43-2.77-6.1,0.59-9.1-0.71C159.98,447.64,157.84,442.79,155.26,438.27z"/>
		<path class="st96" d="M200.3,483.3c1.8-5.62,3.59-11.25,5.42-16.97c7.81,3.42,15.42,6.34,23.65,7.69
			c-4.2,7.36-6.4,15.56-12.98,21.06c-3.36,1.21-4.78-1.95-6.58-3.42C206.56,489.02,202.47,487.21,200.3,483.3z"/>
		<path class="st97" d="M170.62,458.29c1.48-1.03,2.96-2.05,4.63-3.21c2.41,6.2,6.57,10.7,12.61,13.72
			c4.32,2.16,5.29,6.83,6.54,11.09c-8.1-5.44-15.32-11.9-21.69-19.26C172.05,459.87,170.65,459.61,170.62,458.29z"/>
		<path class="st22" d="M240.5,529.78c1.62-1.8,0.26-5.59,3.99-5.96c1.29,1.77,3.05,3.65,1.44,5.85
			C244.45,531.7,242.35,531.41,240.5,529.78z"/>
		<path class="st90" d="M362.35,448.94c0.46-4.46-1.74-8.28-2.94-12.35c-2.5-8.53-7.05-16.39-8.51-25.23
			c-0.81-4.86-2.11-9.86-1.21-14.74c0.96-5.23-1.13-8.58-5.49-10.2c-3.69-1.37-2.65-2.58-0.86-4.47
			c8.27-8.85,16.55-17.71,24.82-26.56c-2.24,1.28-3.37-0.29-3.96-3.58c-1.34-7.55-3.33-14.98-5.18-23.03
			c-3.27,4.91-1.14,9.32-0.2,13.46c0.99,4.39,0.55,8.5-0.46,12.68c-0.31,1.28-0.9,2.47-2.3,2.99c-10.55,3.92-20.39,10.16-32.23,9.93
			c-1.82-0.04-3,1.35-4.25,2.38c-5.37,4.42-11.62,6.69-18.41,7.58c-3.37,0.45-7.97-4.73-8.8-9.52c-0.86-4.98-0.88-10.11,0.33-14.83
			c1.57-6.16,0.21-11.23-2.74-16.46c-3.45-6.1-2.54-7.93,4.21-9.6c0.95-0.24,1.95-0.35,2.93-0.37c2.61-0.05,5.22-0.02,8.82-0.02
			c-3.81,5.76-7.94,9.09-13.44,10.7c9.01,0.44,13.11-6.23,17.92-12.27c-19.93-5.86-22.29-5.92-22.66-0.64
			c-1.24-0.09-1.93-1.43-1.92-2c0.08-6.18-2.56-12.16-0.76-18.56c0.66-2.32,1.14-2.35,2.83-1.95c0.81,0.19,1.6,0.5,2.42,0.56
			c1.06,0.08,2.56,0.75,2.95-0.82c0.47-1.92-1.24-1.95-2.5-2.28c-4.33-1.16-8.5-0.21-12.63,0.99c-3.44,1-6.85,1.9-10.52,1.44
			c-4.49-0.57-5.57-3.06-4.09-6.95c1.75-4.61,3.54-9.38,6.92-12.96c6.85-7.26,11.52-16.54,19.07-22.83
			c7.44-6.2,8.72-13.2,8.15-21.83c-0.61-9.17,0.89-17.82,8.38-24.37c0.91-0.8,1.05-2.36,1.52-3.57
			c8.09-20.58,22.47-32.99,45.19-34.61c4.58-0.33,9.11-1.31,13.66-1.96c2.78-0.4,5.29-0.47,3.53,3.6c-0.79,1.83-0.42,3.58,0.47,5.21
			c1.08,1.97,0.47,3.57-0.37,5.49c-2.37,5.4-4.91,10.75-4.73,16.96c0.1,3.35,1.01,6.04,3.15,8.55c3.98,4.66,7.72,9.47,9.31,15.59
			c0.81,3.12,1.61,6.52-0.19,9.15c-2.56,3.77-1.78,6.94,0.12,10.4c1.72,3.12,3.01,5.98,0.95,9.87c-1.46,2.75,0.16,6.01,2.12,8.72
			c1.81,2.51,3.93,5.27,0.38,8.17c-0.3,0.24-0.59,1.05-0.54,1.08c2.16,1.48,4.26,3.11,6.6,4.24c1.76,0.85,2.31-1.18,3.14-2.2
			c2.4-2.94,4.31-6.14,5.86-9.66c5.14-11.67,15.9-13.52,24.55-4.38c9.05,9.55,9.86,27.17,1.93,38.14
			c-3.59,4.97-8.24,8.89-12.67,12.97c-3.24,2.98-7.6,4.2-11.92,1.97c-3-1.54-6.7,1.56-9.47-1.51c1.66,5.07,5.94,6.53,10.48,6.45
			c4.37-0.07,5.68,1.18,5.38,5.59c-0.79,11.34-5.85,20.11-14.89,26.75c-1.98,1.45-4.02,2.82-6.16,4.32
			c16.82-1.68,28.6-15.44,30.29-35.3c1.39,0.58,2.61,0.91,2.41,3.03c-1.08,11.39,2.57,16.62,13.86,20.25
			c0.11-0.29,0.4-0.69,0.3-0.85c-1.76-2.93-3.62-6.45-0.36-8.85c2.97-2.19,5.78,0.52,8.54,2.41c3.39,2.33,3.44,4.08,1.41,7.56
			c-4.63,7.89-2.62,15.82,5.38,23.18c0.36-2.66-0.41-5.47,2.36-7.14c2.61-1.57,4.89,0.06,7.19,0.47c5.79,1.04,11.43,1.25,17.2-0.86
			c0.08,0.57,0.44,1.32,0.23,1.79c-3.75,8.2-0.07,14.4,5.14,20.38c2.35,2.7,4.21,5.83,7.13,9.97c-10.73-3.63-20.18-6.73-29.56-10.03
			c-10.78-3.8-10.64-3.79-17.29,5.07c-5.74,7.65-10.97,15.68-18.24,22.17c-2.57,2.29-2.13,6.46-1.94,9.93
			c0.17,3.16,0.09,6.45,0.99,9.41c1.28,4.2-0.81,6.26-3.68,8.51c-15.6,12.24-29.75,26.01-42.77,40.94c-1.66,1.9-3.48,3.2-6.07,3.87
			c-7.25,1.89-14.4,4.17-21.59,6.3c-3.85,0.66-7.7,1.33-11.75,2.02c5.96-14.09,12.03-27.85,17.55-41.83
			c1.91-4.83,3.39-2.65,5.15-0.45c2.8,3.5,3.28,7.97,4.66,12.77c1.39-3.05,2.88-5.39,2.37-8.35
			C360.83,452.93,360.83,450.93,362.35,448.94z"/>
		<path class="st90" d="M229.44,400.79c-1.69-0.99-3.38-1.98-5.07-2.98c-1.26-1.73-0.48-3.39,0-5.16
			c3.18-11.74,7.46-23.18,9.33-35.25c0.59-3.69-1.85-2.4-3.28-1.75c-6.78,3.05-13.89,4-21.23,3.73c-5.04,1.95-5.51,1.68-5.84-3.4
			c2.75-15.3,8.98-29.19,17.2-42.26c0.83-1.33,2.12-1.31,3.46-1.44c22.65-2.17,42.26,4.84,59.43,19.46
			c1.87,1.59,1.95,3.35,1.67,5.32c-2.55,17.82-7.36,35.04-13.94,51.78c-1.39,3.55-4.11,5.93-6.72,8.45
			c-0.45-0.4-0.49-0.84-0.13-1.32c6.65-14.69,12.25-29.75,16.37-46.04c-7.61,2.14-14.9,2.82-22.27,3.03
			c-3.05,0.09-5.93-0.73-8.9-0.95c-1.93-0.14-4.05-0.53-4.7,2.17c-1.15,8.57-4.92,16.36-7.45,24.52c-2,6.45-4.55,12.73-5.96,19.37
			C231.15,399.23,230.53,400.19,229.44,400.79z"/>
		<path class="st98" d="M229.44,400.79c2.2-11.54,6.7-22.32,10.58-33.33c1.56-4.44,2.34-9.16,4.8-13.29
			c9.63,3.38,19.46,3.88,30.62,1.14c-4.28,9.97-7.9,18.76-11.82,27.41c-3.21,7.07-6.68,14.02-10.24,20.92
			c-1.15,2.23-1.16,3.66,1.26,4.7c1,1.66,0.31,3.31-0.01,4.96c0.07,0.25-0.01,0.42-0.25,0.51c-1.54,1.36-2.45,3.13-3.02,5.04
			c-2.49,8.27-7.05,15.68-9.93,23.79c-0.95,2.66-2.39,5.38-5.36,6.13c-2.66,0.67-5.81,1.27-6.61-2.87c1.02-0.51,2.07-0.97,3.06-1.54
			c6.81-3.91,7.13-9.48,0.82-14.03c-2.63-1.9-5.27-3.78-9.02-6.46c6.56,0.85,10.68-1.09,14-5c3.43-4.05,3.05-9.35-1.15-12.64
			C234.68,404.29,232.02,402.6,229.44,400.79z"/>
		<path class="st99" d="M199.24,396.07c-2.46,1.75-4.21,5.29-7.74,7.43c-4.65,2.83-9.57,3.15-14.43,4.32
			c-1.87,0.45-2.69-0.39-2.6-2.41c0.18-4,1.98-6.9,5.61-8.54c5.24-2.37,10.68-4.35,15.75-7.04c2.77-1.46,4.89-0.2,6.93,0.64
			c10.81,4.45,21.2,9.77,30.86,16.4c3.2,2.2,5.7,4.84,3.5,9.09c-2.2,4.23-5.43,5.16-10.52,2.84c-4.45-2.03-9.32-2.97-13.45-5.96
			c-1.63-1.18-3.17-2.08-3.65-3.99c-0.54-2.13-1.96-3.13-3.7-4.26C202.68,402.58,200.72,399.55,199.24,396.07z"/>
		<path class="st100" d="M234.44,357.11c0.98,7.74-2.84,14.52-4.48,21.72c-1.46,6.42-3.7,12.67-5.59,18.99
			c-5.7-2.89-11.3-6-17.3-8.29c-1.13-0.43-3.05-0.64-2.92-2.23c0.14-1.73,2.02-1.86,3.44-2.29c2.04-0.63,4.16-1.19,6.03-2.18
			c3.4-1.81,5.75-4.43,5.22-8.71c-0.53-4.24-2.87-6.89-6.93-8.09c-1.26-0.37-2.51-0.78-3.76-1.18c-2.33-3.96-0.26-5.56,3.38-6.34
			c5.96,0.39,11.76-0.46,17.45-2.21C230.93,355.69,232.84,355.39,234.44,357.11z"/>
		<path class="st96" d="M201.4,461.2c6.44-1.63,10.93-4.6,11.97-11.04c0.29-1.78,1.29-0.82,2.12-0.52
			c7.67,2.85,15.35,5.68,23.02,8.54c1.74,0.65,2.39,1.7,2.18,3.79c-0.73,7.42-3.33,9.21-10.94,8.67
			C219.78,469.93,211.14,465.67,201.4,461.2z"/>
		<path class="st101" d="M194.95,386.92c-6.99,3.52-6.82,3.47-8.58-3.06c-0.79-2.96-0.95-5.87-0.91-8.85
			c0.09-6.18,3.34-8.39,9.47-7.31c4.32,0.76,8.76-1.17,13.25,0.16c1.88,0.56,3.83,1,5.45,2.01c3.47,2.17,3.78,6.82,0.83,9.35
			c-6.86,5.88-15.87,4.82-20.93-2.56c-1.42-2.07-2.46-2.42-4.74-0.75c-2.25,1.64-3.01,2.74-0.78,4.71
			C190.35,382.7,190.19,387.1,194.95,386.92z"/>
		<path class="st102" d="M264.65,419.89c-0.61-5.44,5.02-7.9,5.43-11.03c0.45-3.42-2.34-7.62-0.63-11.86
			c1.58-3.92,4.66-6.39,8.24-8.1c2.02-0.96,4.22-0.01,5.89,1.59c2.08,1.99,2.21,4.44,1.2,6.89c-2.98,7.23-6.25,14.25-13.6,18.27
			C269.01,416.83,267.02,418.33,264.65,419.89z"/>
		<path class="st103" d="M229.45,445.89c4.94,4.02,8.55,2.28,10.96-4.21c3.18-8.58,7.02-16.93,10.85-25.26
			c0.43-0.93,1.09-2.96,3.11-2.61c-5.73,13.08-8.3,27.13-12.31,40.98c-8.88-2.99-17.72-5.55-26.23-8.96
			c-5.56-2.23-10.29-6.4-16.46-7.42c-0.71-0.12-1.12-0.74-0.92-1.48c0.28-1.03,0.85-1.06,1.83-0.66c5.72,2.37,12.11,2.84,17.41,6.46
			C221.18,445.1,225.24,445.91,229.45,445.89z"/>
		<path class="st104" d="M393.96,256.11c-1.48,2.41-2.5,4.98-3.84,8.17c2.74-1.57,4.14-3.77,7.15-4.45
			c-2.69,5.26-5.15,10.21-7.76,15.08c-0.75,1.4-1.62,2.99-3.84,1.54c-2.78-1.82-0.26-2.69,0.57-3.73c1.63-2.05,2.04-4.37,2.24-6.9
			C388.79,261.83,390.12,258.26,393.96,256.11z"/>
		<path class="st65" d="M253.55,424.91c1.86-9.39,7.19-16.99,12.67-24.51c-4.03,8.27-7.21,16.98-12.75,24.46L253.55,424.91z"/>
		<path class="st105" d="M210.21,359.15c-2.36,1.29-2.52,3.38-2.06,5.69c-7.92,0.44-8.11,0.08-4.8-8.88c0.64,3.5,2.06,5,5.21,2.01
			C208.87,358.7,210.05,358.2,210.21,359.15z"/>
		<path class="st106" d="M377.36,163.07c0.72-0.87,1.32-1.9,2.19-2.57c1.66-1.28,3.48-2.36,5.91-2.82
			c-2.33,2.18-4.66,4.36-6.99,6.53C378.11,163.83,377.74,163.45,377.36,163.07z"/>
		<path class="st107" d="M254.62,413.3c0-1.65,0-3.31,0.01-4.96c0.9,0.48,1.78,0.41,3.05,0.19
			C256.66,410.11,255.64,411.71,254.62,413.3z"/>
		<path class="st108" d="M253.47,424.86c0.66,1.83-0.66,3.05-1.69,5.02c-0.1-2.33-0.03-3.93,1.77-4.97
			C253.55,424.91,253.47,424.86,253.47,424.86z"/>
		<path class="st109" d="M264.32,395.96c0.04,0.44,0.08,0.88,0.13,1.32c-0.01,1.22-0.57,2.05-1.83,2.58
			C262.46,398.14,263.12,396.94,264.32,395.96z"/>
		<path class="st23" d="M256.64,271.83c0.24,3.6-1.67,4.61-4.93,4.23c-1.29-0.15-2.93-0.32-3.52,1.16c-0.46,1.15,0.95,1.49,1.7,2.08
			c1.86,1.44,0.7,2.1-0.74,2.69c-5.96,2.45-12.29,1.33-18.45,1.85c-1.22,0.1-2.17-1-2.08-2.35c0.13-1.9,1.61-2.75,3.1-3.58
			c1.19-0.66,2.26,0.04,3.39,0.06c1.17,0.03,2.72-0.03,2.59-1.54c-0.12-1.45-1.62-1.57-2.78-1.09c-3.67,1.53-4.41-0.61-4.6-3.52
			c7.23-16.09,14.45-32.19,21.68-48.28c0.44,0.06,0.88,0.12,1.32,0.18C254.44,239.76,255.54,255.79,256.64,271.83z"/>
		<path class="st87" d="M220.38,215.05c2.45,2.96,5.98,1.23,8.92,2.02c0.05,12.82,0.13,25.64,0.15,38.46
			c0.01,3.63-2.18,6.43-3.86,10.16c-2.75-3.9-5.36-7.41-5.41-11.7C220.04,241.01,220.29,228.03,220.38,215.05z"/>
		<path class="st87" d="M220.36,189.08c4.22-0.78,7.99,2.3,7.51,6.18c-0.58,4.6-0.76,9.15,0.32,13.75c0.53,2.26,0.85,5.35-3.26,3.03
			c-1.9-1.07-3.04,0.67-4.55,1.04C219.87,205.08,219.87,197.08,220.36,189.08z"/>
		<path class="st84" d="M322.23,480.32c0.47-0.49,0.94-0.99,1.41-1.48c2.53,0.4,3,1.84,2,4c-0.69,0.03-1.39,0.05-2.08,0.08
			C323.12,482.05,322.68,481.18,322.23,480.32z"/>
		<path class="st110" d="M325.65,482.83c-0.03-1.65-0.27-3.2-2-4c-2.58-4.25-5.25-8.43-9.27-11.54c-1.05-0.82-1.87-1.96-3.41-0.92
			c-9.14,6.16-19.28,9.12-29.85,8.71c3.61-2.1,0.12-6.05,1.11-9.47c1.33-4.59,3.98-9.14,8.54-10.33
			c19.55-5.13,39.11-10.19,58.68-15.24c0.58-0.15,1.26,0.11,2.17,0.22c-7.15,17.22-14.2,34.22-21.3,51.18
			c-0.4,0.96-0.79,2.56-2.25,2.09c-0.64-0.2-1.06-1.57-1.29-2.48C326.12,488.35,327.17,485.42,325.65,482.83z"/>
		<path class="st84" d="M362.35,448.94c0.66,2,0.66,4,0,5.99c-2.57,0.12-4.03-0.89-3.92-3.68
			C358.55,448.41,360.67,449.07,362.35,448.94z"/>
		<path class="st111" d="M421.21,220.06c-4.08,0-8.16,0.1-12.23-0.02c-6.24-0.19-11.16-4.21-12.38-10.17
			c-0.3-1.46-1.03-3.24,1.05-4.37c3.55-1.92,12.25-0.1,15.75,3.55c1.25,1.3,2.37,2.82,3.19,4.42c1.14,2.21,2.14,4.42,5.02,5.1
			C421.48,219.07,421.34,219.56,421.21,220.06z"/>
		<path class="st112" d="M414.8,164.38c11.39-0.69,18.95,8.19,18.37,20.84c-2.75-0.92-5.52-1.89-8.85,0.1
			C426.96,175.7,425.36,168.21,414.8,164.38z"/>
		<path class="st113" d="M386.96,234.45c2.78-7.08,2.46-13.03-1.64-20.04c5.7,3.66,10.11,6.49,14.28,9.17
			c0.2,2.2-5.93,2.25-1.18,5.13c-0.7,0.38-1.36,0.96-2.1,1.11C393.18,230.45,390.52,232.03,386.96,234.45z"/>
		<path class="st56" d="M458.3,252.94c5.04,4.03,5.46,9.95,2.33,18.22c-1.54,4.05-3.6,6.05-8.34,4.3
			C457.39,268.9,458.84,261.31,458.3,252.94z"/>
		<path class="st114" d="M414.44,195.36c-7.86-1.36-15.26-0.67-22.71,1.83c0.1-6.17,9.48-4.18,8.77-11.19
			C405.37,189.27,409.91,192.31,414.44,195.36z"/>
		<path class="st115" d="M183.4,449.26c1.31-2.53,2.53-5.16,5.59-6.4C188.78,446.42,188.56,449.87,183.4,449.26z"/>
		<path class="st116" d="M182.67,415.18c0.21,1.96,1.45,2.49,3.13,2.02c1.71-0.48,2.34,0.82,2.33,1.78
			c-0.03,1.67-1.7,1.19-2.71,1.21c-3.89,0.07-4.84-1.67-2.98-5.26C182.43,414.93,182.67,415.18,182.67,415.18z"/>
		<path class="st117" d="M232.28,435.27c-1.39,3.47-3.33,6.15-7.66,5.44C227.83,439.73,230,437.41,232.28,435.27z"/>
		<path class="st118" d="M212.39,424.32c-1.15,2.03-1.8,4.52-4.99,5.64C208.32,426.67,210.23,425.37,212.39,424.32z"/>
		<path class="st119" d="M169.08,446.39c2.64-0.26,3.92-1.67,5.26-0.28c0.32,0.33,0.03,1.87-0.44,2.22
			C172.29,449.51,171.46,447.87,169.08,446.39z"/>
		<path class="st120" d="M223.64,431.79c-0.66,2.83-0.61,5.02,0.22,7.88C220.66,436.89,220.49,434.61,223.64,431.79z"/>
		<path class="st121" d="M206.05,449.18c0.98,3.04-0.33,4.53-2.82,5.45C204.11,452.93,204.99,451.23,206.05,449.18z"/>
		<path class="st122" d="M175.62,436.34c-1.27,0.98-2.54,1.95-4.08,3.14C172.28,437.52,173.01,436.01,175.62,436.34z"/>
		<path class="st123" d="M316.73,247.92c-2.74,0.75-4.34-2.75-6.53-0.05c-2.76,3.41-2.54,4.95,1.5,6.76
			c4.53,2.03,8.69,4.61,13.08,8.15c-4.21-0.04-6.67-3.35-10.16-3.35c-0.75,4.31-0.84,8.11,5.75,6.88c-2.2,0.97-4.34,1.12-6.31,1.58
			c-5.48,1.27-5.54,1.02-6.11,6.77c-0.42-5.2-3.63-7.14-8.09-8.41c-3.59-1.03-5.04-4.3-2.52-7.44c3.96-4.93,3.04-10.48,3.06-15.99
			c0-0.99-0.19-1.98-0.23-2.97c-0.11-2.35-0.16-5.53,1.68-6.35c2.29-1.02,2.72,2.63,4.36,3.84c0.63,0.47,1.09,1.18,2.04,2.24
			c0.2-2.09,0.36-3.76,0.61-6.43C310.88,238.94,313.36,243.57,316.73,247.92z"/>
		<path class="st124" d="M303.41,295.99c3.7,7,7.74,12.33,13.15,16.5c1.14,0.88,0.91,2.03,0.87,3.15
			c-0.22,6.29-0.4,12.59-0.75,18.87c-0.1,1.87,0.03,3.5,0.89,5.23c1.97,3.95,3.55,8.06,3.68,13.56c-2.65-6.29-4.09-12.05-8.38-16.5
			c-1.42-1.47-0.74-4.22-0.26-6.24c2.04-8.59,1.38-16.29-5.3-23.02C304.76,304.96,303.5,301.13,303.41,295.99z"/>
		<path class="st125" d="M410.34,268.46c-2.98-0.88-4.97-0.3-4.93,3.32c0,0.32-0.02,0.7-0.18,0.96c-3.39,5.42-2.56,9.09,3.57,12.22
			c4.07,2.08,3.59,7.05,1.4,10.18c-3.04,4.33-7.62,7.37-13.2,7.83c-3.51,0.29-4.47-1.46-2.52-4.52c0.27-0.42,0.44-0.94,0.8-1.24
			c3.58-3.01,5.78-6.41,2.08-12.05c6.05,3.65,6.33,5.2,3.18,11.69c1.36,0.08,2.61,0.22,3.86,0.21c3.19-0.03,4.74-2.35,5.73-4.8
			c1.06-2.6-0.82-4.35-2.74-5.81c-0.52-0.39-1.18-0.6-1.73-0.96c-5.92-3.91-6.53-13.88-1.05-18.52c2.21-1.88,4.23-1.16,5.86,1.04
			L410.34,268.46z"/>
		<path class="st126" d="M341.79,267.73c-1.78,0.39-3.62,1.06-4.71-0.6c-5.99-9.21-20.85-11.89-19.08-26.42
			c-0.19-0.04,0.23-0.04,0.26,0.07c2.36,8.56,8.68,13.61,15.74,18.11C337.36,261.02,340.32,263.68,341.79,267.73z"/>
		<path class="st127" d="M357.17,221.51c-6.7,7.16-13.41,14.31-20.09,21.49c-0.88,0.95-1.53,1.6-2.8,0.45
			c-1.19-1.08-0.95-1.78,0.03-2.82C341.15,233.35,347.86,225.93,357.17,221.51z"/>
		<path class="st128" d="M328.99,353.69c-0.89-5.93-1.68-11.07-2.42-16.22c-0.14-0.98,0.06-1.89,0.47-2.86
			c0.82-1.92,1.69-4.04,4.07-3.45c2.19,0.54,1.8,2.97,1.52,4.59C331.6,341.51,330.32,347.23,328.99,353.69z"/>
		<path class="st129" d="M290.1,306.9c8.12-4.7,8.12-4.7,6.26-12.36c2.62,2.85,5.5,5.29,4.03,8.62
			C298.48,307.48,293.42,305.2,290.1,306.9z"/>
		<path class="st130" d="M326.17,279.91c-0.43,6.02-4.03,9.14-10.46,8.81C319.76,286.11,323.47,283.78,326.17,279.91z"/>
		<path class="st131" d="M337.24,272.21c-3.58-1.18-5.9-6.42-11.9-1.9c3.44-4.97,5.91-6.73,9.1-2.24c0.94,1.32,2.14,2.46,3.22,3.69
			C337.52,271.9,337.38,272.06,337.24,272.21z"/>
		<path class="st132" d="M409.47,306.48c1.76-1.86,3.52-3.73,6.02-6.37C414.7,304.21,412.36,305.55,409.47,306.48z"/>
		<path class="st133" d="M410.48,267.98c2.24-0.43,2.55,1.62,3.65,2.68c-1.75,0.01-2.76-1.13-3.79-2.21c0,0.01-0.11-0.29-0.11-0.29
			L410.48,267.98z"/>
		<path class="st131" d="M337.66,271.75c1.35,0.36,2.05,1.44,3.01,2.82c-1.7-0.37-2.77-1.05-3.43-2.36
			C337.38,272.06,337.52,271.91,337.66,271.75z"/>
		<path class="st134" d="M210.21,359.15c-0.6-0.32-1.74,0.13-1.65-1.17c9.65,1.1,18.47-2.33,28.08-5.95
			c-0.64,2.54-0.69,4.08-2.19,5.08c-5.13-0.58-9.87,1.91-14.92,1.95C216.42,359.08,213.31,359.12,210.21,359.15z"/>
		<path class="st135" d="M228.22,408.68c4.54-1.23,6.18,0.18,5.92,5.6c-1.23-2.68-1.77-5.73-5.43-5.07
			C228.24,409.31,228.06,409.15,228.22,408.68z"/>
		<path class="st136" d="M228.71,409.2c-0.87,0.88-1.74,1.77-2.97,3.02c-0.23-2.46,0.81-3.24,2.48-3.54
			C228.36,408.88,228.52,409.05,228.71,409.2z"/>
		<path class="st137" d="M205.85,370.13c1.13,0.95,0.34,2.55,1.62,3.37c0.46,0.29,3.07,0.04,1.24,1.92
			c-1.44,1.47-2.37,0.04-3.16-0.9C204.51,373.28,204.35,371.87,205.85,370.13z"/>
		<path class="st138" d="M306.44,254.3c3.25,3.45,1.68,7.31,3.28,10.19c0.34,0.62-0.87,0.56-1.41,0.57
			c-1.03,0.04-1.91-0.13-1.88-1.54C306.47,260.79,306.44,258.05,306.44,254.3z"/>
	</g>
</g>
</svg>
