<svg width="161" height="50" viewBox="0 0 161 50" fill="none" xmlns="http://www.w3.org/2000/svg">
<rect width="161" height="50" fill="white"/>
<path d="M44.4005 6.3L38.1005 21H34.0055L27.7265 6.3H32.2205L36.2105 15.876L40.2845 6.3H44.4005ZM57.6979 19.887C56.9419 20.321 56.0249 20.664 54.9469 20.916C53.8689 21.168 52.7489 21.294 51.5869 21.294C50.0189 21.294 48.6819 21.105 47.5759 20.727C46.4839 20.349 45.6579 19.824 45.0979 19.152C44.5519 18.48 44.2789 17.703 44.2789 16.821C44.2789 16.051 44.4889 15.372 44.9089 14.784C45.3289 14.196 45.9099 13.741 46.6519 13.419C46.0779 13.125 45.6369 12.719 45.3289 12.201C45.0349 11.669 44.8879 11.088 44.8879 10.458C44.8879 9.646 45.1399 8.904 45.6439 8.232C46.1619 7.56 46.9459 7.021 47.9959 6.615C49.0459 6.209 50.3409 6.006 51.8809 6.006C52.8469 6.006 53.7989 6.097 54.7369 6.279C55.6749 6.461 56.5009 6.706 57.2149 7.014L56.0809 10.122C54.7789 9.548 53.4349 9.261 52.0489 9.261C51.0549 9.261 50.3129 9.394 49.8229 9.66C49.3329 9.912 49.0879 10.269 49.0879 10.731C49.0879 11.571 49.6969 11.991 50.9149 11.991H55.0729V15.162H50.6419C49.9279 15.162 49.3889 15.281 49.0249 15.519C48.6609 15.743 48.4789 16.079 48.4789 16.527C48.4789 17.003 48.7449 17.374 49.2769 17.64C49.8089 17.906 50.6349 18.039 51.7549 18.039C52.5529 18.039 53.3719 17.934 54.2119 17.724C55.0659 17.5 55.8079 17.199 56.4379 16.821L57.6979 19.887ZM76.5489 6.006C78.2849 6.006 79.6359 6.524 80.6019 7.56C81.5819 8.582 82.0719 10.066 82.0719 12.012V21H77.9139V12.138C77.9139 11.256 77.6829 10.591 77.2209 10.143C76.7589 9.681 76.1429 9.45 75.3729 9.45C74.5469 9.45 73.8889 9.695 73.3989 10.185C72.9229 10.661 72.6849 11.382 72.6849 12.348V21H68.5269V12.138C68.5269 11.256 68.3099 10.591 67.8759 10.143C67.4559 9.681 66.8749 9.45 66.1329 9.45C65.3349 9.45 64.6979 9.695 64.2219 10.185C63.7459 10.661 63.5079 11.382 63.5079 12.348V21H59.3499V6.3H63.3819V7.938C63.8299 7.308 64.4039 6.832 65.1039 6.51C65.8179 6.174 66.6439 6.006 67.5819 6.006C68.5479 6.006 69.3879 6.181 70.1019 6.531C70.8299 6.881 71.4179 7.392 71.8659 8.064C72.3699 7.392 73.0279 6.881 73.8399 6.531C74.6519 6.181 75.5549 6.006 76.5489 6.006ZM96.1799 21.294C94.9899 21.294 93.8349 21.147 92.7149 20.853C91.5949 20.559 90.6849 20.167 89.9849 19.677L91.3499 16.611C92.0079 17.045 92.7709 17.395 93.6389 17.661C94.5069 17.927 95.3609 18.06 96.2009 18.06C97.7969 18.06 98.5949 17.661 98.5949 16.863C98.5949 16.443 98.3639 16.135 97.9019 15.939C97.4539 15.729 96.7259 15.512 95.7179 15.288C94.6119 15.05 93.6879 14.798 92.9459 14.532C92.2039 14.252 91.5669 13.811 91.0349 13.209C90.5029 12.607 90.2369 11.795 90.2369 10.773C90.2369 9.877 90.4819 9.072 90.9719 8.358C91.4619 7.63 92.1899 7.056 93.1559 6.636C94.1359 6.216 95.3329 6.006 96.7469 6.006C97.7129 6.006 98.6649 6.118 99.6029 6.342C100.541 6.552 101.367 6.867 102.081 7.287L100.8 10.374C99.3999 9.618 98.0419 9.24 96.7259 9.24C95.8999 9.24 95.2979 9.366 94.9199 9.618C94.5419 9.856 94.3529 10.171 94.3529 10.563C94.3529 10.955 94.5769 11.249 95.0249 11.445C95.4729 11.641 96.1939 11.844 97.1879 12.054C98.3079 12.292 99.2319 12.551 99.9599 12.831C100.702 13.097 101.339 13.531 101.871 14.133C102.417 14.721 102.69 15.526 102.69 16.548C102.69 17.43 102.445 18.228 101.955 18.942C101.465 19.656 100.73 20.23 99.7499 20.664C98.7699 21.084 97.5799 21.294 96.1799 21.294ZM117.253 19.887C116.497 20.321 115.58 20.664 114.502 20.916C113.424 21.168 112.304 21.294 111.142 21.294C109.574 21.294 108.237 21.105 107.131 20.727C106.039 20.349 105.213 19.824 104.653 19.152C104.107 18.48 103.834 17.703 103.834 16.821C103.834 16.051 104.044 15.372 104.464 14.784C104.884 14.196 105.465 13.741 106.207 13.419C105.633 13.125 105.192 12.719 104.884 12.201C104.59 11.669 104.443 11.088 104.443 10.458C104.443 9.646 104.695 8.904 105.199 8.232C105.717 7.56 106.501 7.021 107.551 6.615C108.601 6.209 109.896 6.006 111.436 6.006C112.402 6.006 113.354 6.097 114.292 6.279C115.23 6.461 116.056 6.706 116.77 7.014L115.636 10.122C114.334 9.548 112.99 9.261 111.604 9.261C110.61 9.261 109.868 9.394 109.378 9.66C108.888 9.912 108.643 10.269 108.643 10.731C108.643 11.571 109.252 11.991 110.47 11.991H114.628V15.162H110.197C109.483 15.162 108.944 15.281 108.58 15.519C108.216 15.743 108.034 16.079 108.034 16.527C108.034 17.003 108.3 17.374 108.832 17.64C109.364 17.906 110.19 18.039 111.31 18.039C112.108 18.039 112.927 17.934 113.767 17.724C114.621 17.5 115.363 17.199 115.993 16.821L117.253 19.887ZM125.331 17.094H123.063V21H118.905V6.3H125.625C126.955 6.3 128.11 6.524 129.09 6.972C130.07 7.406 130.826 8.036 131.358 8.862C131.89 9.674 132.156 10.633 132.156 11.739C132.156 12.803 131.904 13.734 131.4 14.532C130.91 15.316 130.203 15.932 129.279 16.38L132.45 21H127.998L125.331 17.094ZM127.956 11.739C127.956 11.053 127.739 10.521 127.305 10.143C126.871 9.765 126.227 9.576 125.373 9.576H123.063V13.881H125.373C126.227 13.881 126.871 13.699 127.305 13.335C127.739 12.957 127.956 12.425 127.956 11.739Z" fill="black"/>
<path d="M15.6091 23.4C18.0157 23.4 20.1057 23.8053 21.8791 24.616C23.6524 25.4013 25.0204 26.5413 25.9831 28.036C26.9457 29.5053 27.4271 31.2407 27.4271 33.242C27.4271 35.2433 26.9457 36.9787 25.9831 38.448C25.0204 39.9173 23.6524 41.0573 21.8791 41.868C20.1057 42.6533 18.0157 43.046 15.6091 43.046H10.9731V50H3.44906V23.4H15.6091ZM15.1531 37.118C16.6984 37.118 17.8637 36.7887 18.6491 36.13C19.4344 35.446 19.8271 34.4833 19.8271 33.242C19.8271 32.0007 19.4344 31.038 18.6491 30.354C17.8637 29.67 16.6984 29.328 15.1531 29.328H10.9731V37.118H15.1531ZM41.6975 29.214V44.186H45.9915V50H29.8415V44.186H34.1735V29.214H29.8415V23.4H45.9915V29.214H41.6975ZM61.6864 42.932H57.5824V50H50.0584V23.4H62.2184C64.6251 23.4 66.7151 23.8053 68.4884 24.616C70.2618 25.4013 71.6298 26.5413 72.5924 28.036C73.5551 29.5053 74.0364 31.2407 74.0364 33.242C74.0364 35.1673 73.5804 36.852 72.6684 38.296C71.7818 39.7147 70.5024 40.8293 68.8304 41.64L74.5684 50H66.5124L61.6864 42.932ZM66.4364 33.242C66.4364 32.0007 66.0438 31.038 65.2584 30.354C64.4731 29.67 63.3078 29.328 61.7624 29.328H57.5824V37.118H61.7624C63.3078 37.118 64.4731 36.7887 65.2584 36.13C66.0438 35.446 66.4364 34.4833 66.4364 33.242ZM90.6133 22.868C93.1213 22.868 95.3253 23.3747 97.2253 24.388C99.1507 25.376 100.633 26.8327 101.671 28.758C102.735 30.658 103.267 32.9507 103.267 35.636V50H95.7433V44.11H85.3693V50H77.9593V35.636C77.9593 32.9507 78.4787 30.658 79.5173 28.758C80.5813 26.8327 82.0633 25.376 83.9633 24.388C85.8887 23.3747 88.1053 22.868 90.6133 22.868ZM95.7433 38.296V34.99C95.7433 33.0393 95.2747 31.57 94.3373 30.582C93.4 29.594 92.146 29.1 90.5753 29.1C88.9793 29.1 87.7127 29.594 86.7753 30.582C85.838 31.57 85.3693 33.0393 85.3693 34.99V38.296H95.7433ZM128.43 31.76C126.201 30.5187 123.934 29.6953 121.628 29.29V50H114.104V29.29C111.748 29.6953 109.481 30.5187 107.302 31.76L104.794 26.288C106.644 25.1733 108.683 24.3247 110.912 23.742C113.167 23.1593 115.485 22.868 117.866 22.868C120.248 22.868 122.553 23.1593 124.782 23.742C127.037 24.3247 129.089 25.1733 130.938 26.288L128.43 31.76ZM145.127 22.868C147.635 22.868 149.839 23.3747 151.739 24.388C153.664 25.376 155.146 26.8327 156.185 28.758C157.249 30.658 157.781 32.9507 157.781 35.636V50H150.257V44.11H139.883V50H132.473V35.636C132.473 32.9507 132.992 30.658 134.031 28.758C135.095 26.8327 136.577 25.376 138.477 24.388C140.402 23.3747 142.619 22.868 145.127 22.868ZM150.257 38.296V34.99C150.257 33.0393 149.788 31.57 148.851 30.582C147.914 29.594 146.66 29.1 145.089 29.1C143.493 29.1 142.226 29.594 141.289 30.582C140.352 31.57 139.883 33.0393 139.883 34.99V38.296H150.257Z" fill="black"/>
</svg>
