<svg width="162" height="50" viewBox="0 0 162 50" fill="none" xmlns="http://www.w3.org/2000/svg">
<rect width="161" height="50" transform="translate(1)" fill="white"/>
<path d="M17.4005 6.3L11.1005 21H7.00551L0.726508 6.3H5.22051L9.21051 15.876L13.2845 6.3H17.4005ZM30.6979 19.887C29.9419 20.321 29.0249 20.664 27.9469 20.916C26.8689 21.168 25.7489 21.294 24.5869 21.294C23.0189 21.294 21.6819 21.105 20.5759 20.727C19.4839 20.349 18.6579 19.824 18.0979 19.152C17.5519 18.48 17.2789 17.703 17.2789 16.821C17.2789 16.051 17.4889 15.372 17.9089 14.784C18.3289 14.196 18.9099 13.741 19.6519 13.419C19.0779 13.125 18.6369 12.719 18.3289 12.201C18.0349 11.669 17.8879 11.088 17.8879 10.458C17.8879 9.646 18.1399 8.904 18.6439 8.232C19.1619 7.56 19.9459 7.021 20.9959 6.615C22.0459 6.209 23.3409 6.006 24.8809 6.006C25.8469 6.006 26.7989 6.097 27.7369 6.279C28.6749 6.461 29.5009 6.706 30.2149 7.014L29.0809 10.122C27.7789 9.548 26.4349 9.261 25.0489 9.261C24.0549 9.261 23.3129 9.394 22.8229 9.66C22.3329 9.912 22.0879 10.269 22.0879 10.731C22.0879 11.571 22.6969 11.991 23.9149 11.991H28.0729V15.162H23.6419C22.9279 15.162 22.3889 15.281 22.0249 15.519C21.6609 15.743 21.4789 16.079 21.4789 16.527C21.4789 17.003 21.7449 17.374 22.2769 17.64C22.8089 17.906 23.6349 18.039 24.7549 18.039C25.5529 18.039 26.3719 17.934 27.2119 17.724C28.0659 17.5 28.8079 17.199 29.4379 16.821L30.6979 19.887ZM49.5489 6.006C51.2849 6.006 52.6359 6.524 53.6019 7.56C54.5819 8.582 55.0719 10.066 55.0719 12.012V21H50.9139V12.138C50.9139 11.256 50.6829 10.591 50.2209 10.143C49.7589 9.681 49.1429 9.45 48.3729 9.45C47.5469 9.45 46.8889 9.695 46.3989 10.185C45.9229 10.661 45.6849 11.382 45.6849 12.348V21H41.5269V12.138C41.5269 11.256 41.3099 10.591 40.8759 10.143C40.4559 9.681 39.8749 9.45 39.1329 9.45C38.3349 9.45 37.6979 9.695 37.2219 10.185C36.7459 10.661 36.5079 11.382 36.5079 12.348V21H32.3499V6.3H36.3819V7.938C36.8299 7.308 37.4039 6.832 38.1039 6.51C38.8179 6.174 39.6439 6.006 40.5819 6.006C41.5479 6.006 42.3879 6.181 43.1019 6.531C43.8299 6.881 44.4179 7.392 44.8659 8.064C45.3699 7.392 46.0279 6.881 46.8399 6.531C47.6519 6.181 48.5549 6.006 49.5489 6.006ZM69.1799 21.294C67.9899 21.294 66.8349 21.147 65.7149 20.853C64.5949 20.559 63.6849 20.167 62.9849 19.677L64.3499 16.611C65.0079 17.045 65.7709 17.395 66.6389 17.661C67.5069 17.927 68.3609 18.06 69.2009 18.06C70.7969 18.06 71.5949 17.661 71.5949 16.863C71.5949 16.443 71.3639 16.135 70.9019 15.939C70.4539 15.729 69.7259 15.512 68.7179 15.288C67.6119 15.05 66.6879 14.798 65.9459 14.532C65.2039 14.252 64.5669 13.811 64.0349 13.209C63.5029 12.607 63.2369 11.795 63.2369 10.773C63.2369 9.877 63.4819 9.072 63.9719 8.358C64.4619 7.63 65.1899 7.056 66.1559 6.636C67.1359 6.216 68.3329 6.006 69.7469 6.006C70.7129 6.006 71.6649 6.118 72.6029 6.342C73.5409 6.552 74.3669 6.867 75.0809 7.287L73.7999 10.374C72.3999 9.618 71.0419 9.24 69.7259 9.24C68.8999 9.24 68.2979 9.366 67.9199 9.618C67.5419 9.856 67.3529 10.171 67.3529 10.563C67.3529 10.955 67.5769 11.249 68.0249 11.445C68.4729 11.641 69.1939 11.844 70.1879 12.054C71.3079 12.292 72.2319 12.551 72.9599 12.831C73.7019 13.097 74.3389 13.531 74.8709 14.133C75.4169 14.721 75.6899 15.526 75.6899 16.548C75.6899 17.43 75.4449 18.228 74.9549 18.942C74.4649 19.656 73.7299 20.23 72.7499 20.664C71.7699 21.084 70.5799 21.294 69.1799 21.294ZM90.2526 19.887C89.4966 20.321 88.5796 20.664 87.5016 20.916C86.4236 21.168 85.3036 21.294 84.1416 21.294C82.5736 21.294 81.2366 21.105 80.1306 20.727C79.0386 20.349 78.2126 19.824 77.6526 19.152C77.1066 18.48 76.8336 17.703 76.8336 16.821C76.8336 16.051 77.0436 15.372 77.4636 14.784C77.8836 14.196 78.4646 13.741 79.2066 13.419C78.6326 13.125 78.1916 12.719 77.8836 12.201C77.5896 11.669 77.4426 11.088 77.4426 10.458C77.4426 9.646 77.6946 8.904 78.1986 8.232C78.7166 7.56 79.5006 7.021 80.5506 6.615C81.6006 6.209 82.8956 6.006 84.4356 6.006C85.4016 6.006 86.3536 6.097 87.2916 6.279C88.2296 6.461 89.0556 6.706 89.7696 7.014L88.6356 10.122C87.3336 9.548 85.9896 9.261 84.6036 9.261C83.6096 9.261 82.8676 9.394 82.3776 9.66C81.8876 9.912 81.6426 10.269 81.6426 10.731C81.6426 11.571 82.2516 11.991 83.4696 11.991H87.6276V15.162H83.1966C82.4826 15.162 81.9436 15.281 81.5796 15.519C81.2156 15.743 81.0336 16.079 81.0336 16.527C81.0336 17.003 81.2996 17.374 81.8316 17.64C82.3636 17.906 83.1896 18.039 84.3096 18.039C85.1076 18.039 85.9266 17.934 86.7666 17.724C87.6206 17.5 88.3626 17.199 88.9926 16.821L90.2526 19.887ZM98.3306 17.094H96.0626V21H91.9046V6.3H98.6246C99.9546 6.3 101.11 6.524 102.09 6.972C103.07 7.406 103.826 8.036 104.358 8.862C104.89 9.674 105.156 10.633 105.156 11.739C105.156 12.803 104.904 13.734 104.4 14.532C103.91 15.316 103.203 15.932 102.279 16.38L105.45 21H100.998L98.3306 17.094ZM100.956 11.739C100.956 11.053 100.739 10.521 100.305 10.143C99.8706 9.765 99.2266 9.576 98.3726 9.576H96.0626V13.881H98.3726C99.2266 13.881 99.8706 13.699 100.305 13.335C100.739 12.957 100.956 12.425 100.956 11.739Z" fill="black"/>
<path d="M16.6091 23.4C19.0157 23.4 21.1057 23.8053 22.8791 24.616C24.6524 25.4013 26.0204 26.5413 26.9831 28.036C27.9457 29.5053 28.4271 31.2407 28.4271 33.242C28.4271 35.2433 27.9457 36.9787 26.9831 38.448C26.0204 39.9173 24.6524 41.0573 22.8791 41.868C21.1057 42.6533 19.0157 43.046 16.6091 43.046H11.9731V50H4.44906V23.4H16.6091ZM16.1531 37.118C17.6984 37.118 18.8637 36.7887 19.6491 36.13C20.4344 35.446 20.8271 34.4833 20.8271 33.242C20.8271 32.0007 20.4344 31.038 19.6491 30.354C18.8637 29.67 17.6984 29.328 16.1531 29.328H11.9731V37.118H16.1531ZM42.6975 29.214V44.186H46.9915V50H30.8415V44.186H35.1735V29.214H30.8415V23.4H46.9915V29.214H42.6975ZM62.6864 42.932H58.5824V50H51.0584V23.4H63.2184C65.6251 23.4 67.7151 23.8053 69.4884 24.616C71.2618 25.4013 72.6298 26.5413 73.5924 28.036C74.5551 29.5053 75.0364 31.2407 75.0364 33.242C75.0364 35.1673 74.5804 36.852 73.6684 38.296C72.7818 39.7147 71.5024 40.8293 69.8304 41.64L75.5684 50H67.5124L62.6864 42.932ZM67.4364 33.242C67.4364 32.0007 67.0438 31.038 66.2584 30.354C65.4731 29.67 64.3078 29.328 62.7624 29.328H58.5824V37.118H62.7624C64.3078 37.118 65.4731 36.7887 66.2584 36.13C67.0438 35.446 67.4364 34.4833 67.4364 33.242ZM91.6133 22.868C94.1213 22.868 96.3253 23.3747 98.2253 24.388C100.151 25.376 101.633 26.8327 102.671 28.758C103.735 30.658 104.267 32.9507 104.267 35.636V50H96.7433V44.11H86.3693V50H78.9593V35.636C78.9593 32.9507 79.4787 30.658 80.5173 28.758C81.5813 26.8327 83.0633 25.376 84.9633 24.388C86.8887 23.3747 89.1053 22.868 91.6133 22.868ZM96.7433 38.296V34.99C96.7433 33.0393 96.2747 31.57 95.3373 30.582C94.4 29.594 93.146 29.1 91.5753 29.1C89.9793 29.1 88.7127 29.594 87.7753 30.582C86.838 31.57 86.3693 33.0393 86.3693 34.99V38.296H96.7433ZM129.43 31.76C127.201 30.5187 124.934 29.6953 122.628 29.29V50H115.104V29.29C112.748 29.6953 110.481 30.5187 108.302 31.76L105.794 26.288C107.644 25.1733 109.683 24.3247 111.912 23.742C114.167 23.1593 116.485 22.868 118.866 22.868C121.248 22.868 123.553 23.1593 125.782 23.742C128.037 24.3247 130.089 25.1733 131.938 26.288L129.43 31.76ZM146.127 22.868C148.635 22.868 150.839 23.3747 152.739 24.388C154.664 25.376 156.146 26.8327 157.185 28.758C158.249 30.658 158.781 32.9507 158.781 35.636V50H151.257V44.11H140.883V50H133.473V35.636C133.473 32.9507 133.992 30.658 135.031 28.758C136.095 26.8327 137.577 25.376 139.477 24.388C141.402 23.3747 143.619 22.868 146.127 22.868ZM151.257 38.296V34.99C151.257 33.0393 150.788 31.57 149.851 30.582C148.914 29.594 147.66 29.1 146.089 29.1C144.493 29.1 143.226 29.594 142.289 30.582C141.352 31.57 140.883 33.0393 140.883 34.99V38.296H151.257Z" fill="black"/>
</svg>
