<svg width="159" height="43" viewBox="0 0 159 43" fill="none" xmlns="http://www.w3.org/2000/svg">
<rect width="159" height="43" fill="#1E1E1E"/>
<path d="M16.6091 16.4C19.0157 16.4 21.1057 16.8053 22.8791 17.616C24.6524 18.4013 26.0204 19.5413 26.9831 21.036C27.9457 22.5053 28.4271 24.2407 28.4271 26.242C28.4271 28.2433 27.9457 29.9787 26.9831 31.448C26.0204 32.9173 24.6524 34.0573 22.8791 34.868C21.1057 35.6533 19.0157 36.046 16.6091 36.046H11.9731V43H4.44906V16.4H16.6091ZM16.1531 30.118C17.6984 30.118 18.8637 29.7887 19.6491 29.13C20.4344 28.446 20.8271 27.4833 20.8271 26.242C20.8271 25.0007 20.4344 24.038 19.6491 23.354C18.8637 22.67 17.6984 22.328 16.1531 22.328H11.9731V30.118H16.1531ZM42.6975 22.214V37.186H46.9915V43H30.8415V37.186H35.1735V22.214H30.8415V16.4H46.9915V22.214H42.6975ZM62.6864 35.932H58.5824V43H51.0584V16.4H63.2184C65.6251 16.4 67.7151 16.8053 69.4884 17.616C71.2618 18.4013 72.6298 19.5413 73.5924 21.036C74.5551 22.5053 75.0364 24.2407 75.0364 26.242C75.0364 28.1673 74.5804 29.852 73.6684 31.296C72.7818 32.7147 71.5024 33.8293 69.8304 34.64L75.5684 43H67.5124L62.6864 35.932ZM67.4364 26.242C67.4364 25.0007 67.0438 24.038 66.2584 23.354C65.4731 22.67 64.3078 22.328 62.7624 22.328H58.5824V30.118H62.7624C64.3078 30.118 65.4731 29.7887 66.2584 29.13C67.0438 28.446 67.4364 27.4833 67.4364 26.242ZM91.6133 15.868C94.1213 15.868 96.3253 16.3747 98.2253 17.388C100.151 18.376 101.633 19.8327 102.671 21.758C103.735 23.658 104.267 25.9507 104.267 28.636V43H96.7433V37.11H86.3693V43H78.9593V28.636C78.9593 25.9507 79.4787 23.658 80.5173 21.758C81.5813 19.8327 83.0633 18.376 84.9633 17.388C86.8887 16.3747 89.1053 15.868 91.6133 15.868ZM96.7433 31.296V27.99C96.7433 26.0393 96.2747 24.57 95.3373 23.582C94.4 22.594 93.146 22.1 91.5753 22.1C89.9793 22.1 88.7127 22.594 87.7753 23.582C86.838 24.57 86.3693 26.0393 86.3693 27.99V31.296H96.7433ZM129.43 24.76C127.201 23.5187 124.934 22.6953 122.628 22.29V43H115.104V22.29C112.748 22.6953 110.481 23.5187 108.302 24.76L105.794 19.288C107.644 18.1733 109.683 17.3247 111.912 16.742C114.167 16.1593 116.485 15.868 118.866 15.868C121.248 15.868 123.553 16.1593 125.782 16.742C128.037 17.3247 130.089 18.1733 131.938 19.288L129.43 24.76ZM146.127 15.868C148.635 15.868 150.839 16.3747 152.739 17.388C154.664 18.376 156.146 19.8327 157.185 21.758C158.249 23.658 158.781 25.9507 158.781 28.636V43H151.257V37.11H140.883V43H133.473V28.636C133.473 25.9507 133.992 23.658 135.031 21.758C136.095 19.8327 137.577 18.376 139.477 17.388C141.402 16.3747 143.619 15.868 146.127 15.868ZM151.257 31.296V27.99C151.257 26.0393 150.788 24.57 149.851 23.582C148.914 22.594 147.66 22.1 146.089 22.1C144.493 22.1 143.226 22.594 142.289 23.582C141.352 24.57 140.883 26.0393 140.883 27.99V31.296H151.257Z" fill="black"/>
<path d="M17.4005 0.299999L11.1005 15H7.00551L0.726508 0.299999H5.22051L9.21051 9.876L13.2845 0.299999H17.4005ZM30.6979 13.887C29.9419 14.321 29.0249 14.664 27.9469 14.916C26.8689 15.168 25.7489 15.294 24.5869 15.294C23.0189 15.294 21.6819 15.105 20.5759 14.727C19.4839 14.349 18.6579 13.824 18.0979 13.152C17.5519 12.48 17.2789 11.703 17.2789 10.821C17.2789 10.051 17.4889 9.372 17.9089 8.784C18.3289 8.196 18.9099 7.741 19.6519 7.419C19.0779 7.125 18.6369 6.719 18.3289 6.201C18.0349 5.669 17.8879 5.088 17.8879 4.458C17.8879 3.646 18.1399 2.904 18.6439 2.232C19.1619 1.56 19.9459 1.021 20.9959 0.614999C22.0459 0.208999 23.3409 0.00599903 24.8809 0.00599903C25.8469 0.00599903 26.7989 0.0969991 27.7369 0.278999C28.6749 0.460999 29.5009 0.706 30.2149 1.014L29.0809 4.122C27.7789 3.548 26.4349 3.261 25.0489 3.261C24.0549 3.261 23.3129 3.394 22.8229 3.66C22.3329 3.912 22.0879 4.269 22.0879 4.731C22.0879 5.571 22.6969 5.991 23.9149 5.991H28.0729V9.162H23.6419C22.9279 9.162 22.3889 9.281 22.0249 9.519C21.6609 9.743 21.4789 10.079 21.4789 10.527C21.4789 11.003 21.7449 11.374 22.2769 11.64C22.8089 11.906 23.6349 12.039 24.7549 12.039C25.5529 12.039 26.3719 11.934 27.2119 11.724C28.0659 11.5 28.8079 11.199 29.4379 10.821L30.6979 13.887ZM49.5489 0.00599903C51.2849 0.00599903 52.6359 0.523999 53.6019 1.56C54.5819 2.582 55.0719 4.066 55.0719 6.012V15H50.9139V6.138C50.9139 5.256 50.6829 4.591 50.2209 4.143C49.7589 3.681 49.1429 3.45 48.3729 3.45C47.5469 3.45 46.8889 3.695 46.3989 4.185C45.9229 4.661 45.6849 5.382 45.6849 6.348V15H41.5269V6.138C41.5269 5.256 41.3099 4.591 40.8759 4.143C40.4559 3.681 39.8749 3.45 39.1329 3.45C38.3349 3.45 37.6979 3.695 37.2219 4.185C36.7459 4.661 36.5079 5.382 36.5079 6.348V15H32.3499V0.299999H36.3819V1.938C36.8299 1.308 37.4039 0.831999 38.1039 0.509999C38.8179 0.173999 39.6439 0.00599903 40.5819 0.00599903C41.5479 0.00599903 42.3879 0.180999 43.1019 0.531C43.8299 0.880999 44.4179 1.392 44.8659 2.064C45.3699 1.392 46.0279 0.880999 46.8399 0.531C47.6519 0.180999 48.5549 0.00599903 49.5489 0.00599903ZM69.1799 15.294C67.9899 15.294 66.8349 15.147 65.7149 14.853C64.5949 14.559 63.6849 14.167 62.9849 13.677L64.3499 10.611C65.0079 11.045 65.7709 11.395 66.6389 11.661C67.5069 11.927 68.3609 12.06 69.2009 12.06C70.7969 12.06 71.5949 11.661 71.5949 10.863C71.5949 10.443 71.3639 10.135 70.9019 9.939C70.4539 9.729 69.7259 9.512 68.7179 9.288C67.6119 9.05 66.6879 8.798 65.9459 8.532C65.2039 8.252 64.5669 7.811 64.0349 7.209C63.5029 6.607 63.2369 5.795 63.2369 4.773C63.2369 3.877 63.4819 3.072 63.9719 2.358C64.4619 1.63 65.1899 1.056 66.1559 0.636C67.1359 0.215999 68.3329 0.00599903 69.7469 0.00599903C70.7129 0.00599903 71.6649 0.117999 72.6029 0.342C73.5409 0.552 74.3669 0.866999 75.0809 1.287L73.7999 4.374C72.3999 3.618 71.0419 3.24 69.7259 3.24C68.8999 3.24 68.2979 3.366 67.9199 3.618C67.5419 3.856 67.3529 4.171 67.3529 4.563C67.3529 4.955 67.5769 5.249 68.0249 5.445C68.4729 5.641 69.1939 5.844 70.1879 6.054C71.3079 6.292 72.2319 6.551 72.9599 6.831C73.7019 7.097 74.3389 7.531 74.8709 8.133C75.4169 8.721 75.6899 9.526 75.6899 10.548C75.6899 11.43 75.4449 12.228 74.9549 12.942C74.4649 13.656 73.7299 14.23 72.7499 14.664C71.7699 15.084 70.5799 15.294 69.1799 15.294ZM90.2526 13.887C89.4966 14.321 88.5796 14.664 87.5016 14.916C86.4236 15.168 85.3036 15.294 84.1416 15.294C82.5736 15.294 81.2366 15.105 80.1306 14.727C79.0386 14.349 78.2126 13.824 77.6526 13.152C77.1066 12.48 76.8336 11.703 76.8336 10.821C76.8336 10.051 77.0436 9.372 77.4636 8.784C77.8836 8.196 78.4646 7.741 79.2066 7.419C78.6326 7.125 78.1916 6.719 77.8836 6.201C77.5896 5.669 77.4426 5.088 77.4426 4.458C77.4426 3.646 77.6946 2.904 78.1986 2.232C78.7166 1.56 79.5006 1.021 80.5506 0.614999C81.6006 0.208999 82.8956 0.00599903 84.4356 0.00599903C85.4016 0.00599903 86.3536 0.0969991 87.2916 0.278999C88.2296 0.460999 89.0556 0.706 89.7696 1.014L88.6356 4.122C87.3336 3.548 85.9896 3.261 84.6036 3.261C83.6096 3.261 82.8676 3.394 82.3776 3.66C81.8876 3.912 81.6426 4.269 81.6426 4.731C81.6426 5.571 82.2516 5.991 83.4696 5.991H87.6276V9.162H83.1966C82.4826 9.162 81.9436 9.281 81.5796 9.519C81.2156 9.743 81.0336 10.079 81.0336 10.527C81.0336 11.003 81.2996 11.374 81.8316 11.64C82.3636 11.906 83.1896 12.039 84.3096 12.039C85.1076 12.039 85.9266 11.934 86.7666 11.724C87.6206 11.5 88.3626 11.199 88.9926 10.821L90.2526 13.887ZM98.3306 11.094H96.0626V15H91.9046V0.299999H98.6246C99.9546 0.299999 101.11 0.523999 102.09 0.971999C103.07 1.406 103.826 2.036 104.358 2.862C104.89 3.674 105.156 4.633 105.156 5.739C105.156 6.803 104.904 7.734 104.4 8.532C103.91 9.316 103.203 9.932 102.279 10.38L105.45 15H100.998L98.3306 11.094ZM100.956 5.739C100.956 5.053 100.739 4.521 100.305 4.143C99.8706 3.765 99.2266 3.576 98.3726 3.576H96.0626V7.881H98.3726C99.2266 7.881 99.8706 7.699 100.305 7.335C100.739 6.957 100.956 6.425 100.956 5.739Z" fill="black"/>
</svg>
